<svg width="96px" height="87px" viewBox="0 0 96 87" fill="none" xmlns="http://www.w3.org/2000/svg">
<path d="M42.5 12H36.5L27.5 3L3 28L11.5 37.5V45L14.5 48.5" stroke="#282727" stroke-width="3"/>
<path d="M56 76L60.5 81L86 55.5L62.5 32" stroke="#282727" stroke-width="3"/>
<path d="M81 48.5L84.5 45V36.5L93.5 28L68.5 3L59.5 11.5H43.5L27 32L30 35H41.5L47.5 29L52 33.5H60.5L69 25" stroke="#0D21DA" stroke-width="3"/>
<path d="M64.5 51L76.5 63" stroke="#282727" stroke-width="3"/>
<path d="M56.5 60L68.5 72" stroke="#282727" stroke-width="3"/>
<rect x="22.1818" y="40.7523" width="11.6267" height="18.6265" transform="rotate(45 22.1818 40.7523)" stroke="#0D21DA" stroke-width="3"/>
<rect width="11.7453" height="24.2025" transform="matrix(-0.707107 -0.707107 -0.707107 0.707107 42.6511 53.3359)" stroke="#0D21DA" stroke-width="3"/>
<rect x="38.3308" y="57.6564" width="12.22" height="18.0925" transform="rotate(45 38.3308 57.6564)" stroke="#0D21DA" stroke-width="3"/>
<rect width="11.7453" height="14.0587" transform="matrix(-0.707107 -0.707107 -0.707107 0.707107 55.2767 74.6024)" stroke="#0D21DA" stroke-width="3"/>
</svg>
