<svg width="89" height="81" viewBox="0 0 89 81" fill="none" xmlns="http://www.w3.org/2000/svg">
<ellipse cx="25.8531" cy="9.96548" rx="7.9508" ry="7.96548" fill="white" stroke="#282727" stroke-width="3"/>
<rect width="10.2874" height="41.8779" rx="5.1437" transform="matrix(0.809759 -0.586763 0.579552 0.814935 55.6699 45.8722)" stroke="#282727" stroke-width="3"/>
<path fill-rule="evenodd" clip-rule="evenodd" d="M29.1039 22.2274C24.9374 24.7921 23.6106 30.2659 26.1405 34.4536L36.233 51.1601C38.7628 55.3478 44.1913 56.6636 48.3578 54.099C52.5243 51.5344 53.8511 46.0605 51.3212 41.8728L51.0796 41.4729L62.3223 39.8351C64.4104 39.5309 65.8575 37.5914 65.5544 35.5031C65.2514 33.4148 63.3129 31.9685 61.2247 32.2726L46.7918 34.3751L41.2287 25.1663C38.6989 20.9786 33.2704 19.6628 29.1039 22.2274Z" fill="white"/>
<path d="M26.1405 34.4536L24.8566 35.2293H24.8566L26.1405 34.4536ZM29.1039 22.2274L29.8902 23.5049L29.1039 22.2274ZM36.233 51.1601L37.5169 50.3845L36.233 51.1601ZM48.3578 54.099L47.5715 52.8216L48.3578 54.099ZM51.3212 41.8728L50.0373 42.6484V42.6484L51.3212 41.8728ZM51.0796 41.4729L50.8634 39.9885L48.6272 40.3143L49.7957 42.2485L51.0796 41.4729ZM62.3223 39.8351L62.5385 41.3195V41.3195L62.3223 39.8351ZM65.5544 35.5031L67.0389 35.2877V35.2877L65.5544 35.5031ZM61.2247 32.2726L61.0085 30.7883L61.2247 32.2726ZM46.7918 34.3751L45.5079 35.1507L46.0227 36.0029L47.008 35.8594L46.7918 34.3751ZM41.2287 25.1663L39.9448 25.9419H39.9448L41.2287 25.1663ZM27.4244 33.678C25.3204 30.1952 26.4251 25.6378 29.8902 23.5049L28.3177 20.95C23.4498 23.9464 21.9009 30.3366 24.8566 35.2293L27.4244 33.678ZM37.5169 50.3845L27.4244 33.678L24.8566 35.2293L34.9491 51.9357L37.5169 50.3845ZM47.5715 52.8216C44.1146 54.9494 39.6158 53.859 37.5169 50.3845L34.9491 51.9357C37.9098 56.8367 44.2679 58.3778 49.144 55.3764L47.5715 52.8216ZM50.0373 42.6484C52.1413 46.1312 51.0367 50.6887 47.5715 52.8216L49.144 55.3764C54.0119 52.3801 55.5608 45.9898 52.6051 41.0972L50.0373 42.6484ZM49.7957 42.2485L50.0373 42.6484L52.6051 41.0972L52.3635 40.6972L49.7957 42.2485ZM62.106 38.3508L50.8634 39.9885L51.2958 42.9572L62.5385 41.3195L62.106 38.3508ZM64.07 35.7186C64.2541 36.9873 63.3747 38.166 62.106 38.3508L62.5385 41.3195C65.4461 40.8959 67.4609 38.1955 67.0389 35.2877L64.07 35.7186ZM61.4409 33.757C62.709 33.5723 63.8859 34.4504 64.07 35.7186L67.0389 35.2877C66.6168 32.3792 63.9167 30.3647 61.0085 30.7883L61.4409 33.757ZM47.008 35.8594L61.4409 33.757L61.0085 30.7883L46.5756 32.8908L47.008 35.8594ZM39.9448 25.9419L45.5079 35.1507L48.0757 33.5995L42.5126 24.3907L39.9448 25.9419ZM29.8902 23.5049C33.3471 21.377 37.8459 22.4675 39.9448 25.9419L42.5126 24.3907C39.5519 19.4897 33.1938 17.9486 28.3177 20.95L29.8902 23.5049Z" fill="#282727"/>
<path d="M32.1543 29.0083L40.9868 42.1695" stroke="#282727" stroke-width="3"/>
<path fill-rule="evenodd" clip-rule="evenodd" d="M17.406 46.308L2.99516 18.4289L2.62368 17.6294C1.40653 15.0101 3.319 12.0126 6.20728 12.0126C14.8724 12.0126 18.1546 17.8575 19.477 20.2124C19.6437 20.5094 19.7793 20.7508 19.8906 20.9181L32.0392 42.9034L68.1767 37.1498C70.1998 36.8277 72.2543 37.4997 73.6961 38.955C75.596 40.8728 76.0786 43.7809 74.8999 46.2095L59.1478 78.6678H55.783H47.7185H45.2339H37.1694H33.8046L17.413 46.3069L17.406 46.308Z" fill="white"/>
<path d="M2.99516 18.4289L1.63486 19.061L1.64816 19.0896L1.66265 19.1176L2.99516 18.4289ZM17.406 46.308L16.0735 46.9968L16.5771 47.9711L17.6581 47.7867L17.406 46.308ZM2.62368 17.6294L1.26337 18.2615L2.62368 17.6294ZM19.477 20.2124L18.1691 20.9468L18.1691 20.9468L19.477 20.2124ZM19.8906 20.9181L21.2035 20.1926L21.1736 20.1385L21.1394 20.0871L19.8906 20.9181ZM32.0392 42.9034L30.7263 43.6288L31.2355 44.5502L32.2751 44.3847L32.0392 42.9034ZM68.1767 37.1498L67.9408 35.6685L68.1767 37.1498ZM73.6961 38.955L72.6305 40.0107V40.0107L73.6961 38.955ZM74.8999 46.2095L73.5504 45.5546L74.8999 46.2095ZM59.1478 78.6678V80.1678H60.0871L60.4972 79.3227L59.1478 78.6678ZM33.8046 78.6678L32.4665 79.3456L32.8829 80.1678H33.8046V78.6678ZM17.413 46.3069L18.7511 45.6291L18.2512 44.6422L17.1608 44.8282L17.413 46.3069ZM1.66265 19.1176L16.0735 46.9968L18.7385 45.6193L4.32767 17.7401L1.66265 19.1176ZM1.26337 18.2615L1.63486 19.061L4.35547 17.7967L3.98399 16.9973L1.26337 18.2615ZM6.20728 10.5126C2.22263 10.5126 -0.415795 14.648 1.26337 18.2615L3.98399 16.9973C3.22886 15.3723 4.41537 13.5126 6.20728 13.5126V10.5126ZM20.7849 19.4779C19.4228 17.0523 15.7563 10.5126 6.20728 10.5126V13.5126C13.9886 13.5126 16.8864 18.6626 18.1691 20.9468L20.7849 19.4779ZM21.1394 20.0871C21.0671 19.9785 20.964 19.7969 20.7849 19.4779L18.1691 20.9468C18.3235 21.2218 18.4915 21.5232 18.6418 21.7491L21.1394 20.0871ZM33.3521 42.1779L21.2035 20.1926L18.5777 21.6435L30.7263 43.6288L33.3521 42.1779ZM67.9408 35.6685L31.8034 41.422L32.2751 44.3847L68.4125 38.6312L67.9408 35.6685ZM74.7617 37.8993C72.9799 36.1008 70.441 35.2704 67.9408 35.6685L68.4125 38.6312C69.9586 38.385 71.5286 38.8985 72.6305 40.0107L74.7617 37.8993ZM76.2494 46.8644C77.706 43.8631 77.1096 40.2693 74.7617 37.8993L72.6305 40.0107C74.0824 41.4763 74.4512 43.6986 73.5504 45.5546L76.2494 46.8644ZM60.4972 79.3227L76.2494 46.8644L73.5504 45.5546L57.7983 78.0129L60.4972 79.3227ZM55.783 80.1678H59.1478V77.1678H55.783V80.1678ZM47.7185 80.1678H55.783V77.1678H47.7185V80.1678ZM45.2339 80.1678H47.7185V77.1678H45.2339V80.1678ZM37.1694 80.1678H45.2339V77.1678H37.1694V80.1678ZM33.8046 80.1678H37.1694V77.1678H33.8046V80.1678ZM16.0748 46.9846L32.4665 79.3456L35.1427 77.99L18.7511 45.6291L16.0748 46.9846ZM17.6581 47.7867L17.6651 47.7855L17.1608 44.8282L17.1538 44.8294L17.6581 47.7867Z" fill="#0D21DA"/>
</svg>
