<svg width="84" height="88" viewBox="0 0 84 88" fill="none" xmlns="http://www.w3.org/2000/svg">
<path d="M79.7145 51.1891V48.759C79.7145 30.8756 65.2172 16.3783 47.3338 16.3783C29.4505 16.3783 14.9532 30.8756 14.9532 48.759V51.1891V73.5057C14.9532 74.1369 14.4415 74.6486 13.8103 74.6486C13.1792 74.6486 12.6675 75.1602 12.6675 75.7914V80.3242C12.6675 83.4588 15.2086 85.9999 18.3432 85.9999H76.3245C79.4591 85.9999 82.0002 83.4588 82.0002 80.3242V75.7914C82.0002 75.1602 81.4885 74.6486 80.8574 74.6486C80.2262 74.6486 79.7145 74.1369 79.7145 73.5057V51.1891Z" fill="white"/>
<path d="M79.7135 76.9188V51.1891V48.759C79.7135 30.8756 65.2162 16.3783 47.3328 16.3783V16.3783C29.4495 16.3783 14.9521 30.8756 14.9521 48.759V51.1891V76.9188" stroke="#0D21DA" stroke-width="3"/>
<path d="M78.5 75.4054H82.0002V86H12.6675V75.4054H16.8579" stroke="#0D21DA" stroke-width="3"/>
<path d="M34.7627 2H59.9053V3.80706C59.9053 10.75 54.277 16.3784 47.334 16.3784C40.3911 16.3784 34.7627 10.75 34.7627 3.80706V2Z" fill="white" stroke="#0D21DA" stroke-width="3"/>
<path d="M51.5235 47.4053V20.5687C51.5235 18.2544 49.6473 16.3783 47.333 16.3783V16.3783C45.0187 16.3783 43.1426 18.2544 43.1426 20.5687V35.2972" stroke="#282727" stroke-width="3"/>
<path d="M38.5713 16.3783H56.0949" stroke="#282727" stroke-width="3"/>
<ellipse cx="19.5237" cy="68.5946" rx="17.5237" ry="17.4054" fill="white" stroke="#282727" stroke-width="3"/>
<path d="M21.4031 74.5691C23.0524 74.5691 24.4424 73.8812 25.5733 72.5055L28 74.8923C27.2147 75.9033 26.2408 76.674 25.0785 77.2044C23.9319 77.7348 22.644 78 21.2147 78C19.8482 78 18.5759 77.7431 17.3979 77.2293C16.2356 76.7155 15.2461 75.9862 14.4293 75.0414C13.6126 74.0967 13.0236 73.0028 12.6623 71.7597H10V69.6713H12.3089C12.2932 69.5221 12.2853 69.2983 12.2853 69C12.2853 68.7017 12.2932 68.4779 12.3089 68.3287H10V66.2403H12.6623C13.0236 64.9972 13.6126 63.9033 14.4293 62.9586C15.2461 62.0138 16.2356 61.2845 17.3979 60.7707C18.5759 60.2569 19.8482 60 21.2147 60C22.644 60 23.9319 60.2652 25.0785 60.7956C26.2408 61.326 27.2147 62.0884 28 63.0829L25.5733 65.4696C24.4267 64.1105 23.0366 63.4309 21.4031 63.4309C20.3665 63.4309 19.4398 63.6796 18.623 64.1768C17.8063 64.674 17.178 65.3619 16.7382 66.2403H22.699V68.3287H16.1492C16.1335 68.4779 16.1257 68.7017 16.1257 69C16.1257 69.2983 16.1335 69.5221 16.1492 69.6713H22.699V71.7597H16.7382C17.178 72.6381 17.8063 73.326 18.623 73.8232C19.4398 74.3204 20.3665 74.5691 21.4031 74.5691Z" fill="#0D21DA"/>
</svg>
