<svg width="68" height="68" viewBox="0 0 68 68" fill="none" xmlns="http://www.w3.org/2000/svg">
<path d="M54.16 56H58V45M48.4 56H34M34 56V45M34 56H10V52M34 45H31.12M34 45V34M34 45H47.44M21.52 45H10V24M10 21V24M10 15V8H58V19M10 24H34V26M34 29V26M34 26H40.72M58 19H51.28L47.44 23V27M58 19V45M54.16 45H58" stroke="#282727" stroke-width="3"/>
<path d="M5 2H2V34M5 66H2V34M2 34H5" stroke="#0D21DA" stroke-width="3"/>
<path d="M63 66L66 66L66 34M63 2L66 2L66 34M66 34L63 34" stroke="#0D21DA" stroke-width="3"/>
</svg>
