<svg width="67" height="67" viewBox="0 0 67 67" fill="none" xmlns="http://www.w3.org/2000/svg">
<path fill-rule="evenodd" clip-rule="evenodd" d="M55 2H7V12H55L55 60H65L65 12V2H55Z" fill="white"/>
<path d="M7 2V0.5H5.5V2H7ZM7 12H5.5V13.5H7V12ZM55 12H56.5V10.5H55V12ZM55 60H53.5V61.5H55V60ZM65 60V61.5H66.5V60H65ZM65 12H66.5H65ZM65 2H66.5V0.5H65V2ZM7 3.5H55V0.5H7V3.5ZM8.5 12V2H5.5V12H8.5ZM55 10.5H7V13.5H55V10.5ZM56.5 60L56.5 12H53.5L53.5 60H56.5ZM65 58.5H55V61.5H65V58.5ZM63.5 12L63.5 60H66.5L66.5 12H63.5ZM63.5 2V12H66.5V2H63.5ZM55 3.5H65V0.5H55V3.5Z" fill="#282727"/>
<path d="M22 6V11" stroke="#282727" stroke-width="3"/>
<path d="M32 6V11" stroke="#282727" stroke-width="3"/>
<path d="M12 6V11" stroke="#282727" stroke-width="3"/>
<path d="M17 8V11" stroke="#282727" stroke-width="3"/>
<path d="M27 8V11" stroke="#282727" stroke-width="3"/>
<path d="M37 8V11" stroke="#282727" stroke-width="3"/>
<path d="M42 6V11" stroke="#282727" stroke-width="3"/>
<path d="M47 8V11" stroke="#282727" stroke-width="3"/>
<path d="M52 6V11" stroke="#282727" stroke-width="3"/>
<path d="M60 25L55 25" stroke="#282727" stroke-width="3"/>
<path d="M60 35L55 35" stroke="#282727" stroke-width="3"/>
<path d="M60 15L55 15" stroke="#282727" stroke-width="3"/>
<path d="M58 20L55 20" stroke="#282727" stroke-width="3"/>
<path d="M58 30L55 30" stroke="#282727" stroke-width="3"/>
<path d="M58 40L55 40" stroke="#282727" stroke-width="3"/>
<path d="M60 45L55 45" stroke="#282727" stroke-width="3"/>
<path d="M58 50L55 50" stroke="#282727" stroke-width="3"/>
<path d="M60 55L55 55" stroke="#282727" stroke-width="3"/>
<path d="M65 2L55 12" stroke="#282727" stroke-width="3"/>
<path d="M7 20V60H46.5" stroke="#0D21DA" stroke-width="3" stroke-linecap="square"/>
<path d="M31.576 30.848C32.584 30.848 33.392 31.192 34 31.88C34.608 32.552 34.912 33.488 34.912 34.688V44H31.12V35.336C31.12 34.2 30.76 33.632 30.04 33.632C29.64 33.632 29.288 33.768 28.984 34.04C28.68 34.312 28.384 34.728 28.096 35.288V44H24.304V35.336C24.304 34.2 23.944 33.632 23.224 33.632C22.84 33.632 22.488 33.776 22.168 34.064C21.864 34.336 21.568 34.744 21.28 35.288V44H17.488V31.256H20.8L21.064 32.744C21.56 32.104 22.104 31.632 22.696 31.328C23.304 31.008 23.992 30.848 24.76 30.848C25.48 30.848 26.096 31.024 26.608 31.376C27.136 31.728 27.52 32.224 27.76 32.864C28.272 32.176 28.832 31.672 29.44 31.352C30.064 31.016 30.776 30.848 31.576 30.848ZM40.9294 25.952C42.1454 25.952 43.0814 26.248 43.7374 26.84C44.4094 27.416 44.7454 28.128 44.7454 28.976C44.7454 29.472 44.6334 29.952 44.4094 30.416C44.2014 30.864 43.8094 31.384 43.2334 31.976C42.6574 32.552 41.8254 33.28 40.7374 34.16H44.9854L44.6974 36.296H37.5454V34.328C38.7774 33.208 39.6814 32.36 40.2574 31.784C40.8494 31.192 41.2574 30.704 41.4814 30.32C41.7214 29.936 41.8414 29.568 41.8414 29.216C41.8414 28.864 41.7294 28.584 41.5054 28.376C41.2974 28.168 41.0094 28.064 40.6414 28.064C40.2734 28.064 39.9454 28.144 39.6574 28.304C39.3694 28.464 39.0734 28.72 38.7694 29.072L37.1374 27.8C37.5854 27.224 38.1294 26.776 38.7694 26.456C39.4094 26.12 40.1294 25.952 40.9294 25.952Z" fill="#0D21DA"/>
<path d="M11.9999 23.9999L6.99993 19L1.99999 23.9999" stroke="#0D21DA" stroke-width="3"/>
<path d="M43 64.9999L47.9999 59.9999L43 55" stroke="#0D21DA" stroke-width="3"/>
</svg>
