<svg width="36px" height="36px" viewBox="0 0 36 36" fill="none" xmlns="http://www.w3.org/2000/svg">
<path d="M21.8203 8.11609L22.107 6.64374C21.4593 6.51762 20.8052 6.82957 20.4956 7.41229C20.186 7.99501 20.2936 8.71162 20.7606 9.17776L21.8203 8.11609ZM27.8716 14.1558L26.8119 15.2175C27.2787 15.6834 27.9951 15.7897 28.5771 15.4795C29.1591 15.1693 29.4702 14.5153 29.3437 13.868L27.8716 14.1558ZM21.8203 2L21.9856 0.509137C21.3521 0.438892 20.7433 0.776697 20.4677 1.35144C20.1921 1.92619 20.3099 2.61234 20.7613 3.06234L21.8203 2ZM33.9994 14.1406L32.9404 15.2029C33.3916 15.6526 34.0776 15.7684 34.6513 15.4915C35.225 15.2147 35.5613 14.6058 35.49 13.9728L33.9994 14.1406ZM32.468 30.9294H30.9679L30.968 30.9355L32.468 30.9294ZM31.4754 33.1953L30.4624 32.089H30.4624L31.4754 33.1953ZM29.1283 33.9875L28.9665 35.4788C28.9755 35.4798 28.9845 35.4806 28.9935 35.4815L29.1283 33.9875ZM15.9074 29.2934L16.7225 28.0341L16.7108 28.0267L15.9074 29.2934ZM6.71559 20.1191L7.98096 19.3135L7.97379 19.3025L6.71559 20.1191ZM2.01245 6.86236L0.518556 6.99761C0.519264 7.00543 0.520033 7.01325 0.520864 7.02106L2.01245 6.86236ZM2.80105 4.5254L1.69418 3.51307H1.69418L2.80105 4.5254ZM5.06106 3.52905V2.02905L5.05965 2.02905L5.06106 3.52905ZM9.65696 3.52905V5.02905C9.66188 5.02905 9.66679 5.02903 9.6717 5.02898L9.65696 3.52905ZM12.7209 6.159L14.208 5.96249L14.2061 5.94868L12.7209 6.159ZM13.7933 10.4556L12.3883 10.9809L12.3895 10.9843L13.7933 10.4556ZM13.1039 13.6819L14.1636 14.7436L14.1695 14.7376L13.1039 13.6819ZM11.1583 15.6238L10.0986 14.5621C9.62002 15.0398 9.52022 15.7787 9.85496 16.3663L11.1583 15.6238ZM20.3501 24.798L19.6097 26.1025C20.1961 26.4353 20.9325 26.336 21.4097 25.8597L20.3501 24.798ZM22.2957 22.8561L21.242 21.7885L21.2361 21.7944L22.2957 22.8561ZM25.5281 22.168L25.0012 23.5725L25.0046 23.5737L25.5281 22.168ZM29.833 23.2384L30.0421 21.753L30.0287 21.7512L29.833 23.2384ZM32.468 26.3423L30.9684 26.305C30.9681 26.3175 30.968 26.3299 30.968 26.3423H32.468ZM21.5336 9.58843C23.9964 10.068 25.9197 11.9893 26.3994 14.4436L29.3437 13.868C28.6291 10.2123 25.7659 7.35624 22.107 6.64374L21.5336 9.58843ZM28.9312 13.0941L22.8799 7.05441L20.7606 9.17776L26.8119 15.2175L28.9312 13.0941ZM21.655 3.49086C27.3632 4.12379 31.8681 8.61696 32.5088 14.3084L35.49 13.9728C34.692 6.8846 29.0832 1.29612 21.9856 0.509137L21.655 3.49086ZM35.0584 13.0782L22.8793 0.937659L20.7613 3.06234L32.9404 15.2029L35.0584 13.0782ZM30.968 30.9355C30.9698 31.3733 30.7866 31.7921 30.4624 32.089L32.4884 34.3016C33.4356 33.4342 33.9732 32.2078 33.9679 30.9233L30.968 30.9355ZM30.4624 32.089C30.138 32.386 29.7026 32.5332 29.263 32.4936L28.9935 35.4815C30.2724 35.5968 31.5413 35.1688 32.4884 34.3015L30.4624 32.089ZM29.29 32.4963C24.8087 32.0103 20.5042 30.4819 16.7224 28.0341L15.0923 30.5526C19.2676 33.2551 24.0197 34.9423 28.9665 35.4788L29.29 32.4963ZM16.7108 28.0267C13.1951 25.7969 10.2146 22.8221 7.98091 19.3136L5.45026 20.9247C7.92071 24.805 11.2167 28.0947 15.104 30.5601L16.7108 28.0267ZM7.97379 19.3025C5.51312 15.5113 3.98191 11.1952 3.50403 6.70366L0.520864 7.02106C1.0487 11.9821 2.73994 16.749 5.45738 20.9358L7.97379 19.3025ZM3.50633 6.7271C3.46699 6.29251 3.61237 5.8609 3.90792 5.53774L1.69418 3.51307C0.830051 4.45789 0.403093 5.72235 0.518556 6.99761L3.50633 6.7271ZM3.90792 5.53774C4.20359 5.21446 4.62247 5.02946 5.06247 5.02905L5.05965 2.02905C3.77954 2.03025 2.55819 2.56837 1.69418 3.51307L3.90792 5.53774ZM5.06106 5.02905H9.65696V2.02905H5.06106V5.02905ZM9.6717 5.02898C10.459 5.02124 11.1263 5.59691 11.2357 6.36932L14.2061 5.94868C13.885 3.68126 11.9307 2.00664 9.64223 2.02912L9.6717 5.02898ZM11.2338 6.3555C11.4427 7.93585 11.8299 9.48751 12.3883 10.9809L15.1983 9.93031C14.7193 8.64918 14.3871 7.31811 14.208 5.96249L11.2338 6.3555ZM12.3895 10.9843C12.6035 11.5525 12.467 12.1935 12.0383 12.6261L14.1695 14.7376C15.4229 13.4725 15.8248 11.5938 15.197 9.92692L12.3895 10.9843ZM12.0442 12.6202L10.0986 14.5621L12.2179 16.6854L14.1635 14.7435L12.0442 12.6202ZM9.85496 16.3663C12.1696 20.4291 15.5398 23.7927 19.6097 26.1025L21.0905 23.4934C17.4897 21.4499 14.5087 18.4744 12.4616 14.8812L9.85496 16.3663ZM21.4097 25.8597L23.3553 23.9178L21.2361 21.7944L19.2905 23.7363L21.4097 25.8597ZM23.3494 23.9237C23.7834 23.4954 24.4285 23.3576 25.0012 23.5725L26.0551 20.7636C24.3884 20.1383 22.5091 20.5379 21.242 21.7885L23.3494 23.9237ZM25.0046 23.5737C26.5004 24.1308 28.0545 24.5172 29.6372 24.7255L30.0287 21.7512C28.6699 21.5723 27.3357 21.2406 26.0517 20.7624L25.0046 23.5737ZM29.6238 24.7237C30.4122 24.8347 30.988 25.5166 30.9684 26.305L33.9675 26.3796C34.0251 24.0635 32.3348 22.0758 30.0421 21.753L29.6238 24.7237ZM30.968 26.3423V30.9294H33.968V26.3423H30.968Z" fill="#0D21DA"/>
</svg>
