<svg width="56" height="56" viewBox="0 0 56 56" fill="none" xmlns="http://www.w3.org/2000/svg">
<path d="M12.2812 16.4062H13.9219C16.6358 16.4062 18.8438 14.1983 18.8438 11.4844C18.8438 8.77045 16.6358 6.5625 13.9219 6.5625H9V19.6875H12.2812V16.4062ZM12.2812 9.84375H13.9219C14.8265 9.84375 15.5625 10.5797 15.5625 11.4844C15.5625 12.389 14.8265 13.125 13.9219 13.125H12.2812V9.84375Z" fill="#282727"/>
<path d="M14.7656 26.1476C21.2313 25.3378 26.25 19.8066 26.25 13.125C26.25 5.88788 20.3621 0 13.125 0C5.88788 0 0 5.88788 0 13.125C0 19.8066 5.01867 25.3378 11.4844 26.1476V39.4844H8.20312V56H18.0469V39.4844H14.7656V26.1476ZM3.28125 13.125C3.28125 7.69716 7.69716 3.28125 13.125 3.28125C18.5528 3.28125 22.9688 7.69716 22.9688 13.125C22.9688 18.5528 18.5528 22.9688 13.125 22.9688C7.69716 22.9688 3.28125 18.5528 3.28125 13.125ZM14.7656 52.7188H11.4844V42.7656H14.7656V52.7188Z" fill="#0D21DA"/>
<path d="M56 32.9219H52.2607L48.9794 23.0781H26.7081L23.4268 32.9219H19.6875V49.3281H22.9688V56H32.8125V49.3281H42.875V56H52.7188V49.3281H56V32.9219ZM29.0732 26.3594H46.6144L48.8019 32.9219H26.8857L29.0732 26.3594ZM29.5312 52.7188H26.25V49.3281H29.5312V52.7188ZM49.4375 52.7188H46.1562V49.3281H49.4375V52.7188ZM52.7188 46.0469H22.9688V36.2031H52.7188V46.0469Z" fill="#282727"/>
<path d="M26.25 39.4844H29.5312V42.7656H26.25V39.4844Z" fill="#0D21DA"/>
<path d="M46.1562 39.4844H49.4375V42.7656H46.1562V39.4844Z" fill="#0D21DA"/>
<path d="M32.8125 39.4844H42.875V42.7656H32.8125V39.4844Z" fill="#0D21DA"/>
</svg>
