<svg width="78" height="54" viewBox="0 0 78 54" fill="none" xmlns="http://www.w3.org/2000/svg">
<path d="M28 20.6869L52 2L76 20.6869V52H28V20.6869Z" fill="white" stroke="#0D21DA" stroke-width="3"/>
<rect x="17" y="11" width="25" height="43" fill="white"/>
<path d="M17.5 25H15L5 32.5H2V45H13L26.5 32C25.5 30.6667 21.8 29.6 19 32C16.2 34.4 13.5 37 13.5 37" stroke="#0D21DA" stroke-width="3"/>
<path d="M18 33V15H38V52H18V40" stroke="#0D21DA" stroke-width="3"/>
<path d="M22.375 30.5C23.1751 28.4513 25.1681 27 27.5001 27C30.5376 27 33.0001 29.4624 33.0001 32.5C33.0001 35.5376 30.5376 38 27.5001 38C25.7223 38 24.1415 37.1565 23.1361 35.848" stroke="#0D21DA" stroke-width="3"/>
<path d="M23.5 52.5C23.5 49.4624 21.0376 47 18 47" stroke="#0D21DA" stroke-width="3"/>
<path d="M18 20.5C21.0376 20.5 23.5 18.0376 23.5 15" stroke="#0D21DA" stroke-width="3"/>
<path d="M32 52.5C32 49.4624 34.4624 47 37.5 47" stroke="#0D21DA" stroke-width="3"/>
<path d="M37.5 20.5C34.4624 20.5 32 18.0376 32 15" stroke="#0D21DA" stroke-width="3"/>
</svg>
