<svg width="50" height="51" viewBox="0 0 50 51" fill="none" xmlns="http://www.w3.org/2000/svg">
<path d="M49.2031 24.8984H45.0632L41.4304 14H16.7728L13.14 24.8984H9V43.0625H12.6328V50.4492H23.5312V43.0625H34.6719V50.4492H45.5703V43.0625H49.2031V24.8984ZM19.3913 17.6328H38.8119L41.2338 24.8984H16.9694L19.3913 17.6328ZM19.8984 46.8164H16.2656V43.0625H19.8984V46.8164ZM41.9375 46.8164H38.3047V43.0625H41.9375V46.8164ZM45.5703 39.4297H12.6328V28.5312H45.5703V39.4297Z" fill="#282727"/>
<path d="M16.2656 32.1641H19.8984V35.7969H16.2656V32.1641Z" fill="#0D21DA"/>
<path d="M38.3047 32.1641H41.9375V35.7969H38.3047V32.1641Z" fill="#0D21DA"/>
<path d="M23.5312 32.1641H34.6719V35.7969H23.5312V32.1641Z" fill="#0D21DA"/>
<path d="M2 50V2L49 2" stroke="#282727" stroke-width="3"/>
<rect x="2" y="2" width="46" height="6" fill="white" stroke="#0D21DA" stroke-width="3"/>
</svg>
