<svg width="57" height="54" viewBox="0 0 57 54" fill="none" xmlns="http://www.w3.org/2000/svg">
<path d="M2 23.5323C2 18.5618 6.02944 14.5323 11 14.5323H17.3871V31.6291C17.3871 35.8782 13.9426 39.3227 9.69355 39.3227C5.44452 39.3227 2 35.8782 2 31.6291V23.5323Z" fill="white" stroke="#282727" stroke-width="3"/>
<path d="M39.6128 23.5323C39.6128 18.5618 43.6422 14.5323 48.6128 14.5323H54.9999V31.6291C54.9999 35.8782 51.5554 39.3227 47.3063 39.3227C43.0573 39.3227 39.6128 35.8782 39.6128 31.6291V23.5323Z" fill="white" stroke="#282727" stroke-width="3"/>
<path d="M2.85474 52.1451H54.1451" stroke="#282727" stroke-width="3"/>
<path d="M9.6936 22.2258L9.6936 53" stroke="#282727" stroke-width="3"/>
<path d="M47.3064 22.2258L47.3064 53" stroke="#282727" stroke-width="3"/>
<path d="M17.3872 14.7097C17.3872 7.53002 23.2075 1.70972 30.3872 1.70972H39.613V32.4839C39.613 38.6214 34.6376 43.5968 28.5001 43.5968C22.3626 43.5968 17.3872 38.6214 17.3872 32.4839V14.7097Z" fill="white" stroke="#0D21DA" stroke-width="3"/>
<path d="M28.5 10.6855L28.5 53.0001" stroke="#282727" stroke-width="3"/>
</svg>
