<svg width="40" height="56" viewBox="0 0 40 56" fill="none" xmlns="http://www.w3.org/2000/svg">
<path fill-rule="evenodd" clip-rule="evenodd" d="M38.1851 2H1.54712V33.1425V38.638V51.4615L14.3706 38.638H38.1851V2Z" fill="white"/>
<path d="M1.54712 2V0.5H0.0471191V2H1.54712ZM38.1851 2H39.6851V0.5H38.1851V2ZM1.54712 51.4615H0.0471191V55.0828L2.60778 52.5221L1.54712 51.4615ZM14.3706 38.638V37.138H13.7493L13.31 37.5773L14.3706 38.638ZM38.1851 38.638V40.138H39.6851V38.638H38.1851ZM1.54712 3.5H38.1851V0.5H1.54712V3.5ZM3.04712 33.1425V2H0.0471191V33.1425H3.04712ZM0.0471191 33.1425V38.638H3.04712V33.1425H0.0471191ZM0.0471191 38.638V51.4615H3.04712V38.638H0.0471191ZM2.60778 52.5221L15.4313 39.6986L13.31 37.5773L0.486459 50.4008L2.60778 52.5221ZM38.1851 37.138H14.3706V40.138H38.1851V37.138ZM36.6851 2V38.638H39.6851V2H36.6851Z" fill="#282727"/>
<path d="M20.2038 10.12C21.5104 10.12 22.6211 10.3347 23.5358 10.764C24.4691 11.1747 25.1691 11.7347 25.6358 12.444C26.1024 13.1533 26.3358 13.9373 26.3358 14.796C26.3358 15.5613 26.1958 16.2147 25.9158 16.756C25.6544 17.2973 25.3371 17.736 24.9638 18.072C24.5904 18.408 24.0958 18.8 23.4798 19.248C22.7331 19.752 22.1824 20.2093 21.8278 20.62C21.4731 21.012 21.2958 21.5253 21.2958 22.16V22.86H17.2638V21.992C17.2638 21.1147 17.3944 20.3773 17.6558 19.78C17.9358 19.164 18.2624 18.688 18.6358 18.352C19.0278 17.9973 19.5131 17.6147 20.0918 17.204C20.6518 16.8307 21.0624 16.504 21.3238 16.224C21.5851 15.944 21.7158 15.5987 21.7158 15.188C21.7158 14.684 21.5384 14.292 21.1838 14.012C20.8478 13.732 20.3718 13.592 19.7558 13.592C18.5798 13.592 17.4878 14.1613 16.4798 15.3L13.6518 13.116C15.3504 11.1187 17.5344 10.12 20.2038 10.12ZM19.3358 25.408C20.0264 25.408 20.6144 25.66 21.0998 26.164C21.6038 26.6493 21.8558 27.2373 21.8558 27.928C21.8558 28.6373 21.6038 29.244 21.0998 29.748C20.6144 30.2333 20.0264 30.476 19.3358 30.476C18.6451 30.476 18.0478 30.2333 17.5438 29.748C17.0584 29.244 16.8158 28.6373 16.8158 27.928C16.8158 27.2373 17.0584 26.6493 17.5438 26.164C18.0478 25.66 18.6451 25.408 19.3358 25.408Z" fill="#0D21DA"/>
</svg>
