<svg width="74" height="63" viewBox="0 0 74 63" fill="none" xmlns="http://www.w3.org/2000/svg">
<rect x="54.8809" y="12" width="17.3484" height="49" fill="white" stroke="#282727" stroke-width="3"/>
<rect x="11" y="12" width="17.3484" height="49" fill="white" stroke="#282727" stroke-width="3"/>
<rect x="28" y="2" width="27" height="59" fill="white" stroke="#0D21DA" stroke-width="3"/>
<rect x="38.5532" y="12" width="7.14344" height="1" stroke="#282727" stroke-width="3"/>
<rect x="38.5532" y="34" width="7.14344" height="1" stroke="#0D21DA" stroke-width="3"/>
<rect x="38.5532" y="23" width="7.14344" height="1" stroke="#282727" stroke-width="3"/>
<rect x="17" y="20" width="25" height="43" fill="white"/>
<path d="M9 34L13 31V58H9V34Z" fill="white"/>
<rect x="14" y="59" width="3" height="4" fill="white"/>
<path d="M17.5 34H15L5 41.5H2V54H13L26.5 41C25.5 39.6667 21.8 38.6 19 41C16.2 43.4 13.5 46 13.5 46" stroke="#0D21DA" stroke-width="3"/>
<path d="M18 42V24H38V61H18V49" stroke="#0D21DA" stroke-width="3"/>
<path d="M22.375 39.5C23.1751 37.4513 25.1681 36 27.5001 36C30.5376 36 33.0001 38.4624 33.0001 41.5C33.0001 44.5376 30.5376 47 27.5001 47C25.7223 47 24.1415 46.1565 23.1361 44.848" stroke="#0D21DA" stroke-width="3"/>
<path d="M23.5 61.5C23.5 58.4624 21.0376 56 18 56" stroke="#0D21DA" stroke-width="3"/>
<path d="M18 29.5C21.0376 29.5 23.5 27.0376 23.5 24" stroke="#0D21DA" stroke-width="3"/>
<path d="M32 61.5C32 58.4624 34.4624 56 37.5 56" stroke="#0D21DA" stroke-width="3"/>
<path d="M37.5 29.5C34.4624 29.5 32 27.0376 32 24" stroke="#0D21DA" stroke-width="3"/>
</svg>
