<svg width="20px" height="20px" viewBox="0 0 20 20" fill="none" xmlns="http://www.w3.org/2000/svg">
<path d="M10 18C7.87827 18 5.84344 17.1571 4.34315 15.6569C2.84285 14.1566 2 12.1217 2 10C2 7.87827 2.84285 5.84344 4.34315 4.34315C5.84344 2.84285 7.87827 2 10 2C12.1217 2 14.1566 2.84285 15.6569 4.34315C17.1571 5.84344 18 7.87827 18 10C18 12.1217 17.1571 14.1566 15.6569 15.6569C14.1566 17.1571 12.1217 18 10 18ZM10 0C8.68678 0 7.38642 0.258658 6.17317 0.761205C4.95991 1.26375 3.85752 2.00035 2.92893 2.92893C1.05357 4.8043 0 7.34784 0 10C0 12.6522 1.05357 15.1957 2.92893 17.0711C3.85752 17.9997 4.95991 18.7362 6.17317 19.2388C7.38642 19.7413 8.68678 20 10 20C12.6522 20 15.1957 18.9464 17.0711 17.0711C18.9464 15.1957 20 12.6522 20 10C20 8.68678 19.7413 7.38642 19.2388 6.17317C18.7362 4.95991 17.9997 3.85752 17.0711 2.92893C16.1425 2.00035 15.0401 1.26375 13.8268 0.761205C12.6136 0.258658 11.3132 0 10 0ZM10 10.5C9.60218 10.5 9.22064 10.342 8.93934 10.0607C8.65804 9.77936 8.5 9.39782 8.5 9C8.5 8.60218 8.65804 8.22064 8.93934 7.93934C9.22064 7.65804 9.60218 7.5 10 7.5C10.3978 7.5 10.7794 7.65804 11.0607 7.93934C11.342 8.22064 11.5 8.60218 11.5 9C11.5 9.39782 11.342 9.77936 11.0607 10.0607C10.7794 10.342 10.3978 10.5 10 10.5ZM10 5.2C7.9 5.2 6.2 6.9 6.2 9C6.2 12 10 15.5 10 15.5C10 15.5 13.8 12 13.8 9C13.8 6.9 12.1 5.2 10 5.2Z" fill="#C29329"/>
</svg>
