<svg width="180" height="232" viewBox="0 0 180 232" fill="none" xmlns="http://www.w3.org/2000/svg">
<g filter="url(#filter0_ddd)">
<path d="M69.5 43.5V17L87 23.5L91 38.5L108.5 36L105 53.5L122.5 46.5H129.5L140.5 56L145.5 62.5V80.5L158 115.5L117 141V145.5L135.5 170V175.5L127.5 184L122 199L114 191L93.5 196.5L85 202.5L78.5 196.5L57.5 199L52.5 194L55 172.5L27.5 156.5L22 94H40L47.5 54.5L53 48L69.5 43.5Z" fill="white"/>
<path d="M70.1578 45.9119L72 45.4095V43.5V20.5955L84.9175 25.3934L88.5844 39.1442L89.1563 41.2888L91.3536 40.9749L105.356 38.9746L102.549 53.0097L101.643 57.5352L105.928 55.8212L122.981 49H128.57L138.673 57.7258L143 63.3503V80.5V80.933L143.146 81.3408L154.967 114.442L115.68 138.877L114.5 139.611V141V145.5V146.338L115.005 147.007L133 170.838V174.509L125.679 182.287L125.329 182.659L125.153 183.139L121 194.465L115.768 189.232L114.747 188.211L113.352 188.585L92.8522 194.085L92.4221 194.201L92.0583 194.458L85.2101 199.292L80.1957 194.663L79.3489 193.881L78.2045 194.018L58.4096 196.374L55.123 193.087L57.4833 172.789L57.6724 171.162L56.2572 170.339L29.8768 154.991L24.7297 96.5H40H42.07L42.4561 94.4664L49.8334 55.6127L54.4069 50.2076L70.1578 45.9119Z" stroke="#282727" stroke-opacity="0.1" stroke-width="5"/>
</g>
<path fill-rule="evenodd" clip-rule="evenodd" d="M101.381 107.364C101.381 120.091 85.1905 131 85.1905 131C85.1905 131 69 120.091 69 107.364C69 98.3262 76.2487 91 85.1905 91C94.1322 91 101.381 98.3262 101.381 107.364V107.364Z" stroke="#0D21DA" stroke-width="3" stroke-linecap="round" stroke-linejoin="round"/>
<path fill-rule="evenodd" clip-rule="evenodd" d="M85.1917 112.818C88.1723 112.818 90.5886 110.376 90.5886 107.364C90.5886 104.351 88.1723 101.909 85.1917 101.909C82.2112 101.909 79.7949 104.351 79.7949 107.364C79.7949 110.376 82.2112 112.818 85.1917 112.818Z" stroke="#0D21DA" stroke-width="3" stroke-linecap="round" stroke-linejoin="round"/>
<defs>
<filter id="filter0_ddd" x="0" y="0" width="180" height="231.5" filterUnits="userSpaceOnUse" color-interpolation-filters="sRGB">
<feFlood flood-opacity="0" result="BackgroundImageFix"/>
<feColorMatrix in="SourceAlpha" type="matrix" values="0 0 0 0 0 0 0 0 0 0 0 0 0 0 0 0 0 0 127 0"/>
<feOffset dy="7"/>
<feGaussianBlur stdDeviation="4"/>
<feColorMatrix type="matrix" values="0 0 0 0 0 0 0 0 0 0 0 0 0 0 0 0 0 0 0.1 0"/>
<feBlend mode="normal" in2="BackgroundImageFix" result="effect1_dropShadow"/>
<feColorMatrix in="SourceAlpha" type="matrix" values="0 0 0 0 0 0 0 0 0 0 0 0 0 0 0 0 0 0 127 0"/>
<feOffset dy="5"/>
<feGaussianBlur stdDeviation="11"/>
<feColorMatrix type="matrix" values="0 0 0 0 0 0 0 0 0 0 0 0 0 0 0 0 0 0 0.06 0"/>
<feBlend mode="normal" in2="effect1_dropShadow" result="effect2_dropShadow"/>
<feColorMatrix in="SourceAlpha" type="matrix" values="0 0 0 0 0 0 0 0 0 0 0 0 0 0 0 0 0 0 127 0"/>
<feOffset dy="12"/>
<feGaussianBlur stdDeviation="8.5"/>
<feColorMatrix type="matrix" values="0 0 0 0 0 0 0 0 0 0 0 0 0 0 0 0 0 0 0.07 0"/>
<feBlend mode="normal" in2="effect2_dropShadow" result="effect3_dropShadow"/>
<feBlend mode="normal" in="SourceGraphic" in2="effect3_dropShadow" result="shape"/>
</filter>
</defs>
</svg>
