<svg width="261" height="88" viewBox="0 0 261 88" fill="none" xmlns="http://www.w3.org/2000/svg">
<path fill-rule="evenodd" clip-rule="evenodd" d="M47.7916 31.2087C48.0666 31.3894 48.5253 31.5695 48.9841 31.5695C49.5342 31.5695 49.9929 31.2991 49.9929 30.5774V30.1263C50.268 30.4871 50.3598 30.9382 50.3598 31.2991C50.3598 31.9304 49.9011 32.3815 49.1673 32.3815C48.4335 32.3815 47.7916 31.6599 47.7916 31.2087ZM45.132 35.6283C45.7733 33.7344 46.7827 33.0128 48.3416 33.0128H49.351C51.1855 33.0128 51.7356 32.111 52.5612 31.2991L54.3957 29.495L48.8004 29.4046C46.324 29.4046 45.7733 30.9382 45.132 35.6283ZM33.6668 56.8256C34.1256 56.6449 34.5838 56.6449 34.9507 56.6449C36.2351 56.6449 36.9689 57.2768 38.4365 59.0803C39.8122 57.2768 40.3623 56.6449 41.9217 56.6449C42.2886 56.6449 42.7468 56.6449 43.2051 56.8256C41.5548 55.1119 40.0873 54.8408 38.4365 54.8408C36.7852 54.8408 35.3176 55.1119 33.6668 56.8256ZM26.9714 62.7788C27.0632 58.6297 28.2552 56.1943 32.1074 54.5704L38.4365 52.4958L44.7651 54.5704C48.6172 56.1943 49.8092 58.6297 49.9011 62.7788C49.2591 61.9668 48.5253 61.606 47.4246 61.606C44.7651 61.606 40.5455 66.4762 38.4365 71.1674C36.327 66.4762 32.1074 61.606 29.4478 61.606C28.3471 61.606 27.6133 61.9668 26.9714 62.7788ZM26.5126 31.2991C26.5126 30.9382 26.6045 30.4871 26.8795 30.1263V30.5774C26.8795 31.2991 27.3383 31.5695 27.8883 31.5695C28.3471 31.5695 28.8058 31.3894 29.0809 31.2087C29.0809 31.6599 28.4389 32.3815 27.7052 32.3815C26.9714 32.3815 26.5126 31.9304 26.5126 31.2991ZM22.4773 29.495L24.3112 31.2991C25.1369 32.111 25.6875 33.0128 27.5214 33.0128H28.5308C30.0897 33.0128 31.0985 33.7344 31.741 35.6283C31.0985 30.9382 30.5485 29.4046 28.072 29.4046L22.4773 29.495ZM18.7164 36.0795C18.7164 35.7187 18.7164 35.268 18.9002 34.9067L22.9355 23.7225C23.2111 23.0008 23.7611 22.2792 24.4031 22.0082L35.5932 17.6789C36.4183 17.3181 36.9689 17.6789 37.2439 18.4006L38.4365 21.1967L39.6285 18.4006C39.9035 17.6789 40.4536 17.3181 41.2798 17.6789L52.4694 22.0082C53.1113 22.2792 53.6614 23.0008 53.9369 23.7225L57.9723 34.9067C58.156 35.268 58.156 35.7187 58.156 36.0795C58.156 37.3426 57.3303 38.5148 55.9546 38.8757L52.9281 39.6876C51.2768 40.1382 50.4517 41.311 50.4517 42.664C50.4517 43.2055 50.543 43.8368 50.9093 44.3777L52.2856 46.6329C52.4694 46.9938 52.6525 47.4449 52.6525 47.8955C52.6525 48.3467 52.4694 48.8876 52.1938 49.3388L49.9929 52.6765C49.4429 53.5783 48.5253 54.0294 47.6084 54.0294C47.2415 54.0294 46.9665 54.0294 46.5996 53.8487C44.6732 53.0368 41.6467 51.6838 39.9954 49.5195L40.0873 46.092C42.1968 44.7391 43.8475 43.8368 45.407 43.1151C46.2327 42.7543 46.5996 42.2134 46.5996 41.6719C46.5996 41.1309 46.1408 40.5894 45.407 40.0485C45.0401 41.0406 44.5813 41.311 44.0313 41.311C42.9306 41.311 41.2798 39.5973 38.4365 39.5973C35.5932 39.5973 33.9419 41.311 32.8412 41.311C32.2911 41.311 31.8323 41.0406 31.4654 40.0485C30.7316 40.5894 30.2734 41.1309 30.2734 41.6719C30.2734 42.2134 30.6403 42.7543 31.4654 43.1151C33.0249 43.8368 34.6756 44.7391 36.7852 46.092L36.877 49.5195C35.2263 51.6838 32.1992 53.0368 30.2734 53.8487C29.9065 54.0294 29.6309 54.0294 29.264 54.0294C28.3471 54.0294 27.4301 53.5783 26.8795 52.6765L24.6781 49.3388C24.4031 48.8876 24.2199 48.3467 24.2199 47.8955C24.2199 47.4449 24.4031 46.9938 24.5868 46.6329L25.9625 44.3777C26.3294 43.8368 26.4213 43.2055 26.4213 42.664C26.4213 41.311 25.5956 40.1382 23.9449 39.6876L20.9178 38.8757C19.5421 38.5148 18.7164 37.3426 18.7164 36.0795ZM0.0057498 43.2055C0.0057498 44.1072 -0.0861116 45.0095 0.464515 48.2563C1.47334 44.9192 2.57404 43.3856 5.05047 40.7701C3.03281 44.8289 2.84908 47.1739 2.84908 49.79C2.84908 58.9905 7.89378 67.7399 15.5062 74.3244C13.9473 71.4373 13.8554 69.5434 13.8554 64.2221C16.24 73.963 21.1929 78.3832 26.1457 81.63C25.5038 79.4656 25.5038 78.2928 25.5956 76.9399C30.1816 83.7051 35.3176 85.058 38.4365 87.8542C41.5548 85.058 46.6909 83.7051 51.2768 76.9399C51.3687 78.2928 51.3687 79.4656 50.7267 81.63C55.6796 78.3832 60.6324 73.963 63.017 64.2221C63.017 69.5434 62.9251 71.4373 61.3657 74.3244C68.9787 67.7399 74.0234 58.9905 74.0234 49.79C74.0234 47.1739 73.8402 44.8289 71.8214 40.7701C74.2984 43.3856 75.3991 44.9192 76.4079 48.2563C76.9585 45.0095 76.8667 44.1072 76.8667 43.2055C76.8667 35.1777 72.4644 28.3222 69.1624 26.1578C71.3638 26.6084 74.1152 29.495 75.4909 30.4871C72.2807 19.7535 66.5022 13.981 56.7803 11.1842C56.7803 9.65116 57.1472 8.47837 57.881 6.94531C57.3303 7.03565 56.7803 7.03565 56.2291 7.03565C51.9193 7.03565 47.9753 4.78041 44.4895 1.26258V5.59238C42.4718 3.96843 40.9129 2.97633 38.4365 0C35.9601 2.97633 34.4006 3.96843 32.383 5.59238V1.26258C28.8977 4.78041 24.9537 7.03565 20.6428 7.03565C20.0922 7.03565 19.5421 7.03565 18.9915 6.94531C19.7253 8.47837 20.0922 9.65116 20.0922 11.1842C10.3702 13.981 4.5917 19.7535 1.38148 30.4871C2.75721 29.495 5.50923 26.6084 7.71006 26.1578C4.40853 28.3222 0.0057498 35.1777 0.0057498 43.2055Z" fill="#C29329"/>
<path fill-rule="evenodd" clip-rule="evenodd" d="M47.7914 31.2085C48.0665 31.3891 48.5252 31.5693 48.984 31.5693C49.534 31.5693 49.9928 31.2988 49.9928 30.5772V30.126C50.2678 30.4868 50.3597 30.938 50.3597 31.2988C50.3597 31.9301 49.901 32.3813 49.1672 32.3813C48.4334 32.3813 47.7914 31.6596 47.7914 31.2085ZM45.1318 35.6281C45.7732 33.7342 46.7826 33.0125 48.3415 33.0125H49.3509C51.1854 33.0125 51.7354 32.1108 52.5611 31.2988L54.3956 29.4947L48.8003 29.4044C46.3238 29.4044 45.7732 30.938 45.1318 35.6281ZM33.6667 56.8254C34.1255 56.6447 34.5837 56.6447 34.9506 56.6447C36.235 56.6447 36.9688 57.2765 38.4364 59.0801C39.8121 57.2765 40.3622 56.6447 41.9216 56.6447C42.2885 56.6447 42.7467 56.6447 43.2049 56.8254C41.5547 55.1116 40.0871 54.8406 38.4364 54.8406C36.7851 54.8406 35.3175 55.1116 33.6667 56.8254ZM26.9712 62.7786C27.0631 58.6294 28.2551 56.1941 32.1072 54.5701L38.4364 52.4956L44.7649 54.5701C48.6171 56.1941 49.8091 58.6294 49.901 62.7786C49.259 61.9666 48.5252 61.6058 47.4245 61.6058C44.7649 61.6058 40.5453 66.476 38.4364 71.1671C36.3269 66.476 32.1072 61.6058 29.4477 61.6058C28.347 61.6058 27.6132 61.9666 26.9712 62.7786ZM26.5125 31.2988C26.5125 30.938 26.6043 30.4868 26.8794 30.126V30.5772C26.8794 31.2988 27.3381 31.5693 27.8882 31.5693C28.347 31.5693 28.8057 31.3891 29.0807 31.2085C29.0807 31.6596 28.4388 32.3813 27.705 32.3813C26.9712 32.3813 26.5125 31.9301 26.5125 31.2988ZM22.4772 29.4947L24.3111 31.2988C25.1367 32.1108 25.6874 33.0125 27.5213 33.0125H28.5307C30.0896 33.0125 31.0984 33.7342 31.7409 35.6281C31.0984 30.938 30.5483 29.4044 28.0719 29.4044L22.4772 29.4947ZM18.7163 36.0792C18.7163 35.7184 18.7163 35.2678 18.9 34.9064L22.9354 23.7222C23.211 23.0006 23.761 22.2789 24.4029 22.0079L35.593 17.6787C36.4181 17.3178 36.9688 17.6787 37.2438 18.4003L38.4364 21.1965L39.6284 18.4003C39.9034 17.6787 40.4535 17.3178 41.2797 17.6787L52.4692 22.0079C53.1112 22.2789 53.6612 23.0006 53.9368 23.7222L57.9721 34.9064C58.1559 35.2678 58.1559 35.7184 58.1559 36.0792C58.1559 37.3423 57.3302 38.5146 55.9545 38.8754L52.928 39.6874C51.2767 40.138 50.4516 41.3108 50.4516 42.6637C50.4516 43.2052 50.5429 43.8365 50.9092 44.3775L52.2855 46.6327C52.4692 46.9935 52.6524 47.4447 52.6524 47.8953C52.6524 48.3464 52.4692 48.8874 52.1936 49.3385L49.9928 52.6762C49.4427 53.578 48.5252 54.0292 47.6083 54.0292C47.2414 54.0292 46.9663 54.0292 46.5994 53.8485C44.6731 53.0365 41.6466 51.6836 39.9953 49.5192L40.0871 46.0917C42.1967 44.7388 43.8474 43.8365 45.4069 43.1149C46.2325 42.7541 46.5994 42.2131 46.5994 41.6716C46.5994 41.1307 46.1407 40.5891 45.4069 40.0482C45.04 41.0403 44.5812 41.3108 44.0311 41.3108C42.9304 41.3108 41.2797 39.597 38.4364 39.597C35.5931 39.597 33.9417 41.3108 32.841 41.3108C32.291 41.3108 31.8322 41.0403 31.4653 40.0482C30.7315 40.5891 30.2733 41.1307 30.2733 41.6716C30.2733 42.2131 30.6402 42.7541 31.4653 43.1149C33.0248 43.8365 34.6755 44.7388 36.785 46.0917L36.8769 49.5192C35.2262 51.6836 32.1991 53.0365 30.2733 53.8485C29.9064 54.0292 29.6308 54.0292 29.2639 54.0292C28.347 54.0292 27.43 53.578 26.8794 52.6762L24.678 49.3385C24.4029 48.8874 24.2198 48.3464 24.2198 47.8953C24.2198 47.4447 24.4029 46.9935 24.5867 46.6327L25.9624 44.3775C26.3293 43.8365 26.4212 43.2052 26.4212 42.6637C26.4212 41.3108 25.5955 40.138 23.9447 39.6874L20.9177 38.8754C19.542 38.5146 18.7163 37.3423 18.7163 36.0792Z" fill="white"/>
<path fill-rule="evenodd" clip-rule="evenodd" d="M157.378 47.1917C157.036 47.0615 156.76 46.83 156.557 46.5032C156.466 46.3601 156.408 46.0834 156.385 45.6813C156.361 45.2727 156.349 44.8176 156.349 44.3289C156.349 43.7342 156.344 43.1716 156.337 42.6559C156.328 42.1622 156.324 41.6681 156.324 41.1877V32.9031C156.324 32.6329 156.333 32.3657 156.348 32.1086C156.364 31.8496 156.388 31.6131 156.42 31.4042C156.451 31.2012 156.498 31.0411 156.56 30.9278C156.731 30.6022 156.999 30.3497 157.358 30.1777C157.721 30.0039 158.099 29.8903 158.48 29.8405L158.525 29.8344V29.4795H151.142V29.8387L151.192 29.8409C151.555 29.8574 151.926 29.9206 152.292 30.0287C152.65 30.1348 152.974 30.4132 153.254 30.8539C153.378 31.0649 153.453 31.3422 153.476 31.678C153.499 32.0083 153.52 32.3448 153.537 32.6769C153.553 33.2468 153.561 33.7351 153.561 34.17V38.1948H144.112V35.6897C144.112 35.041 144.115 34.3806 144.124 33.7271C144.132 33.0333 144.144 32.3902 144.16 31.8161C144.175 31.4385 144.254 31.1233 144.394 30.8788C144.535 30.6335 144.708 30.4392 144.91 30.3007C145.114 30.1611 145.345 30.0569 145.596 29.9916C145.851 29.9249 146.093 29.874 146.316 29.8405L146.361 29.8336V29.4795H139.051V29.8351L139.097 29.8405C139.509 29.8903 139.883 29.9786 140.209 30.1034C140.529 30.2267 140.802 30.4298 141.022 30.7082C141.113 30.82 141.183 30.979 141.229 31.1803C141.276 31.3909 141.313 31.6268 141.336 31.8821C141.36 32.1421 141.372 32.4259 141.372 32.726V40.047C141.372 40.5411 141.368 41.0395 141.36 41.5285C141.352 42.01 141.344 42.4529 141.336 42.8582C141.328 43.2538 141.324 43.5781 141.324 43.8219C141.324 44.0862 141.316 44.3708 141.3 44.6679C141.283 44.9705 141.263 45.2388 141.24 45.4891C141.216 45.7383 141.183 45.9619 141.144 46.1538C141.105 46.3399 141.055 46.4733 140.998 46.5487C140.81 46.778 140.532 46.9731 140.171 47.1289C139.806 47.2873 139.42 47.4012 139.021 47.4683L138.978 47.4752V47.8282H146.216V47.4723L146.169 47.4676C145.836 47.434 145.492 47.3414 145.143 47.1924C144.8 47.0449 144.53 46.8296 144.344 46.5523C144.221 46.3759 144.151 46.0622 144.135 45.6189C144.12 45.1692 144.112 44.6924 144.112 44.2023V38.8093H153.561V42.7583C153.561 43.3379 153.552 43.9171 153.537 44.4808C153.537 44.6777 153.532 44.8901 153.525 45.1119C153.516 45.3283 153.504 45.5407 153.488 45.743C153.473 45.9421 153.453 46.1195 153.428 46.271C153.4 46.4495 153.371 46.5234 153.351 46.5555C153.228 46.764 152.968 46.9573 152.577 47.1293C152.181 47.3035 151.682 47.4171 151.093 47.4676L151.046 47.4716V47.8282H158.573V47.473L158.527 47.4679C158.112 47.4171 157.726 47.3241 157.378 47.1917Z" fill="white"/>
<path fill-rule="evenodd" clip-rule="evenodd" d="M121.164 29.8333V29.4795H115.474V29.8351L115.524 29.8394C115.723 29.8555 115.951 29.8936 116.201 29.9514C116.45 30.0096 116.685 30.0933 116.899 30.1996C117.113 30.3055 117.295 30.4381 117.442 30.5918C117.584 30.7408 117.656 30.9362 117.656 31.1729C117.656 31.3385 117.639 31.5999 117.606 31.9501C117.572 32.2988 117.436 32.8638 117.202 33.6299C117.011 34.2487 116.802 34.9063 116.58 35.5847L115.895 37.6789C115.671 38.3642 115.441 39.0556 115.211 39.734C114.989 40.3884 114.775 41.0036 114.577 41.5628C114.387 42.0969 114.224 42.5638 114.094 42.9513C114.004 43.2207 113.933 43.425 113.881 43.5619C113.762 43.239 113.588 42.766 113.36 42.1421C113.1 41.4371 112.806 40.6222 112.484 39.7207C112.16 38.8142 111.819 37.8679 111.469 36.9075C111.112 35.9248 110.788 35.0126 110.506 34.1955C110.223 33.3792 109.984 32.6666 109.796 32.0776C109.567 31.3665 109.519 31.1381 109.519 31.072C109.519 30.8346 109.616 30.6424 109.816 30.4837C110.023 30.3195 110.256 30.1906 110.51 30.1012C110.768 30.0107 111.029 29.9478 111.286 29.9144C111.544 29.8814 111.729 29.8559 111.833 29.8386L111.879 29.8311V29.4795H103.83V29.8624L103.882 29.8645C104.279 29.881 104.624 29.9353 104.907 30.0261C105.187 30.1163 105.425 30.2323 105.615 30.3713C105.804 30.5106 105.953 30.655 106.06 30.8008C106.167 30.9491 106.255 31.0914 106.321 31.2221C106.557 31.7091 106.779 32.2126 106.979 32.719C107.181 33.2301 107.409 33.8224 107.657 34.48C107.289 35.6285 106.915 36.7466 106.547 37.8036C106.171 38.8825 105.83 39.8504 105.532 40.6797C105.228 41.5287 104.974 42.2355 104.772 42.7987C104.619 43.2246 104.509 43.5277 104.442 43.708C104.258 43.2142 104.028 42.6115 103.757 41.9144C103.452 41.1326 103.127 40.2914 102.78 39.3917C102.432 38.4895 102.083 37.5687 101.74 36.6546C101.394 35.7302 101.077 34.8761 100.789 34.0939C100.505 33.3221 100.271 32.6522 100.092 32.1027C99.9172 31.564 99.8282 31.2174 99.8282 31.072C99.8282 30.8012 99.9042 30.585 100.054 30.4284C100.209 30.2668 100.394 30.1436 100.605 30.0631C100.819 29.9812 101.029 29.9227 101.229 29.8889C101.428 29.8559 101.57 29.8394 101.651 29.8394H101.706V29.4795H94.4434V29.8624L94.4951 29.8645C94.8582 29.881 95.1587 29.9432 95.388 30.0491C95.6194 30.1558 95.8201 30.2808 95.9843 30.4198C96.1492 30.5591 96.278 30.7035 96.3666 30.8482C96.4588 30.9983 96.5304 31.1244 96.58 31.2228C96.6754 31.4125 96.7691 31.6068 96.8584 31.8011C96.943 31.9871 97.0237 32.181 97.0978 32.3779C97.1741 32.5797 97.2584 32.7988 97.3517 33.0347C97.4446 33.27 97.5502 33.5476 97.6685 33.8669C98.0746 34.9264 98.4804 35.9906 98.8862 37.058L100.142 40.3632C100.463 41.2087 100.793 42.0796 101.133 42.9757L101.487 43.9081C101.95 45.1328 102.449 46.4397 102.971 47.7938L102.984 47.8282H103.361L104.493 45.3203C104.781 44.5298 105.077 43.7102 105.381 42.8601C105.687 42.0071 105.994 41.1372 106.294 40.2735C106.597 39.4032 106.905 38.5337 107.208 37.6876C107.48 36.928 107.753 36.1569 108.021 35.3937C108.354 36.2804 108.686 37.1955 109.008 38.1164C109.346 39.0843 109.697 40.0806 110.061 41.1067C110.424 42.1324 110.805 43.2009 111.203 44.3111C111.594 45.4036 112.025 46.5748 112.484 47.7934L112.497 47.8282H112.824L113.905 45.3695C114.221 44.4263 114.571 43.4035 114.945 42.3296C115.317 41.2618 115.685 40.1977 116.049 39.1378C116.402 38.1067 116.765 37.0669 117.127 36.048C117.479 35.0575 117.794 34.1359 118.066 33.3102C118.233 32.8268 118.395 32.4163 118.546 32.0912C118.696 31.7666 118.84 31.4972 118.973 31.2907C119.106 31.0845 119.224 30.9208 119.324 30.8044C119.425 30.6877 119.501 30.604 119.554 30.5494C119.587 30.507 119.701 30.4093 120.06 30.1845C120.348 30.0046 120.703 29.8882 121.116 29.839L121.164 29.8333Z" fill="white"/>
<path fill-rule="evenodd" clip-rule="evenodd" d="M211.122 26.7275C211.366 26.7275 211.578 26.6368 211.751 26.4583H211.751C211.924 26.2803 212.012 26.0619 212.012 25.8101C212.012 25.5581 211.924 25.3402 211.751 25.162C211.578 24.9832 211.366 24.8926 211.122 24.8926C210.877 24.8926 210.666 24.9832 210.492 25.162C210.319 25.3402 210.231 25.5581 210.231 25.8101C210.231 26.0622 210.319 26.2803 210.492 26.4583C210.666 26.6368 210.877 26.7275 211.122 26.7275Z" fill="white"/>
<path fill-rule="evenodd" clip-rule="evenodd" d="M206.669 26.7275C206.913 26.7275 207.125 26.6368 207.299 26.4583C207.472 26.2801 207.56 26.0617 207.56 25.8101C207.56 25.5586 207.472 25.3405 207.299 25.162C207.125 24.9832 206.913 24.8926 206.669 24.8926C206.425 24.8926 206.213 24.9832 206.04 25.162C205.866 25.3408 205.778 25.5586 205.778 25.8101C205.778 26.0617 205.866 26.2798 206.04 26.4583C206.213 26.6368 206.425 26.7275 206.669 26.7275Z" fill="white"/>
<path fill-rule="evenodd" clip-rule="evenodd" d="M135.796 38.6168C135.796 39.6496 135.667 40.6972 135.413 41.7311C135.159 42.7632 134.773 43.7059 134.266 44.5337C133.76 45.3591 133.118 46.0428 132.36 46.5658C131.603 47.0866 130.7 47.3509 129.674 47.3509C128.648 47.3509 127.735 47.111 126.962 46.6385C126.187 46.1651 125.534 45.5277 125.019 44.7433C124.503 43.9564 124.11 43.0349 123.848 42.0042C123.586 40.9714 123.453 39.8817 123.453 38.7655C123.453 37.6991 123.574 36.63 123.812 35.5876C124.049 34.547 124.422 33.6047 124.921 32.7864C125.419 31.9695 126.065 31.2942 126.839 30.7798C127.612 30.2667 128.541 30.0067 129.6 30.0067C130.641 30.0067 131.558 30.2667 132.323 30.7794C133.09 31.2942 133.739 31.974 134.254 32.7991C134.769 33.6262 135.159 34.5608 135.413 35.5763C135.667 36.5939 135.796 37.6172 135.796 38.6168ZM136.557 32.2387C135.778 31.4013 134.817 30.725 133.701 30.2282C132.584 29.7314 131.304 29.4795 129.897 29.4795C128.608 29.4795 127.363 29.6933 126.197 30.1151C125.031 30.5374 123.998 31.1504 123.129 31.9376C122.26 32.7249 121.559 33.6997 121.046 34.8343C120.533 35.9692 120.272 37.2667 120.272 38.691C120.272 40.0329 120.52 41.2799 121.008 42.3978C121.496 43.5158 122.172 44.4903 123.017 45.2945C123.862 46.099 124.86 46.729 125.985 47.1671C127.109 47.6056 128.317 47.8282 129.575 47.8282C130.849 47.8282 132.069 47.6017 133.203 47.1548C134.337 46.7067 135.344 46.0601 136.195 45.2326C137.048 44.403 137.732 43.4119 138.228 42.2869C138.725 41.1604 138.977 39.9174 138.977 38.5917C138.977 37.3999 138.767 36.2409 138.353 35.1477C137.94 34.0555 137.335 33.0764 136.557 32.2387Z" fill="white"/>
<path fill-rule="evenodd" clip-rule="evenodd" d="M174.791 29.8322L174.835 29.839C175.591 29.955 176.176 30.1597 176.576 30.4481C176.972 30.7344 177.252 31.1119 177.408 31.5705C177.533 31.9167 177.605 32.3987 177.62 33.0036C177.636 33.6235 177.645 34.2721 177.645 34.9323V43.3653L166.37 29.4978L166.354 29.4795H161.412V29.8329L161.457 29.839C161.712 29.8728 161.98 29.9277 162.254 30.0014C162.527 30.0753 162.783 30.2 163.017 30.3724C163.249 30.543 163.453 30.7832 163.625 31.0871C163.797 31.3909 163.907 31.7864 163.954 32.2601C163.97 32.7468 163.978 33.162 163.978 33.4942V36.5729C163.978 37.691 163.97 38.7559 163.954 39.7378C163.938 40.719 163.914 41.5803 163.882 42.2982C163.85 43.2471 163.802 44.0779 163.738 44.7671C163.676 45.4448 163.533 45.9628 163.314 46.3079C163.097 46.6667 162.799 46.9271 162.428 47.0815C162.051 47.2389 161.668 47.3437 161.29 47.3936L161.245 47.3997V47.7528H167.245V47.3994L167.2 47.3936C166.553 47.3107 166.038 47.172 165.67 46.9824C165.307 46.7956 165.036 46.5112 164.866 46.1362C164.71 45.8072 164.611 45.2969 164.572 44.6181C164.532 43.9367 164.512 43.1566 164.512 42.3V31.7936C165.563 33.0312 166.573 34.243 167.515 35.3966C168.49 36.5908 169.485 37.8152 170.5 39.0673C171.514 40.3204 172.582 41.6367 173.701 43.0159C174.811 44.3846 176.061 45.9125 177.42 47.5603C177.591 47.7406 177.744 47.8282 177.888 47.8282C177.981 47.8282 178.054 47.802 178.103 47.7496C178.153 47.6975 178.178 47.6296 178.178 47.5477V45.9082C178.178 45.3055 178.174 44.6895 178.166 44.0782C178.159 43.4842 178.154 42.8772 178.154 42.2749V40.6598C178.154 39.5295 178.166 38.4646 178.19 37.4949C178.215 36.4856 178.243 35.6481 178.274 34.9348C178.306 34.1619 178.338 33.4338 178.37 32.7529C178.402 32.0816 178.473 31.6172 178.582 31.3701C178.768 30.8964 179.04 30.5397 179.389 30.3102C179.74 30.0804 180.213 29.922 180.796 29.839L180.84 29.8325V29.4795H174.791V29.8322Z" fill="white"/>
<path fill-rule="evenodd" clip-rule="evenodd" d="M238.389 29.8351L238.438 29.8394C238.638 29.8559 238.865 29.8936 239.116 29.9514C239.364 30.0096 239.599 30.0929 239.814 30.1996C240.027 30.3059 240.21 30.4377 240.357 30.5918C240.501 30.7426 240.571 30.933 240.571 31.1733C240.571 31.3381 240.554 31.5996 240.52 31.9501C240.487 32.2992 240.351 32.8645 240.116 33.6299C239.93 34.2368 239.721 34.8944 239.495 35.5847L238.81 37.6789C238.583 38.3732 238.352 39.0649 238.126 39.734C237.9 40.3992 237.687 41.0144 237.492 41.5628C237.298 42.1051 237.136 42.5724 237.009 42.9513C236.917 43.225 236.847 43.4268 236.796 43.5619C236.677 43.239 236.503 42.766 236.274 42.1428C236 41.3969 235.706 40.5823 235.399 39.7207C235.077 38.821 234.739 37.8833 234.384 36.9075C234.028 35.9313 233.704 35.0187 233.421 34.1959C233.134 33.3677 232.895 32.6551 232.71 32.0776C232.482 31.3672 232.434 31.1384 232.434 31.072C232.434 30.8346 232.531 30.6421 232.731 30.4837C232.938 30.3195 233.171 30.1906 233.425 30.1012C233.683 30.0107 233.943 29.9478 234.2 29.9144C234.459 29.8817 234.643 29.8562 234.748 29.8386L234.794 29.8311V29.4795H226.745V29.8624L226.796 29.8645C227.194 29.881 227.539 29.9353 227.822 30.0261C228.102 30.1163 228.34 30.2323 228.529 30.3713C228.719 30.5106 228.868 30.655 228.975 30.8008C229.081 30.9484 229.17 31.0903 229.236 31.2217C229.473 31.7109 229.694 32.2144 229.894 32.719C230.091 33.2179 230.32 33.8101 230.572 34.48C230.202 35.6328 229.828 36.7509 229.462 37.8036C229.077 38.9098 228.745 39.8504 228.448 40.6797C228.143 41.5291 227.889 42.2355 227.686 42.7987C227.536 43.2146 227.425 43.5234 227.357 43.7084C227.171 43.2095 226.941 42.6069 226.672 41.9144C226.367 41.1326 226.041 40.2914 225.694 39.3917C225.346 38.4895 224.997 37.5687 224.655 36.6546C224.308 35.7302 223.991 34.8761 223.703 34.0939C223.415 33.3102 223.181 32.6404 223.007 32.1027C222.831 31.5644 222.743 31.2181 222.743 31.072C222.743 30.8012 222.819 30.585 222.969 30.4284C223.123 30.2664 223.309 30.1436 223.52 30.0631C223.734 29.9812 223.943 29.9227 224.143 29.8889C224.342 29.8562 224.485 29.8394 224.566 29.8394H224.62V29.4795H217.358V29.8624L217.409 29.8645C217.773 29.881 218.073 29.9432 218.302 30.0491C218.534 30.1565 218.735 30.2808 218.899 30.4198C219.063 30.5591 219.192 30.7031 219.281 30.8482C219.373 30.9987 219.445 31.1251 219.494 31.2228C219.589 31.4099 219.68 31.5989 219.772 31.8011C219.859 31.9925 219.94 32.1864 220.012 32.3779C220.088 32.5804 220.173 32.7988 220.266 33.0347C220.359 33.27 220.465 33.5476 220.584 33.8673C220.989 34.9264 221.395 35.9906 221.801 37.058L223.056 40.3632C223.377 41.2087 223.707 42.0796 224.047 42.9757L224.401 43.9084C224.854 45.1033 225.353 46.4103 225.885 47.7938L225.898 47.8282H226.276L227.408 45.3203C227.695 44.5298 227.991 43.7102 228.295 42.8601C228.601 42.0075 228.909 41.1372 229.209 40.2735C229.529 39.3544 229.828 38.5082 230.122 37.6876C230.401 36.91 230.674 36.1393 230.935 35.394C231.27 36.2862 231.602 37.2016 231.922 38.1167C232.261 39.0843 232.611 40.0806 232.976 41.1067C233.339 42.1324 233.719 43.2009 234.117 44.3111C234.509 45.4065 234.94 46.578 235.399 47.7934L235.412 47.8282H235.739L236.82 45.3695C237.137 44.4217 237.488 43.3992 237.86 42.3296C238.232 41.2618 238.6 40.198 238.964 39.1378C239.314 38.1175 239.677 37.0777 240.042 36.048C240.39 35.0661 240.706 34.1449 240.98 33.3102C241.149 32.825 241.31 32.4152 241.46 32.0912C241.615 31.759 241.755 31.4972 241.888 31.2907C242.02 31.0853 242.138 30.9218 242.239 30.8044C242.342 30.6844 242.416 30.6033 242.47 30.5494C242.502 30.507 242.615 30.4097 242.975 30.1845C243.263 30.0046 243.618 29.8882 244.031 29.839L244.078 29.8333V29.4795H238.389V29.8351Z" fill="white"/>
<path fill-rule="evenodd" clip-rule="evenodd" d="M260.629 42.7966L260.608 42.8326C260.188 43.5532 259.776 44.1778 259.381 44.6888C258.989 45.1973 258.577 45.6334 258.158 45.9853C257.741 46.3355 257.301 46.6093 256.852 46.8004C256.401 46.9919 255.902 47.1228 255.368 47.1892C254.883 47.2562 254.411 47.2984 253.965 47.315C253.528 47.3316 253.158 47.3406 252.863 47.3406C252.191 47.3406 251.562 47.2894 250.994 47.1895C250.437 47.0911 250.082 46.9288 249.938 46.7066C249.792 46.4794 249.696 46.1249 249.655 45.6543C249.613 45.1764 249.583 44.6618 249.566 44.1266C249.566 43.9582 249.562 43.7486 249.554 43.5038C249.545 43.2611 249.541 43.0018 249.541 42.7331V39.6932C249.541 39.2709 249.556 38.9399 249.585 38.708H250.705C250.866 38.708 251.035 38.7123 251.21 38.7206C251.379 38.7296 251.59 38.7422 251.844 38.7588C252.345 38.7923 252.788 38.8847 253.16 39.0333C253.533 39.1826 253.857 39.3759 254.12 39.6052C254.419 39.8876 254.709 40.3168 254.984 40.8815C255.259 41.4478 255.467 42.0071 255.602 42.5434L255.612 42.5841H256.013V34.4957H255.611L255.601 34.5386C255.502 35.0038 255.387 35.4322 255.261 35.8124C255.136 36.1853 254.968 36.5171 254.76 36.798C254.555 37.0779 254.282 37.3198 253.951 37.5186C253.618 37.718 253.196 37.8778 252.698 37.9939C252.479 38.0437 252.205 38.0819 251.881 38.1064C251.53 38.1331 251.207 38.1536 250.893 38.1695C250.572 38.1865 250.278 38.1948 250.02 38.1948H249.566V37.9701C249.566 37.8183 249.562 37.6004 249.554 37.3224C249.545 37.0458 249.541 36.6837 249.541 36.2473V34.6259C249.541 33.5176 249.554 32.5291 249.579 31.6888C249.604 30.8741 249.631 30.3407 249.663 30.0612C249.833 30.0302 250.095 30.0031 250.442 29.9804C250.82 29.9555 251.191 29.9422 251.543 29.9422C252.651 29.9422 253.605 29.9934 254.379 30.0937C255.148 30.1943 255.68 30.3119 255.961 30.4435C257.15 31.0288 258.441 32.1829 259.8 33.8746L259.828 33.9085L260.166 33.7398L258.407 29.4795H244.306V29.8336L244.352 29.8405C244.804 29.9076 245.178 29.9797 245.463 30.0547C245.739 30.1279 246.004 30.2974 246.251 30.5596C246.344 30.6534 246.42 30.8113 246.477 31.0295C246.536 31.2531 246.578 31.5103 246.603 31.793C246.627 32.0725 246.644 32.378 246.654 32.7018C246.662 33.021 246.666 33.3362 246.666 33.6381V40.0474C246.666 40.5512 246.662 41.05 246.654 41.5285L246.647 41.8665C246.641 42.2192 246.634 42.5495 246.628 42.8586C246.619 43.2513 246.616 43.5752 246.616 43.8222C246.616 44.0844 246.607 44.3607 246.59 44.6427C246.573 44.9171 246.544 45.1833 246.502 45.4347C246.459 45.6885 246.413 45.9129 246.364 46.1015C246.315 46.2872 246.25 46.4289 246.172 46.5227C245.941 46.7863 245.644 46.9948 245.29 47.1423C244.932 47.292 244.539 47.402 244.123 47.4683L244.077 47.4755V47.8282H259.707L260.986 42.9495L261 42.8975L260.629 42.7966Z" fill="white"/>
<path fill-rule="evenodd" clip-rule="evenodd" d="M197.405 42.4594C197.209 42.9596 197.001 43.4486 196.788 43.9131C196.575 44.3726 196.311 44.8035 196.002 45.1945C195.693 45.5858 195.318 45.9359 194.887 46.2353C194.457 46.5342 193.908 46.7791 193.255 46.9627C192.979 47.0456 192.658 47.1131 192.297 47.1636C191.937 47.2141 191.58 47.2523 191.236 47.2772C190.89 47.3028 190.57 47.3197 190.285 47.3277C190.014 47.3356 189.796 47.3403 189.656 47.3403C189.327 47.3403 188.996 47.3194 188.672 47.2775C188.341 47.2353 188.034 47.1845 187.76 47.1261C187.485 47.0684 187.247 46.997 187.052 46.9136C186.863 46.8336 186.737 46.7535 186.68 46.6814C186.537 46.4542 186.452 46.0964 186.428 45.6182C186.402 45.1148 186.382 44.5954 186.366 44.0754C186.366 43.5038 186.362 42.979 186.354 42.5167C186.346 42.0677 186.341 41.6115 186.341 41.1618V36.5513C186.341 36.0342 186.346 35.5397 186.354 35.0831L186.378 33.6391C186.387 33.1414 186.399 32.5962 186.416 32.0188C186.432 31.5752 186.532 31.2138 186.716 30.9451C186.899 30.675 187.122 30.463 187.379 30.3151C187.637 30.1669 187.915 30.058 188.207 29.992C188.5 29.9252 188.757 29.8744 188.971 29.8405L189.015 29.8329V29.4795H181.012V29.8351L181.059 29.8405C181.481 29.8903 181.889 29.992 182.272 30.1416C182.648 30.2895 182.954 30.5055 183.179 30.7847C183.272 30.8961 183.343 31.0508 183.39 31.2438C183.439 31.4436 183.476 31.6754 183.501 31.9333C183.525 32.193 183.537 32.4764 183.537 32.7761V40.0474C183.537 40.5512 183.533 41.05 183.525 41.5285C183.517 42.01 183.509 42.4529 183.501 42.8582C183.492 43.2463 183.488 43.5701 183.488 43.8219C183.488 44.0873 183.475 44.3625 183.451 44.6409C183.427 44.915 183.398 45.1826 183.365 45.4365C183.332 45.6853 183.287 45.9082 183.23 46.0993C183.175 46.285 183.107 46.4282 183.031 46.5227C182.806 46.7849 182.492 46.993 182.099 47.1408C181.699 47.2912 181.29 47.4012 180.884 47.4683L180.839 47.4752V47.8282H196.83L197.754 42.565L197.762 42.5174L197.423 42.4136L197.405 42.4594Z" fill="white"/>
<path fill-rule="evenodd" clip-rule="evenodd" d="M215.067 38.6168C215.067 39.6489 214.939 40.6965 214.684 41.7311C214.429 42.7649 214.043 43.7076 213.537 44.5337C213.031 45.3591 212.389 46.0432 211.63 46.5658C210.875 47.0866 209.971 47.3509 208.945 47.3509C207.919 47.3509 207.006 47.111 206.233 46.6385C205.458 46.1654 204.804 45.5277 204.29 44.7433C203.774 43.956 203.38 43.0345 203.119 42.0042C202.857 40.971 202.724 39.8814 202.724 38.7655C202.724 37.6999 202.845 36.6307 203.082 35.5876C203.32 34.547 203.693 33.6043 204.192 32.7864C204.69 31.9698 205.335 31.2942 206.11 30.7798C206.883 30.2667 207.812 30.0067 208.871 30.0067C209.912 30.0067 210.829 30.2667 211.594 30.7794C212.361 31.2942 213.011 31.9737 213.525 32.7991C214.04 33.6245 214.429 34.5591 214.684 35.5763C214.939 36.5946 215.067 37.6179 215.067 38.6168ZM215.828 32.2387C215.048 31.4009 214.088 30.7247 212.971 30.2282C211.855 29.7314 210.575 29.4795 209.168 29.4795C207.878 29.4795 206.633 29.6933 205.468 30.1151C204.302 30.537 203.269 31.1501 202.4 31.9376C201.53 32.7256 200.829 33.7001 200.316 34.8343C199.803 35.9685 199.543 37.2663 199.543 38.691C199.543 40.0333 199.791 41.2802 200.279 42.3978C200.767 43.5154 201.442 44.4899 202.287 45.2945C203.132 46.0986 204.131 46.7286 205.255 47.1671C206.381 47.6056 207.589 47.8282 208.846 47.8282C210.12 47.8282 211.34 47.6017 212.473 47.1548C213.608 46.7067 214.615 46.0601 215.467 45.2326C216.32 44.403 217.004 43.4119 217.499 42.2869C217.996 41.1601 218.248 39.917 218.248 38.5917C218.248 37.4009 218.038 36.242 217.624 35.1477C217.21 34.0541 216.606 33.0754 215.828 32.2387Z" fill="white"/>
<path d="M107.622 56.2979H108.745V64.3579H107.622V56.2979Z" fill="white"/>
<path d="M120.633 58.1978C121.382 58.1978 121.973 58.4204 122.407 58.8656C122.849 59.3108 123.07 59.971 123.07 60.8461V64.3579H121.992V60.9727C121.992 60.3817 121.857 59.9364 121.588 59.6371C121.326 59.3377 120.947 59.188 120.453 59.188C119.907 59.188 119.473 59.3646 119.151 59.7177C118.829 60.0631 118.668 60.5621 118.668 61.2145V64.3579H117.59V60.9727C117.59 60.3817 117.455 59.9364 117.185 59.6371C116.923 59.3377 116.545 59.188 116.051 59.188C115.504 59.188 115.07 59.3646 114.748 59.7177C114.426 60.0631 114.265 60.5621 114.265 61.2145V64.3579H113.187V58.2554H114.22V59.165C114.437 58.8503 114.722 58.6123 115.074 58.4511C115.426 58.2822 115.826 58.1978 116.276 58.1978C116.74 58.1978 117.152 58.2937 117.511 58.4856C117.87 58.6775 118.147 58.9577 118.342 59.3262C118.567 58.9731 118.877 58.6967 119.274 58.4972C119.678 58.2976 120.131 58.1978 120.633 58.1978Z" fill="white"/>
<path d="M134.746 58.1978C135.495 58.1978 136.086 58.4204 136.52 58.8656C136.962 59.3108 137.183 59.971 137.183 60.8461V64.3579H136.105V60.9727C136.105 60.3817 135.97 59.9364 135.7 59.6371C135.438 59.3377 135.06 59.188 134.566 59.188C134.02 59.188 133.585 59.3646 133.263 59.7177C132.941 60.0631 132.78 60.5621 132.78 61.2145V64.3579H131.702V60.9727C131.702 60.3817 131.568 59.9364 131.298 59.6371C131.036 59.3377 130.658 59.188 130.164 59.188C129.617 59.188 129.183 59.3646 128.861 59.7177C128.539 60.0631 128.378 60.5621 128.378 61.2145V64.3579H127.3V58.2554H128.333V59.165C128.55 58.8503 128.835 58.6123 129.187 58.4511C129.539 58.2822 129.939 58.1978 130.388 58.1978C130.853 58.1978 131.264 58.2937 131.624 58.4856C131.983 58.6775 132.26 58.9577 132.455 59.3262C132.679 58.9731 132.99 58.6967 133.387 58.4972C133.791 58.2976 134.244 58.1978 134.746 58.1978Z" fill="white"/>
<path d="M143.995 64.427C143.404 64.427 142.872 64.2927 142.4 64.024C141.929 63.7554 141.558 63.3869 141.288 62.9186C141.026 62.4427 140.895 61.9054 140.895 61.3066C140.895 60.7079 141.026 60.1744 141.288 59.7062C141.558 59.2302 141.929 58.8618 142.4 58.6008C142.872 58.3321 143.404 58.1978 143.995 58.1978C144.587 58.1978 145.114 58.3321 145.579 58.6008C146.05 58.8618 146.417 59.2302 146.679 59.7062C146.949 60.1744 147.083 60.7079 147.083 61.3066C147.083 61.9054 146.949 62.4427 146.679 62.9186C146.417 63.3869 146.05 63.7554 145.579 64.024C145.114 64.2927 144.587 64.427 143.995 64.427ZM143.995 63.4598C144.377 63.4598 144.718 63.3715 145.017 63.195C145.324 63.0108 145.564 62.7574 145.736 62.435C145.908 62.105 145.994 61.7288 145.994 61.3066C145.994 60.8845 145.908 60.5122 145.736 60.1898C145.564 59.8597 145.324 59.6064 145.017 59.4298C144.718 59.2533 144.377 59.165 143.995 59.165C143.613 59.165 143.269 59.2533 142.962 59.4298C142.662 59.6064 142.423 59.8597 142.243 60.1898C142.071 60.5122 141.985 60.8845 141.985 61.3066C141.985 61.7288 142.071 62.105 142.243 62.435C142.423 62.7574 142.662 63.0108 142.962 63.195C143.269 63.3715 143.613 63.4598 143.995 63.4598Z" fill="white"/>
<path d="M153.976 58.1978C154.553 58.1978 155.07 58.3283 155.526 58.5893C155.983 58.8503 156.339 59.2149 156.593 59.6831C156.855 60.1514 156.986 60.6925 156.986 61.3066C156.986 61.9207 156.855 62.4658 156.593 62.9417C156.339 63.4099 155.983 63.7745 155.526 64.0355C155.07 64.2965 154.553 64.427 153.976 64.427C153.535 64.427 153.13 64.3387 152.764 64.1622C152.397 63.9856 152.093 63.7285 151.854 63.3907V64.3579H150.821V55.8143H151.899V59.1765C152.138 58.8541 152.438 58.6123 152.797 58.4511C153.157 58.2822 153.55 58.1978 153.976 58.1978ZM153.887 63.4598C154.268 63.4598 154.609 63.3715 154.909 63.195C155.216 63.0108 155.455 62.7574 155.627 62.435C155.807 62.105 155.897 61.7288 155.897 61.3066C155.897 60.8845 155.807 60.5122 155.627 60.1898C155.455 59.8597 155.216 59.6064 154.909 59.4298C154.609 59.2533 154.268 59.165 153.887 59.165C153.512 59.165 153.172 59.2533 152.865 59.4298C152.558 59.6064 152.318 59.8597 152.146 60.1898C151.974 60.5122 151.888 60.8845 151.888 61.3066C151.888 61.7288 151.974 62.105 152.146 62.435C152.318 62.7574 152.558 63.0108 152.865 63.195C153.172 63.3715 153.512 63.4598 153.887 63.4598Z" fill="white"/>
<path d="M160.722 58.2554H161.8V64.3579H160.722V58.2554ZM161.261 57.0809C161.051 57.0809 160.875 57.0118 160.733 56.8736C160.598 56.7355 160.531 56.5666 160.531 56.367C160.531 56.1674 160.598 55.9985 160.733 55.8604C160.875 55.7145 161.051 55.6416 161.261 55.6416C161.471 55.6416 161.643 55.7107 161.778 55.8489C161.92 55.9794 161.991 56.1444 161.991 56.344C161.991 56.5512 161.92 56.7278 161.778 56.8736C161.643 57.0118 161.471 57.0809 161.261 57.0809Z" fill="white"/>
<path d="M166.105 55.8143H167.183V64.3579H166.105V55.8143Z" fill="white"/>
<path d="M171.488 58.2554H172.566V64.3579H171.488V58.2554ZM172.027 57.0809C171.817 57.0809 171.641 57.0118 171.499 56.8736C171.364 56.7355 171.297 56.5666 171.297 56.367C171.297 56.1674 171.364 55.9985 171.499 55.8604C171.641 55.7145 171.817 55.6416 172.027 55.6416C172.236 55.6416 172.408 55.7107 172.543 55.8489C172.685 55.9794 172.757 56.1444 172.757 56.344C172.757 56.5512 172.685 56.7278 172.543 56.8736C172.408 57.0118 172.236 57.0809 172.027 57.0809Z" fill="white"/>
<path d="M182.25 61.3412C182.25 61.4256 182.242 61.5369 182.227 61.6751H177.398C177.466 62.2124 177.694 62.6461 178.083 62.9762C178.48 63.2986 178.97 63.4598 179.554 63.4598C180.266 63.4598 180.838 63.2142 181.273 62.7229L181.868 63.4368C181.598 63.7592 181.262 64.0048 180.857 64.1737C180.46 64.3426 180.015 64.427 179.521 64.427C178.892 64.427 178.334 64.2965 177.847 64.0355C177.361 63.7669 176.983 63.3946 176.713 62.9186C176.451 62.4427 176.32 61.9054 176.32 61.3066C176.32 60.7156 176.447 60.1821 176.702 59.7062C176.964 59.2302 177.32 58.8618 177.769 58.6008C178.226 58.3321 178.738 58.1978 179.307 58.1978C179.876 58.1978 180.382 58.3321 180.824 58.6008C181.273 58.8618 181.621 59.2302 181.868 59.7062C182.123 60.1821 182.25 60.7271 182.25 61.3412ZM179.307 59.1304C178.791 59.1304 178.357 59.2916 178.005 59.614C177.66 59.9364 177.458 60.3586 177.398 60.8806H181.217C181.157 60.3663 180.951 59.948 180.599 59.6256C180.255 59.2955 179.824 59.1304 179.307 59.1304Z" fill="white"/>
<path d="M189.171 58.1978C189.927 58.1978 190.526 58.4242 190.968 58.8771C191.417 59.3223 191.642 59.9787 191.642 60.8461V64.3579H190.564V60.9727C190.564 60.3817 190.425 59.9364 190.148 59.6371C189.871 59.3377 189.475 59.188 188.958 59.188C188.374 59.188 187.913 59.3646 187.577 59.7177C187.24 60.0631 187.071 60.5621 187.071 61.2145V64.3579H185.993V58.2554H187.026V59.1765C187.243 58.8618 187.535 58.62 187.902 58.4511C188.277 58.2822 188.7 58.1978 189.171 58.1978Z" fill="white"/>
<path d="M199.039 58.1978C199.616 58.1978 200.132 58.3283 200.589 58.5893C201.046 58.8503 201.401 59.2149 201.656 59.6831C201.918 60.1514 202.049 60.6925 202.049 61.3066C202.049 61.9207 201.918 62.4658 201.656 62.9417C201.401 63.4099 201.046 63.7745 200.589 64.0355C200.132 64.2965 199.616 64.427 199.039 64.427C198.597 64.427 198.193 64.3387 197.826 64.1622C197.459 63.9856 197.156 63.7285 196.917 63.3907V64.3579H195.883V55.8143H196.962V59.1765C197.201 58.8541 197.501 58.6123 197.86 58.4511C198.219 58.2822 198.612 58.1978 199.039 58.1978ZM198.949 63.4598C199.331 63.4598 199.672 63.3715 199.971 63.195C200.278 63.0108 200.518 62.7574 200.69 62.435C200.87 62.105 200.96 61.7288 200.96 61.3066C200.96 60.8845 200.87 60.5122 200.69 60.1898C200.518 59.8597 200.278 59.6064 199.971 59.4298C199.672 59.2533 199.331 59.165 198.949 59.165C198.575 59.165 198.234 59.2533 197.927 59.4298C197.62 59.6064 197.381 59.8597 197.209 60.1898C197.036 60.5122 196.95 60.8845 196.95 61.3066C196.95 61.7288 197.036 62.105 197.209 62.435C197.381 62.7574 197.62 63.0108 197.927 63.195C198.234 63.3715 198.575 63.4598 198.949 63.4598Z" fill="white"/>
<path d="M211.164 61.3412C211.164 61.4256 211.157 61.5369 211.142 61.6751H206.313C206.38 62.2124 206.608 62.6461 206.998 62.9762C207.394 63.2986 207.885 63.4598 208.469 63.4598C209.18 63.4598 209.753 63.2142 210.187 62.7229L210.782 63.4368C210.513 63.7592 210.176 64.0048 209.772 64.1737C209.375 64.3426 208.929 64.427 208.435 64.427C207.806 64.427 207.248 64.2965 206.762 64.0355C206.275 63.7669 205.897 63.3946 205.628 62.9186C205.365 62.4427 205.234 61.9054 205.234 61.3066C205.234 60.7156 205.362 60.1821 205.616 59.7062C205.878 59.2302 206.234 58.8618 206.683 58.6008C207.14 58.3321 207.653 58.1978 208.222 58.1978C208.791 58.1978 209.296 58.3321 209.738 58.6008C210.187 58.8618 210.535 59.2302 210.782 59.7062C211.037 60.1821 211.164 60.7271 211.164 61.3412ZM208.222 59.1304C207.705 59.1304 207.271 59.2916 206.919 59.614C206.575 59.9364 206.372 60.3586 206.313 60.8806H210.131C210.071 60.3663 209.865 59.948 209.513 59.6256C209.169 59.2955 208.738 59.1304 208.222 59.1304Z" fill="white"/>
<path d="M215.941 59.2801C216.128 58.927 216.405 58.6584 216.772 58.4741C217.139 58.2899 217.584 58.1978 218.108 58.1978V59.2686C218.048 59.2609 217.966 59.2571 217.861 59.2571C217.277 59.2571 216.817 59.4375 216.48 59.7983C216.15 60.1514 215.986 60.658 215.986 61.3182V64.3579H214.907V58.2554H215.941V59.2801Z" fill="white"/>
<path d="M223.84 58.1978C224.663 58.1978 225.292 58.405 225.726 58.8196C226.168 59.2341 226.389 59.852 226.389 60.6734V64.3579H225.367V63.5519C225.187 63.836 224.929 64.0547 224.592 64.2083C224.263 64.3541 223.87 64.427 223.413 64.427C222.747 64.427 222.211 64.262 221.807 63.9319C221.41 63.6018 221.212 63.1681 221.212 62.6308C221.212 62.0935 221.403 61.6636 221.784 61.3412C222.166 61.0111 222.773 60.8461 223.604 60.8461H225.311V60.6273C225.311 60.1514 225.176 59.7868 224.907 59.5334C224.637 59.2801 224.24 59.1535 223.716 59.1535C223.364 59.1535 223.02 59.2149 222.683 59.3377C222.346 59.4528 222.061 59.6102 221.829 59.8098L221.38 58.9808C221.687 58.7274 222.054 58.5355 222.481 58.405C222.907 58.2669 223.36 58.1978 223.84 58.1978ZM223.593 63.575C224.004 63.575 224.36 63.4828 224.659 63.2986C224.959 63.1067 225.176 62.838 225.311 62.4926V61.6406H223.649C222.735 61.6406 222.279 61.9553 222.279 62.5847C222.279 62.8918 222.395 63.1336 222.627 63.3101C222.859 63.4867 223.181 63.575 223.593 63.575Z" fill="white"/>
<path d="M233.977 64.001C233.82 64.1392 233.625 64.2466 233.393 64.3234C233.161 64.3925 232.921 64.427 232.674 64.427C232.075 64.427 231.611 64.262 231.282 63.9319C230.952 63.6018 230.788 63.1297 230.788 62.5156V59.165H229.777V58.2554H230.788V56.9197H231.866V58.2554H233.573V59.165H231.866V62.4696C231.866 62.7997 231.944 63.053 232.102 63.2295C232.266 63.4061 232.498 63.4944 232.798 63.4944C233.127 63.4944 233.408 63.3984 233.64 63.2065L233.977 64.001Z" fill="white"/>
<path d="M242.709 61.3412C242.709 61.4256 242.701 61.5369 242.686 61.6751H237.857C237.924 62.2124 238.153 62.6461 238.542 62.9762C238.939 63.2986 239.429 63.4598 240.013 63.4598C240.725 63.4598 241.297 63.2142 241.732 62.7229L242.327 63.4368C242.057 63.7592 241.72 64.0048 241.316 64.1737C240.919 64.3426 240.474 64.427 239.98 64.427C239.351 64.427 238.793 64.2965 238.306 64.0355C237.82 63.7669 237.441 63.3946 237.172 62.9186C236.91 62.4427 236.779 61.9054 236.779 61.3066C236.779 60.7156 236.906 60.1821 237.161 59.7062C237.423 59.2302 237.778 58.8618 238.228 58.6008C238.684 58.3321 239.197 58.1978 239.766 58.1978C240.335 58.1978 240.841 58.3321 241.282 58.6008C241.732 58.8618 242.08 59.2302 242.327 59.7062C242.581 60.1821 242.709 60.7271 242.709 61.3412ZM239.766 59.1304C239.25 59.1304 238.815 59.2916 238.463 59.614C238.119 59.9364 237.917 60.3586 237.857 60.8806H241.675C241.616 60.3663 241.41 59.948 241.058 59.6256C240.713 59.2955 240.283 59.1304 239.766 59.1304Z" fill="white"/>
<path d="M247.485 59.2801C247.672 58.927 247.949 58.6584 248.316 58.4741C248.683 58.2899 249.128 58.1978 249.653 58.1978V59.2686C249.593 59.2609 249.51 59.2571 249.405 59.2571C248.821 59.2571 248.361 59.4375 248.024 59.7983C247.695 60.1514 247.53 60.658 247.53 61.3182V64.3579H246.452V58.2554H247.485V59.2801Z" fill="white"/>
</svg>
