<svg width="357" height="120" viewBox="0 0 357 120" fill="none" xmlns="http://www.w3.org/2000/svg">
<path fill-rule="evenodd" clip-rule="evenodd" d="M65.2785 42.628C65.6541 42.8748 66.2807 43.1208 66.9074 43.1208C67.6587 43.1208 68.2853 42.7514 68.2853 41.7657V41.1495C68.661 41.6423 68.7865 42.2585 68.7865 42.7514C68.7865 43.6137 68.1598 44.2299 67.1575 44.2299C66.1553 44.2299 65.2785 43.2442 65.2785 42.628ZM61.6457 48.6647C62.5218 46.0779 63.9005 45.0922 66.0298 45.0922H67.4085C69.9142 45.0922 70.6656 43.8605 71.7934 42.7514L74.2991 40.2872L66.6564 40.1638C63.2739 40.1638 62.5218 42.2585 61.6457 48.6647ZM45.9855 77.6181C46.6121 77.3713 47.238 77.3713 47.7391 77.3713C49.4935 77.3713 50.4958 78.2343 52.5004 80.6977C54.3795 78.2343 55.1308 77.3713 57.2609 77.3713C57.762 77.3713 58.3879 77.3713 59.0138 77.6181C56.7597 75.2773 54.7552 74.9071 52.5004 74.9071C50.2448 74.9071 48.2403 75.2773 45.9855 77.6181ZM36.8402 85.7495C36.9656 80.0823 38.5938 76.7558 43.8554 74.5376L52.5004 71.704L61.1446 74.5376C66.4062 76.7558 68.0344 80.0823 68.1598 85.7495C67.283 84.6405 66.2807 84.1476 64.7773 84.1476C61.1446 84.1476 55.381 90.7998 52.5004 97.2075C49.619 90.7998 43.8554 84.1476 40.2227 84.1476C38.7193 84.1476 37.717 84.6405 36.8402 85.7495ZM36.2135 42.7514C36.2135 42.2585 36.339 41.6423 36.7147 41.1495V41.7657C36.7147 42.7514 37.3413 43.1208 38.0926 43.1208C38.7193 43.1208 39.3459 42.8748 39.7215 42.628C39.7215 43.2442 38.8447 44.2299 37.8424 44.2299C36.8402 44.2299 36.2135 43.6137 36.2135 42.7514ZM30.7017 40.2872L33.2067 42.7514C34.3344 43.8605 35.0865 45.0922 37.5915 45.0922H38.9702C41.0995 45.0922 42.4775 46.0779 43.3551 48.6647C42.4775 42.2585 41.7261 40.1638 38.3436 40.1638L30.7017 40.2872ZM25.5648 49.2809C25.5648 48.7881 25.5648 48.1726 25.8157 47.679L31.3276 32.4025C31.704 31.4168 32.4553 30.4311 33.3321 30.0609L48.6167 24.1476C49.7437 23.6548 50.4958 24.1476 50.8715 25.1333L52.5004 28.9526L54.1285 25.1333C54.5042 24.1476 55.2555 23.6548 56.3841 24.1476L71.6679 30.0609C72.5447 30.4311 73.296 31.4168 73.6724 32.4025L79.1843 47.679C79.4352 48.1726 79.4352 48.7881 79.4352 49.2809C79.4352 51.0062 78.3075 52.6074 76.4284 53.1002L72.2945 54.2093C70.0389 54.8248 68.9119 56.4267 68.9119 58.2747C68.9119 59.0143 69.0367 59.8766 69.537 60.6155L71.4169 63.6959C71.6679 64.1888 71.9181 64.805 71.9181 65.4205C71.9181 66.0367 71.6679 66.7756 71.2914 67.3918L68.2853 71.9508C67.534 73.1825 66.2807 73.7988 65.0283 73.7988C64.5271 73.7988 64.1515 73.7988 63.6503 73.552C61.0191 72.4429 56.8852 70.5949 54.6297 67.6386L54.7552 62.957C57.6366 61.1091 59.8913 59.8766 62.0214 58.8909C63.1492 58.3981 63.6503 57.6592 63.6503 56.9196C63.6503 56.1807 63.0237 55.441 62.0214 54.7022C61.5202 56.0573 60.8936 56.4267 60.1423 56.4267C58.6388 56.4267 56.3841 54.0859 52.5004 54.0859C48.6167 54.0859 46.3612 56.4267 44.8577 56.4267C44.1064 56.4267 43.4798 56.0573 42.9786 54.7022C41.9763 55.441 41.3505 56.1807 41.3505 56.9196C41.3505 57.6592 41.8516 58.3981 42.9786 58.8909C45.1087 59.8766 47.3634 61.1091 50.2448 62.957L50.3703 67.6386C48.1156 70.5949 43.9809 72.4429 41.3505 73.552C40.8493 73.7988 40.4729 73.7988 39.9717 73.7988C38.7193 73.7988 37.4668 73.1825 36.7147 71.9508L33.7078 67.3918C33.3321 66.7756 33.082 66.0367 33.082 65.4205C33.082 64.805 33.3321 64.1888 33.5831 63.6959L35.4622 60.6155C35.9633 59.8766 36.0888 59.0143 36.0888 58.2747C36.0888 56.4267 34.961 54.8248 32.7063 54.2093L28.5716 53.1002C26.6925 52.6074 25.5648 51.0062 25.5648 49.2809ZM0.00785365 59.0143C0.00785365 60.246 -0.11762 61.4785 0.634481 65.9133C2.01244 61.3551 3.51589 59.2604 6.89843 55.6878C4.14251 61.2317 3.89155 64.4348 3.89155 68.0081C3.89155 80.5751 10.7821 92.5259 21.1799 101.52C19.0506 97.5762 18.9251 94.9893 18.9251 87.7209C22.1822 101.026 28.9473 107.064 35.7124 111.498C34.8356 108.542 34.8356 106.94 34.961 105.092C41.225 114.333 48.2403 116.181 52.5004 120C56.7597 116.181 63.775 114.333 70.039 105.092C70.1644 106.94 70.1644 108.542 69.2876 111.498C76.0527 107.064 82.8178 101.026 86.0748 87.7209C86.0748 94.9893 85.9494 97.5762 83.8193 101.52C94.2179 92.5259 101.108 80.5751 101.108 68.0081C101.108 64.4348 100.858 61.2317 98.1008 55.6878C101.484 59.2604 102.988 61.3551 104.366 65.9133C105.118 61.4785 104.992 60.246 104.992 59.0143C104.992 48.0492 98.9791 38.6853 94.4688 35.729C97.4757 36.3445 101.234 40.2872 103.113 41.6423C98.7282 26.9813 90.8354 19.0966 77.5561 15.2765C77.5561 13.1825 78.0573 11.5806 79.0596 9.48659C78.3075 9.60999 77.5561 9.60999 76.8033 9.60999C70.9165 9.60999 65.5294 6.52956 60.7681 1.72456V7.63863C58.0122 5.42048 55.8829 4.06536 52.5004 0C49.1178 4.06536 46.9878 5.42048 44.2319 7.63863V1.72456C39.4714 6.52956 34.0842 9.60999 28.196 9.60999C27.4439 9.60999 26.6925 9.60999 25.9404 9.48659C26.9427 11.5806 27.4439 13.1825 27.4439 15.2765C14.1646 19.0966 6.2718 26.9813 1.88696 41.6423C3.76607 40.2872 7.52505 36.3445 10.5312 35.729C6.02161 38.6853 0.00785365 48.0492 0.00785365 59.0143Z" fill="#C29329"/>
<path fill-rule="evenodd" clip-rule="evenodd" d="M65.2781 42.6279C65.6538 42.8747 66.2804 43.1208 66.907 43.1208C67.6584 43.1208 68.285 42.7513 68.285 41.7656V41.1494C68.6607 41.6422 68.7862 42.2585 68.7862 42.7513C68.7862 43.6136 68.1595 44.2298 67.1572 44.2298C66.155 44.2298 65.2781 43.2442 65.2781 42.6279ZM61.6454 48.6646C62.5215 46.0778 63.9002 45.0921 66.0295 45.0921H67.4082C69.9139 45.0921 70.6653 43.8604 71.793 42.7513L74.2988 40.2871L66.6561 40.1637C63.2736 40.1637 62.5215 42.2585 61.6454 48.6646ZM45.9852 77.618C46.6118 77.3712 47.2377 77.3712 47.7388 77.3712C49.4932 77.3712 50.4955 78.2343 52.5001 80.6977C54.3792 78.2343 55.1305 77.3712 57.2606 77.3712C57.7617 77.3712 58.3876 77.3712 59.0134 77.618C56.7594 75.2772 54.7549 74.907 52.5001 74.907C50.2445 74.907 48.24 75.2772 45.9852 77.618ZM36.8398 85.7495C36.9653 80.0822 38.5935 76.7557 43.8551 74.5376L52.5001 71.7039L61.1443 74.5376C66.4059 76.7557 68.0341 80.0822 68.1595 85.7495C67.2827 84.6404 66.2804 84.1476 64.777 84.1476C61.1443 84.1476 55.3807 90.7998 52.5001 97.2074C49.6187 90.7998 43.8551 84.1476 40.2224 84.1476C38.719 84.1476 37.7167 84.6404 36.8398 85.7495ZM36.2132 42.7513C36.2132 42.2585 36.3387 41.6422 36.7144 41.1494V41.7656C36.7144 42.7513 37.341 43.1208 38.0923 43.1208C38.719 43.1208 39.3456 42.8747 39.7212 42.6279C39.7212 43.2442 38.8444 44.2298 37.8421 44.2298C36.8398 44.2298 36.2132 43.6136 36.2132 42.7513ZM30.7014 40.2871L33.2063 42.7513C34.3341 43.8604 35.0862 45.0921 37.5912 45.0921H38.9699C41.0992 45.0921 42.4772 46.0778 43.3547 48.6646C42.4772 42.2585 41.7258 40.1637 38.3433 40.1637L30.7014 40.2871ZM25.5645 49.2809C25.5645 48.788 25.5644 48.1726 25.8154 47.679L31.3272 32.4024C31.7037 31.4168 32.455 30.4311 33.3318 30.0609L48.6164 24.1476C49.7434 23.6547 50.4955 24.1476 50.8712 25.1332L52.5001 28.9526L54.1282 25.1332C54.5039 24.1476 55.2552 23.6547 56.3838 24.1476L71.6676 30.0609C72.5444 30.4311 73.2957 31.4168 73.6721 32.4024L79.184 47.679C79.4349 48.1726 79.4349 48.788 79.4349 49.2809C79.4349 51.0062 78.3072 52.6074 76.4281 53.1002L72.2942 54.2093C70.0386 54.8248 68.9116 56.4267 68.9116 58.2746C68.9116 59.0143 69.0364 59.8766 69.5367 60.6154L71.4166 63.6959C71.6676 64.1887 71.9177 64.8049 71.9177 65.4204C71.9177 66.0367 71.6676 66.7755 71.2911 67.3918L68.285 71.9507C67.5337 73.1825 66.2804 73.7987 65.028 73.7987C64.5268 73.7987 64.1511 73.7987 63.65 73.5519C61.0188 72.4428 56.8849 70.5949 54.6294 67.6386L54.7549 62.957C57.6362 61.109 59.891 59.8765 62.0211 58.8909C63.1488 58.398 63.65 57.6591 63.65 56.9195C63.65 56.1806 63.0234 55.441 62.0211 54.7021C61.5199 56.0572 60.8933 56.4267 60.142 56.4267C58.6385 56.4267 56.3838 54.0859 52.5001 54.0859C48.6164 54.0859 46.3609 56.4267 44.8574 56.4267C44.1061 56.4267 43.4795 56.0572 42.9783 54.7021C41.976 55.441 41.3502 56.1806 41.3502 56.9195C41.3502 57.6591 41.8513 58.398 42.9783 58.8909C45.1084 59.8765 47.3631 61.109 50.2445 62.957L50.37 67.6386C48.1152 70.5949 43.9806 72.4428 41.3502 73.5519C40.849 73.7987 40.4726 73.7987 39.9714 73.7987C38.7189 73.7987 37.4665 73.1825 36.7144 71.9507L33.7075 67.3918C33.3318 66.7755 33.0816 66.0367 33.0816 65.4204C33.0816 64.8049 33.3318 64.1887 33.5828 63.6959L35.4619 60.6154C35.963 59.8766 36.0885 59.0143 36.0885 58.2746C36.0885 56.4267 34.9607 54.8248 32.706 54.2093L28.5713 53.1002C26.6922 52.6074 25.5645 51.0062 25.5645 49.2809Z" fill="white"/>
<path fill-rule="evenodd" clip-rule="evenodd" d="M214.963 64.4587C214.495 64.2809 214.118 63.9646 213.842 63.5183C213.717 63.3228 213.638 62.9449 213.606 62.3957C213.573 61.8376 213.557 61.2159 213.557 60.5484C213.557 59.7361 213.551 58.9677 213.54 58.2633C213.529 57.5889 213.523 56.914 213.523 56.2579V44.9419C213.523 44.5729 213.535 44.2079 213.556 43.8567C213.578 43.503 213.61 43.1799 213.655 42.8946C213.697 42.6173 213.76 42.3986 213.845 42.2439C214.078 41.7991 214.445 41.4543 214.935 41.2193C215.432 40.9819 215.947 40.8267 216.467 40.7587L216.529 40.7503V40.2656H206.445V40.7563L206.513 40.7592C207.009 40.7819 207.516 40.8681 208.016 41.0159C208.504 41.1607 208.947 41.541 209.33 42.1429C209.499 42.4311 209.601 42.8099 209.633 43.2685C209.665 43.7197 209.693 44.1793 209.716 44.633C209.738 45.4113 209.749 46.0783 209.749 46.6724V52.1698H196.842V48.7482C196.842 47.862 196.847 46.9601 196.859 46.0675C196.869 45.1197 196.886 44.2414 196.908 43.4572C196.929 42.9414 197.037 42.5109 197.228 42.1769C197.42 41.8419 197.657 41.5764 197.933 41.3873C198.212 41.1966 198.527 41.0543 198.87 40.9651C199.217 40.874 199.548 40.8045 199.853 40.7587L199.914 40.7494V40.2656H189.929V40.7513L189.992 40.7587C190.556 40.8267 191.067 40.9474 191.512 41.1178C191.949 41.2863 192.322 41.5636 192.621 41.9439C192.746 42.0966 192.841 42.3139 192.904 42.5887C192.969 42.8764 193.019 43.1986 193.051 43.5473C193.084 43.9025 193.1 44.2902 193.1 44.7V54.6998C193.1 55.3747 193.095 56.0554 193.084 56.7234C193.073 57.381 193.062 57.9859 193.051 58.5396C193.04 59.08 193.034 59.5229 193.034 59.8559C193.034 60.2169 193.023 60.6056 193.002 61.0115C192.978 61.4248 192.952 61.7913 192.919 62.1331C192.887 62.4735 192.842 62.7789 192.788 63.041C192.735 63.2952 192.668 63.4775 192.589 63.5804C192.333 63.8937 191.953 64.1602 191.459 64.373C190.962 64.5893 190.434 64.7449 189.889 64.8365L189.83 64.8459V65.3282H199.716V64.842L199.652 64.8356C199.198 64.7897 198.727 64.6631 198.251 64.4597C197.782 64.2582 197.414 63.9641 197.159 63.5853C196.991 63.3444 196.896 62.9159 196.875 62.3105C196.853 61.6962 196.842 61.045 196.842 60.3755V53.0092H209.749V58.4032C209.749 59.1948 209.737 59.9859 209.716 60.7558C209.716 61.0248 209.71 61.3149 209.699 61.6179C209.688 61.9134 209.671 62.2036 209.65 62.4799C209.628 62.7519 209.601 62.9942 209.568 63.2011C209.529 63.4449 209.489 63.5459 209.462 63.5898C209.294 63.8745 208.939 64.1385 208.405 64.3735C207.864 64.6114 207.183 64.7666 206.378 64.8356L206.313 64.841V65.3282H216.595V64.8429L216.533 64.836C215.966 64.7666 215.438 64.6395 214.963 64.4587Z" fill="#282727"/>
<path fill-rule="evenodd" clip-rule="evenodd" d="M165.497 40.7488V40.2656H157.726V40.7513L157.793 40.7572C158.066 40.7792 158.377 40.8312 158.719 40.9102C159.059 40.9897 159.38 41.104 159.673 41.2492C159.964 41.3939 160.213 41.5749 160.414 41.7849C160.608 41.9885 160.706 42.2554 160.706 42.5786C160.706 42.8048 160.683 43.1619 160.637 43.6402C160.591 44.1166 160.406 44.8882 160.085 45.9346C159.826 46.7799 159.54 47.6781 159.237 48.6048L158.301 51.4653C157.995 52.4013 157.681 53.3456 157.366 54.2723C157.063 55.1661 156.771 56.0064 156.5 56.7702C156.24 57.4997 156.019 58.1374 155.841 58.6668C155.718 59.0347 155.621 59.3138 155.55 59.5007C155.387 59.0597 155.149 58.4136 154.838 57.5615C154.483 56.5985 154.081 55.4854 153.642 54.2541C153.2 53.0159 152.733 51.7233 152.256 50.4115C151.767 49.0693 151.324 47.8233 150.94 46.7072C150.554 45.5922 150.227 44.6189 149.969 43.8144C149.658 42.8431 149.592 42.5311 149.592 42.4408C149.592 42.1165 149.724 41.8541 149.998 41.6372C150.28 41.4131 150.599 41.2369 150.946 41.1148C151.297 40.9912 151.654 40.9053 152.005 40.8597C152.358 40.8146 152.61 40.7797 152.753 40.7562L152.815 40.7459V40.2656H141.821V40.7886L141.892 40.7915C142.435 40.8141 142.906 40.8882 143.293 41.0123C143.675 41.1354 144 41.2939 144.259 41.4837C144.517 41.674 144.722 41.8712 144.867 42.0704C145.014 42.273 145.134 42.4673 145.224 42.6458C145.546 43.3111 145.849 43.9988 146.123 44.6905C146.399 45.3886 146.71 46.1975 147.049 47.0958C146.546 48.6646 146.036 50.1917 145.533 51.6355C145.019 53.1091 144.553 54.4312 144.147 55.5639C143.731 56.7236 143.384 57.6891 143.107 58.4583C142.898 59.0401 142.748 59.4541 142.657 59.7004C142.406 59.0258 142.092 58.2027 141.721 57.2505C141.305 56.1825 140.861 55.0336 140.387 53.8048C139.912 52.5725 139.435 51.3146 138.967 50.0662C138.494 48.8034 138.06 47.6369 137.668 46.5684C137.279 45.5142 136.959 44.5993 136.716 43.8487C136.477 43.1129 136.355 42.6395 136.355 42.4408C136.355 42.0709 136.459 41.7756 136.664 41.5617C136.875 41.3409 137.128 41.1727 137.417 41.0628C137.708 40.9509 137.995 40.871 138.269 40.8249C138.541 40.7797 138.735 40.7572 138.845 40.7572H138.919V40.2656H129V40.7886L129.071 40.7915C129.567 40.8141 129.977 40.8989 130.29 41.0437C130.606 41.1894 130.881 41.3601 131.105 41.5499C131.33 41.7403 131.506 41.9375 131.627 42.1352C131.753 42.3402 131.851 42.5124 131.918 42.6468C132.049 42.9059 132.177 43.1712 132.299 43.4366C132.414 43.6908 132.524 43.9557 132.626 44.2245C132.73 44.5002 132.845 44.7994 132.973 45.1217C133.099 45.4431 133.244 45.8223 133.405 46.2584C133.96 47.7055 134.514 49.1591 135.068 50.6171L136.784 55.1317C137.223 56.2865 137.673 57.4762 138.137 58.7001L138.621 59.9736C139.254 61.6465 139.935 63.4316 140.648 65.2811L140.666 65.3282H141.18L142.727 61.9025C143.12 60.8228 143.524 59.7033 143.94 58.5422C144.358 57.3771 144.777 56.1889 145.187 55.0091C145.601 53.8205 146.021 52.6328 146.435 51.477C146.807 50.4395 147.18 49.3862 147.546 48.3438C148.001 49.555 148.454 50.8049 148.894 52.0628C149.356 53.3848 149.835 54.7457 150.332 56.1472C150.829 57.5483 151.348 59.0077 151.892 60.524C152.426 62.0163 153.014 63.6161 153.642 65.2806L153.66 65.3282H154.106L155.583 61.9697C156.015 60.6815 156.493 59.2844 157.004 57.8176C157.511 56.3591 158.014 54.9056 158.511 53.4579C158.994 52.0495 159.489 50.6293 159.983 49.2376C160.464 47.8846 160.895 46.6258 161.266 45.498C161.494 44.8377 161.715 44.277 161.922 43.833C162.127 43.3895 162.324 43.0216 162.505 42.7396C162.687 42.458 162.848 42.2343 162.985 42.0753C163.122 41.9159 163.226 41.8016 163.299 41.727C163.343 41.6691 163.499 41.5357 163.99 41.2286C164.383 40.9828 164.868 40.8239 165.432 40.7567L165.497 40.7488Z" fill="#282727"/>
<path fill-rule="evenodd" clip-rule="evenodd" d="M288.371 36.5063C288.704 36.5063 288.994 36.3825 289.231 36.1386H289.231C289.467 35.8955 289.587 35.5972 289.587 35.2533C289.587 34.909 289.467 34.6115 289.231 34.368C288.994 34.1238 288.704 34 288.371 34C288.037 34 287.748 34.1238 287.511 34.368C287.274 34.6115 287.154 34.909 287.154 35.2533C287.154 35.5976 287.274 35.8955 287.511 36.1386C287.748 36.3825 288.037 36.5063 288.371 36.5063Z" fill="#282727"/>
<path fill-rule="evenodd" clip-rule="evenodd" d="M282.289 36.5063C282.623 36.5063 282.912 36.3825 283.149 36.1386C283.385 35.8952 283.505 35.5968 283.505 35.2533C283.505 34.9098 283.385 34.6118 283.149 34.368C282.912 34.1238 282.623 34 282.289 34C281.956 34 281.666 34.1238 281.429 34.368C281.192 34.6122 281.072 34.9098 281.072 35.2533C281.072 35.5968 281.192 35.8948 281.429 36.1386C281.666 36.3825 281.956 36.5063 282.289 36.5063Z" fill="#282727"/>
<path fill-rule="evenodd" clip-rule="evenodd" d="M185.484 52.7462C185.484 54.1569 185.308 55.5879 184.96 57C184.614 58.4098 184.087 59.6974 183.394 60.8282C182.703 61.9556 181.826 62.8895 180.79 63.6037C179.757 64.3151 178.523 64.6761 177.122 64.6761C175.72 64.6761 174.473 64.3484 173.417 63.7032C172.359 63.0565 171.466 62.1858 170.764 61.1144C170.059 60.0396 169.522 58.7809 169.165 57.3731C168.806 55.9624 168.625 54.474 168.625 52.9494C168.625 51.4928 168.79 50.0324 169.114 48.6087C169.438 47.1874 169.948 45.9002 170.63 44.7825C171.31 43.6667 172.192 42.7444 173.25 42.0417C174.306 41.3409 175.574 40.9857 177.021 40.9857C178.443 40.9857 179.695 41.3409 180.74 42.0412C181.788 42.7444 182.675 43.6729 183.378 44.7999C184.082 45.9297 184.614 47.2062 184.961 48.5933C185.308 49.9832 185.484 51.3809 185.484 52.7462ZM186.523 44.0344C185.459 42.8906 184.146 41.9669 182.622 41.2883C181.097 40.6097 179.348 40.2656 177.427 40.2656C175.665 40.2656 173.965 40.5576 172.373 41.1339C170.779 41.7106 169.369 42.5479 168.182 43.6232C166.995 44.6985 166.037 46.0301 165.337 47.5797C164.636 49.1299 164.28 50.9021 164.28 52.8476C164.28 54.6806 164.619 56.3837 165.286 57.9107C165.952 59.4378 166.875 60.7688 168.029 61.8673C169.183 62.9662 170.547 63.8267 172.083 64.4252C173.619 65.0241 175.269 65.3282 176.987 65.3282C178.726 65.3282 180.394 65.0188 181.942 64.4083C183.491 63.7963 184.866 62.9131 186.029 61.7828C187.195 60.6496 188.129 59.2959 188.806 57.7592C189.484 56.2206 189.828 54.5227 189.828 52.7119C189.828 51.0841 189.542 49.5011 188.977 48.0078C188.412 46.5161 187.587 45.1787 186.523 44.0344Z" fill="#282727"/>
<path fill-rule="evenodd" clip-rule="evenodd" d="M238.747 40.7474L238.807 40.7567C239.839 40.9152 240.639 41.1948 241.184 41.5887C241.726 41.9797 242.108 42.4953 242.321 43.1218C242.492 43.5947 242.59 44.253 242.611 45.0792C242.633 45.9259 242.645 46.8119 242.645 47.7135V59.2323L227.244 40.2906L227.223 40.2656H220.473V40.7483L220.534 40.7567C220.881 40.8028 221.248 40.8779 221.622 40.9784C221.995 41.0795 222.345 41.2497 222.664 41.4852C222.981 41.7182 223.26 42.0464 223.495 42.4614C223.73 42.8765 223.88 43.4166 223.944 44.0637C223.966 44.7284 223.977 45.2955 223.977 45.7493V49.9545C223.977 51.4817 223.966 52.9362 223.944 54.2774C223.922 55.6177 223.889 56.7941 223.846 57.7748C223.802 59.0709 223.737 60.2056 223.65 61.147C223.564 62.0727 223.37 62.7801 223.07 63.2515C222.774 63.7416 222.367 64.0973 221.86 64.3082C221.345 64.5231 220.822 64.6664 220.305 64.7346L220.244 64.7429V65.2251H228.44V64.7424L228.378 64.7346C227.494 64.6212 226.791 64.4319 226.288 64.1728C225.792 63.9178 225.423 63.5292 225.19 63.0171C224.977 62.5677 224.841 61.8706 224.788 60.9434C224.734 60.0128 224.706 58.9472 224.706 57.7772V43.4264C226.142 45.1169 227.521 46.7721 228.808 48.3479C230.14 49.979 231.499 51.6514 232.885 53.3615C234.271 55.0732 235.729 56.8711 237.257 58.7549C238.774 60.6245 240.482 62.7114 242.337 64.9622C242.571 65.2085 242.78 65.3282 242.976 65.3282C243.104 65.3282 243.203 65.2923 243.271 65.2207C243.339 65.1496 243.373 65.0569 243.373 64.945V62.7055C243.373 61.8824 243.367 61.041 243.357 60.2061C243.346 59.3946 243.341 58.5656 243.341 57.7429V55.5368C243.341 53.9929 243.357 52.5384 243.389 51.2138C243.424 49.8353 243.462 48.6913 243.504 47.717C243.548 46.6613 243.591 45.6669 243.635 44.7367C243.678 43.8198 243.775 43.1855 243.925 42.848C244.179 42.2009 244.55 41.7138 245.027 41.4003C245.507 41.0864 246.153 40.87 246.948 40.7567L247.008 40.7479V40.2656H238.747V40.7474Z" fill="#282727"/>
<path fill-rule="evenodd" clip-rule="evenodd" d="M325.615 40.7513L325.682 40.7572C325.955 40.7797 326.266 40.8312 326.608 40.9102C326.947 40.9897 327.268 41.1035 327.562 41.2492C327.852 41.3944 328.102 41.5745 328.304 41.7849C328.5 41.9909 328.595 42.2509 328.595 42.5791C328.595 42.8043 328.572 43.1614 328.526 43.6402C328.481 44.1171 328.295 44.8892 327.974 45.9346C327.72 46.7637 327.435 47.6619 327.126 48.6048L326.19 51.4653C325.88 52.4135 325.565 53.3583 325.255 54.2723C324.947 55.1808 324.656 56.0211 324.389 56.7702C324.125 57.511 323.904 58.1492 323.731 58.6668C323.605 59.0406 323.508 59.3163 323.439 59.5007C323.276 59.0597 323.039 58.4136 322.726 57.5625C322.352 56.5436 321.95 55.431 321.531 54.2541C321.092 53.0252 320.629 51.7444 320.145 50.4115C319.659 49.0782 319.216 47.8316 318.829 46.7077C318.438 45.5765 318.111 44.6032 317.859 43.8144C317.547 42.844 317.481 42.5315 317.481 42.4408C317.481 42.1165 317.614 41.8536 317.886 41.6372C318.169 41.4131 318.488 41.2369 318.835 41.1148C319.187 40.9912 319.543 40.9053 319.893 40.8597C320.247 40.8151 320.499 40.7802 320.642 40.7562L320.704 40.7459V40.2656H309.71V40.7886L309.781 40.7915C310.324 40.8141 310.795 40.8882 311.182 41.0123C311.564 41.1354 311.889 41.2939 312.148 41.4837C312.406 41.674 312.611 41.8712 312.756 42.0704C312.902 42.272 313.022 42.4658 313.113 42.6454C313.437 43.3135 313.738 44.0013 314.011 44.6905C314.281 45.3719 314.593 46.1809 314.938 47.0958C314.432 48.6705 313.922 50.1976 313.421 51.6355C312.895 53.1464 312.442 54.4312 312.036 55.5639C311.62 56.7241 311.273 57.6891 310.996 58.4583C310.791 59.0263 310.639 59.4482 310.546 59.7009C310.292 59.0195 309.978 58.1963 309.61 57.2505C309.194 56.1825 308.749 55.0336 308.275 53.8048C307.8 52.5725 307.323 51.3146 306.855 50.0662C306.382 48.8034 305.948 47.6369 305.556 46.5684C305.162 45.498 304.842 44.5831 304.604 43.8487C304.365 43.1134 304.244 42.6405 304.244 42.4408C304.244 42.0709 304.348 41.7756 304.552 41.5617C304.764 41.3405 305.017 41.1727 305.306 41.0628C305.597 40.9509 305.884 40.871 306.157 40.8249C306.428 40.7802 306.623 40.7572 306.734 40.7572H306.808V40.2656H296.889V40.7886L296.959 40.7915C297.455 40.8141 297.866 40.8989 298.178 41.0437C298.495 41.1903 298.769 41.3601 298.993 41.5499C299.218 41.7403 299.394 41.937 299.515 42.1352C299.642 42.3407 299.739 42.5134 299.807 42.6468C299.936 42.9024 300.06 43.1605 300.187 43.4366C300.306 43.6981 300.415 43.963 300.514 44.2245C300.618 44.5012 300.733 44.7994 300.861 45.1217C300.988 45.4431 301.132 45.8223 301.295 46.2589C301.849 47.7055 302.403 49.1591 302.957 50.6171L304.672 55.1317C305.111 56.2865 305.562 57.4762 306.026 58.7001L306.508 59.9741C307.127 61.6062 307.809 63.3914 308.536 65.2811L308.554 65.3282H309.069L310.615 61.9025C311.008 60.8228 311.412 59.7033 311.828 58.5422C312.246 57.3776 312.666 56.1889 313.076 55.0091C313.514 53.7537 313.922 52.598 314.323 51.477C314.704 50.4149 315.078 49.3622 315.434 48.3443C315.892 49.5628 316.345 50.8133 316.782 52.0632C317.245 53.3848 317.723 54.7457 318.221 56.1472C318.717 57.5483 319.237 59.0077 319.78 60.524C320.315 62.0203 320.905 63.6205 321.531 65.2806L321.549 65.3282H321.995L323.471 61.9697C323.906 60.6751 324.384 59.2785 324.893 57.8176C325.4 56.3591 325.903 54.9061 326.4 53.4579C326.878 52.0642 327.374 50.644 327.872 49.2376C328.348 47.8964 328.78 46.6381 329.155 45.498C329.384 44.8353 329.605 44.2755 329.81 43.833C330.022 43.3792 330.213 43.0216 330.395 42.7396C330.575 42.4589 330.736 42.2357 330.874 42.0753C331.015 41.9115 331.116 41.8006 331.189 41.727C331.232 41.6691 331.387 41.5362 331.879 41.2286C332.272 40.9828 332.757 40.8239 333.321 40.7567L333.386 40.7488V40.2656H325.615V40.7513Z" fill="#282727"/>
<path fill-rule="evenodd" clip-rule="evenodd" d="M355.993 58.4554L355.964 58.5047C355.391 59.4889 354.827 60.342 354.288 61.0401C353.752 61.7346 353.19 62.3302 352.618 62.811C352.048 63.2893 351.447 63.6632 350.834 63.9242C350.218 64.1858 349.537 64.3646 348.807 64.4553C348.145 64.5469 347.5 64.6045 346.89 64.6272C346.294 64.6498 345.788 64.6622 345.385 64.6622C344.467 64.6622 343.608 64.5922 342.833 64.4558C342.071 64.3213 341.586 64.0996 341.391 63.7962C341.19 63.4858 341.06 63.0016 341.004 62.3588C340.946 61.7061 340.905 61.0031 340.883 60.2721C340.883 60.0421 340.877 59.7559 340.865 59.4214C340.853 59.0899 340.847 58.7357 340.847 58.3687V54.2166C340.847 53.6397 340.868 53.1875 340.908 52.8708H342.438C342.657 52.8708 342.889 52.8767 343.128 52.888C343.358 52.9003 343.647 52.9176 343.994 52.9402C344.678 52.986 345.283 53.1122 345.791 53.3151C346.301 53.519 346.742 53.7831 347.102 54.0964C347.51 54.4821 347.907 55.0683 348.282 55.8397C348.659 56.6131 348.942 57.3771 349.126 58.1096L349.14 58.1652H349.688V47.1172H349.138L349.126 47.1758C348.99 47.8113 348.833 48.3965 348.661 48.9157C348.49 49.425 348.26 49.8782 347.977 50.262C347.696 50.6442 347.324 50.9748 346.872 51.2462C346.416 51.5186 345.841 51.7368 345.16 51.8954C344.861 51.9634 344.486 52.0156 344.045 52.0491C343.565 52.0856 343.123 52.1137 342.694 52.1353C342.256 52.1585 341.855 52.1698 341.502 52.1698H340.883V51.8629C340.883 51.6555 340.877 51.358 340.865 50.9782C340.853 50.6004 340.847 50.1058 340.847 49.5098V47.295C340.847 45.7813 340.866 44.4311 340.9 43.2833C340.933 42.1705 340.971 41.442 341.014 41.0602C341.247 41.0178 341.605 40.9809 342.079 40.9498C342.595 40.9159 343.101 40.8976 343.582 40.8976C345.096 40.8976 346.399 40.9676 347.456 41.1045C348.506 41.242 349.233 41.4025 349.616 41.5823C351.24 42.3818 353.005 43.9582 354.861 46.2689L354.899 46.3153L355.36 46.0847L352.958 40.2656H333.697V40.7494L333.76 40.7587C334.378 40.8503 334.889 40.9489 335.277 41.0513C335.655 41.1513 336.016 41.3828 336.354 41.741C336.482 41.869 336.585 42.0848 336.663 42.3828C336.743 42.6882 336.8 43.0395 336.834 43.4257C336.868 43.8074 336.891 44.2247 336.904 44.667C336.915 45.103 336.921 45.5335 336.921 45.9458V54.7003C336.921 55.3885 336.915 56.0697 336.904 56.7234L336.895 57.185C336.886 57.6667 336.877 58.118 336.869 58.5401C336.857 59.0766 336.852 59.5189 336.852 59.8563C336.852 60.2145 336.84 60.5918 336.817 60.977C336.794 61.3519 336.754 61.7154 336.697 62.0588C336.639 62.4056 336.575 62.712 336.508 62.9696C336.441 63.2233 336.353 63.4169 336.246 63.5449C335.93 63.905 335.525 64.1898 335.042 64.3912C334.553 64.5957 334.016 64.7459 333.447 64.8365L333.385 64.8464V65.3282H354.733L356.481 58.6643L356.5 58.5933L355.993 58.4554Z" fill="#282727"/>
<path fill-rule="evenodd" clip-rule="evenodd" d="M269.635 57.9948C269.368 58.678 269.084 59.346 268.792 59.9805C268.502 60.6081 268.141 61.1967 267.719 61.7307C267.297 62.2652 266.784 62.7435 266.196 63.1523C265.608 63.5607 264.859 63.8952 263.967 64.1459C263.591 64.2592 263.151 64.3513 262.659 64.4203C262.167 64.4893 261.679 64.5415 261.21 64.5755C260.736 64.6104 260.3 64.6336 259.911 64.6444C259.54 64.6553 259.242 64.6617 259.051 64.6617C258.602 64.6617 258.15 64.6331 257.707 64.576C257.254 64.5183 256.835 64.4489 256.461 64.3691C256.085 64.2902 255.76 64.1927 255.494 64.0789C255.236 63.9696 255.063 63.8602 254.985 63.7617C254.791 63.4513 254.675 62.9627 254.642 62.3095C254.607 61.6218 254.579 60.9125 254.557 60.2022C254.557 59.4214 254.552 58.7046 254.54 58.0731C254.529 57.4598 254.524 56.8367 254.524 56.2224V49.925C254.524 49.2186 254.529 48.5433 254.54 47.9197L254.574 45.9473C254.586 45.2675 254.603 44.5227 254.625 43.734C254.647 43.1281 254.784 42.6345 255.035 42.2676C255.286 41.8986 255.59 41.6089 255.941 41.407C256.293 41.2045 256.673 41.0558 257.071 40.9656C257.472 40.8745 257.823 40.805 258.115 40.7587L258.176 40.7484V40.2656H247.245V40.7513L247.308 40.7587C247.885 40.8267 248.442 40.9656 248.964 41.17C249.479 41.372 249.896 41.6671 250.203 42.0483C250.331 42.2006 250.428 42.4119 250.493 42.6754C250.559 42.9483 250.61 43.2651 250.643 43.6173C250.677 43.972 250.694 44.3591 250.694 44.7685V54.7003C250.694 55.3885 250.688 56.0697 250.677 56.7234C250.665 57.381 250.654 57.9859 250.643 58.5396C250.632 59.0697 250.626 59.512 250.626 59.8559C250.626 60.2184 250.609 60.5943 250.575 60.9746C250.542 61.3489 250.503 61.7144 250.457 62.0612C250.413 62.4011 250.351 62.7055 250.274 62.9666C250.199 63.2203 250.106 63.4159 250.002 63.5449C249.694 63.9031 249.266 64.1873 248.729 64.3893C248.182 64.5947 247.624 64.7449 247.069 64.8365L247.008 64.8459V65.3282H268.849L270.112 58.1391L270.123 58.0741L269.66 57.9322L269.635 57.9948Z" fill="#282727"/>
<path fill-rule="evenodd" clip-rule="evenodd" d="M293.76 52.7462C293.76 54.156 293.584 55.5869 293.237 57C292.889 58.4122 292.362 59.6998 291.67 60.8282C290.978 61.9556 290.102 62.89 289.066 63.6037C288.034 64.3151 286.8 64.6761 285.398 64.6761C283.996 64.6761 282.749 64.3484 281.693 63.7032C280.635 63.0569 279.742 62.1858 279.04 61.1144C278.335 60.0391 277.797 58.7804 277.44 57.3731C277.082 55.9619 276.9 54.4735 276.9 52.9494C276.9 51.4938 277.065 50.0334 277.39 48.6087C277.714 47.1874 278.223 45.8997 278.905 44.7825C279.586 43.6671 280.467 42.7444 281.526 42.0417C282.582 41.3409 283.85 40.9857 285.296 40.9857C286.719 40.9857 287.971 41.3409 289.016 42.0412C290.064 42.7444 290.951 43.6724 291.654 44.7999C292.356 45.9273 292.889 47.2038 293.237 48.5933C293.584 49.9842 293.76 51.3818 293.76 52.7462ZM294.799 44.0344C293.734 42.8901 292.422 41.9664 290.897 41.2883C289.372 40.6097 287.625 40.2656 285.703 40.2656C283.941 40.2656 282.24 40.5576 280.648 41.1339C279.055 41.7101 277.646 42.5475 276.458 43.6232C275.27 44.6995 274.312 46.0305 273.612 47.5797C272.911 49.129 272.556 50.9016 272.556 52.8476C272.556 54.681 272.894 56.3842 273.561 57.9107C274.227 59.4373 275.15 60.7683 276.304 61.8673C277.458 62.9657 278.822 63.8262 280.358 64.4252C281.895 65.0241 283.545 65.3282 285.262 65.3282C287.002 65.3282 288.669 65.0188 290.217 64.4083C291.767 63.7963 293.142 62.9131 294.306 61.7828C295.471 60.6496 296.405 59.2959 297.082 57.7592C297.761 56.2201 298.104 54.5223 298.104 52.7119C298.104 51.0855 297.818 49.5025 297.253 48.0078C296.687 46.5141 295.862 45.1773 294.799 44.0344Z" fill="#282727"/>
<path d="M147 76.8965H148.534V87.9056H147V76.8965Z" fill="#282727"/>
<path d="M164.772 79.4915C165.795 79.4915 166.603 79.7955 167.196 80.4037C167.799 81.0118 168.101 81.9135 168.101 83.1088V87.9056H166.628V83.2818C166.628 82.4744 166.444 81.8663 166.076 81.4574C165.718 81.0485 165.202 80.844 164.527 80.844C163.78 80.844 163.187 81.0852 162.747 81.5675C162.308 82.0393 162.088 82.7208 162.088 83.6121V87.9056H160.615V83.2818C160.615 82.4744 160.431 81.8663 160.063 81.4574C159.705 81.0485 159.189 80.844 158.514 80.844C157.767 80.844 157.174 81.0852 156.734 81.5675C156.294 82.0393 156.075 82.7208 156.075 83.6121V87.9056H154.602V79.5701H156.013V80.8126C156.31 80.3827 156.698 80.0577 157.179 79.8375C157.66 79.6068 158.207 79.4915 158.82 79.4915C159.454 79.4915 160.017 79.6225 160.508 79.8847C160.999 80.1468 161.377 80.5295 161.643 81.0328C161.95 80.5505 162.374 80.173 162.916 79.9004C163.468 79.6278 164.087 79.4915 164.772 79.4915Z" fill="#282727"/>
<path d="M184.049 79.4915C185.072 79.4915 185.88 79.7955 186.473 80.4037C187.076 81.0118 187.378 81.9135 187.378 83.1088V87.9056H185.905V83.2818C185.905 82.4744 185.721 81.8663 185.353 81.4574C184.995 81.0485 184.479 80.844 183.804 80.844C183.057 80.844 182.464 81.0852 182.024 81.5675C181.584 82.0393 181.365 82.7208 181.365 83.6121V87.9056H179.892V83.2818C179.892 82.4744 179.708 81.8663 179.34 81.4574C178.982 81.0485 178.465 80.844 177.79 80.844C177.044 80.844 176.451 81.0852 176.011 81.5675C175.571 82.0393 175.351 82.7208 175.351 83.6121V87.9056H173.879V79.5701H175.29V80.8126C175.587 80.3827 175.975 80.0577 176.456 79.8375C176.936 79.6068 177.484 79.4915 178.097 79.4915C178.731 79.4915 179.294 79.6225 179.785 79.8847C180.275 80.1468 180.654 80.5295 180.92 81.0328C181.226 80.5505 181.651 80.173 182.193 79.9004C182.745 79.6278 183.364 79.4915 184.049 79.4915Z" fill="#282727"/>
<path d="M196.682 88C195.875 88 195.149 87.8165 194.504 87.4495C193.86 87.0826 193.354 86.5793 192.986 85.9397C192.628 85.2896 192.449 84.5557 192.449 83.7379C192.449 82.9201 192.628 82.1913 192.986 81.5518C193.354 80.9017 193.86 80.3984 194.504 80.0419C195.149 79.675 195.875 79.4915 196.682 79.4915C197.49 79.4915 198.211 79.675 198.845 80.0419C199.49 80.3984 199.991 80.9017 200.349 81.5518C200.717 82.1913 200.901 82.9201 200.901 83.7379C200.901 84.5557 200.717 85.2896 200.349 85.9397C199.991 86.5793 199.49 87.0826 198.845 87.4495C198.211 87.8165 197.49 88 196.682 88ZM196.682 86.6789C197.204 86.6789 197.669 86.5583 198.078 86.3172C198.498 86.0655 198.825 85.7195 199.06 85.2792C199.295 84.8283 199.413 84.3145 199.413 83.7379C199.413 83.1612 199.295 82.6527 199.06 82.2123C198.825 81.7615 198.498 81.4155 198.078 81.1743C197.669 80.9332 197.204 80.8126 196.682 80.8126C196.161 80.8126 195.691 80.9332 195.271 81.1743C194.862 81.4155 194.535 81.7615 194.289 82.2123C194.054 82.6527 193.937 83.1612 193.937 83.7379C193.937 84.3145 194.054 84.8283 194.289 85.2792C194.535 85.7195 194.862 86.0655 195.271 86.3172C195.691 86.5583 196.161 86.6789 196.682 86.6789Z" fill="#282727"/>
<path d="M210.316 79.4915C211.103 79.4915 211.809 79.6697 212.433 80.0262C213.057 80.3827 213.543 80.8807 213.89 81.5203C214.248 82.1599 214.427 82.8991 214.427 83.7379C214.427 84.5767 214.248 85.3211 213.89 85.9712C213.543 86.6107 213.057 87.1088 212.433 87.4653C211.809 87.8218 211.103 88 210.316 88C209.713 88 209.16 87.8794 208.659 87.6383C208.158 87.3971 207.744 87.0459 207.417 86.5845V87.9056H206.006V76.2359H207.478V80.8283C207.805 80.3879 208.214 80.0577 208.705 79.8375C209.196 79.6068 209.733 79.4915 210.316 79.4915ZM210.193 86.6789C210.715 86.6789 211.18 86.5583 211.589 86.3172C212.009 86.0655 212.336 85.7195 212.571 85.2792C212.816 84.8283 212.939 84.3145 212.939 83.7379C212.939 83.1612 212.816 82.6527 212.571 82.2123C212.336 81.7615 212.009 81.4155 211.589 81.1743C211.18 80.9332 210.715 80.8126 210.193 80.8126C209.682 80.8126 209.217 80.9332 208.797 81.1743C208.378 81.4155 208.051 81.7615 207.816 82.2123C207.58 82.6527 207.463 83.1612 207.463 83.7379C207.463 84.3145 207.58 84.8283 207.816 85.2792C208.051 85.7195 208.378 86.0655 208.797 86.3172C209.217 86.5583 209.682 86.6789 210.193 86.6789Z" fill="#282727"/>
<path d="M219.53 79.5701H221.002V87.9056H219.53V79.5701ZM220.266 77.9659C219.98 77.9659 219.739 77.8716 219.545 77.6828C219.361 77.4941 219.269 77.2634 219.269 76.9908C219.269 76.7182 219.361 76.4875 219.545 76.2988C219.739 76.0996 219.98 76 220.266 76C220.552 76 220.788 76.0944 220.972 76.2831C221.166 76.4613 221.263 76.6868 221.263 76.9594C221.263 77.2425 221.166 77.4836 220.972 77.6828C220.788 77.8716 220.552 77.9659 220.266 77.9659Z" fill="#282727"/>
<path d="M226.882 76.2359H228.355V87.9056H226.882V76.2359Z" fill="#282727"/>
<path d="M234.235 79.5701H235.707V87.9056H234.235V79.5701ZM234.971 77.9659C234.684 77.9659 234.444 77.8716 234.25 77.6828C234.066 77.4941 233.974 77.2634 233.974 76.9908C233.974 76.7182 234.066 76.4875 234.25 76.2988C234.444 76.0996 234.684 76 234.971 76C235.257 76 235.492 76.0944 235.676 76.2831C235.871 76.4613 235.968 76.6868 235.968 76.9594C235.968 77.2425 235.871 77.4836 235.676 77.6828C235.492 77.8716 235.257 77.9659 234.971 77.9659Z" fill="#282727"/>
<path d="M248.935 83.7851C248.935 83.9004 248.924 84.0524 248.904 84.2412H242.308C242.4 84.9751 242.712 85.5675 243.244 86.0183C243.786 86.4587 244.455 86.6789 245.253 86.6789C246.225 86.6789 247.007 86.3434 247.6 85.6723L248.413 86.6474C248.045 87.0878 247.585 87.4233 247.032 87.654C246.49 87.8847 245.882 88 245.207 88C244.348 88 243.586 87.8218 242.921 87.4653C242.257 87.0983 241.74 86.5898 241.372 85.9397C241.014 85.2896 240.835 84.5557 240.835 83.7379C240.835 82.9305 241.009 82.2018 241.357 81.5518C241.715 80.9017 242.2 80.3984 242.814 80.0419C243.438 79.675 244.138 79.4915 244.916 79.4915C245.693 79.4915 246.383 79.675 246.986 80.0419C247.6 80.3984 248.076 80.9017 248.413 81.5518C248.761 82.2018 248.935 82.9463 248.935 83.7851ZM244.916 80.7654C244.21 80.7654 243.617 80.9856 243.136 81.426C242.666 81.8663 242.39 82.443 242.308 83.156H247.523C247.442 82.4535 247.16 81.882 246.68 81.4417C246.209 80.9908 245.621 80.7654 244.916 80.7654Z" fill="#282727"/>
<path d="M258.389 79.4915C259.422 79.4915 260.24 79.8008 260.843 80.4194C261.457 81.0275 261.763 81.924 261.763 83.1088V87.9056H260.291V83.2818C260.291 82.4744 260.102 81.8663 259.723 81.4574C259.345 81.0485 258.803 80.844 258.097 80.844C257.3 80.844 256.671 81.0852 256.21 81.5675C255.75 82.0393 255.52 82.7208 255.52 83.6121V87.9056H254.048V79.5701H255.459V80.8283C255.755 80.3984 256.154 80.0682 256.655 79.8375C257.167 79.6068 257.744 79.4915 258.389 79.4915Z" fill="#282727"/>
<path d="M271.867 79.4915C272.655 79.4915 273.36 79.6697 273.984 80.0262C274.608 80.3827 275.094 80.8807 275.441 81.5203C275.799 82.1599 275.978 82.8991 275.978 83.7379C275.978 84.5767 275.799 85.3211 275.441 85.9712C275.094 86.6107 274.608 87.1088 273.984 87.4653C273.36 87.8218 272.655 88 271.867 88C271.264 88 270.712 87.8794 270.211 87.6383C269.709 87.3971 269.295 87.0459 268.968 86.5845V87.9056H267.557V76.2359H269.029V80.8283C269.357 80.3879 269.766 80.0577 270.257 79.8375C270.747 79.6068 271.284 79.4915 271.867 79.4915ZM271.745 86.6789C272.266 86.6789 272.731 86.5583 273.14 86.3172C273.56 86.0655 273.887 85.7195 274.122 85.2792C274.368 84.8283 274.49 84.3145 274.49 83.7379C274.49 83.1612 274.368 82.6527 274.122 82.2123C273.887 81.7615 273.56 81.4155 273.14 81.1743C272.731 80.9332 272.266 80.8126 271.745 80.8126C271.233 80.8126 270.768 80.9332 270.349 81.1743C269.929 81.4155 269.602 81.7615 269.367 82.2123C269.132 82.6527 269.014 83.1612 269.014 83.7379C269.014 84.3145 269.132 84.8283 269.367 85.2792C269.602 85.7195 269.929 86.0655 270.349 86.3172C270.768 86.5583 271.233 86.6789 271.745 86.6789Z" fill="#282727"/>
<path d="M288.429 83.7851C288.429 83.9004 288.419 84.0524 288.398 84.2412H281.802C281.894 84.9751 282.206 85.5675 282.738 86.0183C283.28 86.4587 283.95 86.6789 284.747 86.6789C285.719 86.6789 286.501 86.3434 287.094 85.6723L287.907 86.6474C287.539 87.0878 287.079 87.4233 286.527 87.654C285.985 87.8847 285.376 88 284.701 88C283.842 88 283.08 87.8218 282.416 87.4653C281.751 87.0983 281.234 86.5898 280.866 85.9397C280.508 85.2896 280.329 84.5557 280.329 83.7379C280.329 82.9305 280.503 82.2018 280.851 81.5518C281.209 80.9017 281.695 80.3984 282.308 80.0419C282.932 79.675 283.633 79.4915 284.41 79.4915C285.187 79.4915 285.877 79.675 286.481 80.0419C287.094 80.3984 287.57 80.9017 287.907 81.5518C288.255 82.2018 288.429 82.9463 288.429 83.7851ZM284.41 80.7654C283.704 80.7654 283.111 80.9856 282.63 81.426C282.16 81.8663 281.884 82.443 281.802 83.156H287.018C286.936 82.4535 286.655 81.882 286.174 81.4417C285.703 80.9908 285.115 80.7654 284.41 80.7654Z" fill="#282727"/>
<path d="M294.953 80.9699C295.209 80.4875 295.587 80.1206 296.088 79.8689C296.589 79.6173 297.198 79.4915 297.914 79.4915V80.9541C297.832 80.9436 297.719 80.9384 297.576 80.9384C296.778 80.9384 296.149 81.1848 295.689 81.6776C295.239 82.1599 295.014 82.8519 295.014 83.7536V87.9056H293.542V79.5701H294.953V80.9699Z" fill="#282727"/>
<path d="M305.742 79.4915C306.867 79.4915 307.726 79.7746 308.319 80.3408C308.923 80.9069 309.224 81.751 309.224 82.8729V87.9056H307.828V86.8047C307.583 87.1927 307.23 87.4915 306.77 87.7012C306.32 87.9004 305.783 88 305.159 88C304.249 88 303.518 87.7746 302.966 87.3237C302.424 86.8729 302.153 86.2805 302.153 85.5465C302.153 84.8126 302.413 84.2254 302.935 83.7851C303.457 83.3342 304.285 83.1088 305.42 83.1088H307.752V82.81C307.752 82.1599 307.568 81.6619 307.199 81.3159C306.831 80.9699 306.289 80.7969 305.573 80.7969C305.093 80.7969 304.622 80.8807 304.162 81.0485C303.702 81.2058 303.313 81.4207 302.996 81.6933L302.383 80.5609C302.802 80.2149 303.303 79.9528 303.886 79.7746C304.469 79.5858 305.088 79.4915 305.742 79.4915ZM305.405 86.8362C305.967 86.8362 306.453 86.7104 306.862 86.4587C307.271 86.1966 307.568 85.8296 307.752 85.3578V84.194H305.481C304.234 84.194 303.61 84.6239 303.61 85.4836C303.61 85.903 303.768 86.2333 304.085 86.4744C304.402 86.7156 304.842 86.8362 305.405 86.8362Z" fill="#282727"/>
<path d="M319.589 87.4181C319.374 87.6068 319.108 87.7536 318.791 87.8585C318.474 87.9528 318.147 88 317.809 88C316.991 88 316.357 87.7746 315.907 87.3237C315.457 86.8729 315.232 86.228 315.232 85.3893V80.8126H313.852V79.5701H315.232V77.7457H316.705V79.5701H319.037V80.8126H316.705V85.3263C316.705 85.7772 316.812 86.1232 317.027 86.3644C317.252 86.6055 317.569 86.7261 317.978 86.7261C318.428 86.7261 318.812 86.595 319.129 86.3329L319.589 87.4181Z" fill="#282727"/>
<path d="M331.515 83.7851C331.515 83.9004 331.505 84.0524 331.485 84.2412H324.888C324.981 84.9751 325.292 85.5675 325.824 86.0183C326.366 86.4587 327.036 86.6789 327.834 86.6789C328.805 86.6789 329.588 86.3434 330.181 85.6723L330.994 86.6474C330.626 87.0878 330.165 87.4233 329.613 87.654C329.071 87.8847 328.463 88 327.788 88C326.929 88 326.167 87.8218 325.502 87.4653C324.837 87.0983 324.321 86.5898 323.953 85.9397C323.595 85.2896 323.416 84.5557 323.416 83.7379C323.416 82.9305 323.59 82.2018 323.937 81.5518C324.295 80.9017 324.781 80.3984 325.395 80.0419C326.019 79.675 326.719 79.4915 327.496 79.4915C328.273 79.4915 328.964 79.675 329.567 80.0419C330.181 80.3984 330.656 80.9017 330.994 81.5518C331.341 82.2018 331.515 82.9463 331.515 83.7851ZM327.496 80.7654C326.791 80.7654 326.197 80.9856 325.717 81.426C325.246 81.8663 324.97 82.443 324.888 83.156H330.104C330.022 82.4535 329.741 81.882 329.26 81.4417C328.79 80.9908 328.202 80.7654 327.496 80.7654Z" fill="#282727"/>
<path d="M338.039 80.9699C338.295 80.4875 338.673 80.1206 339.175 79.8689C339.676 79.6173 340.284 79.4915 341 79.4915V80.9541C340.918 80.9436 340.806 80.9384 340.663 80.9384C339.865 80.9384 339.236 81.1848 338.776 81.6776C338.326 82.1599 338.101 82.8519 338.101 83.7536V87.9056H336.628V79.5701H338.039V80.9699Z" fill="#282727"/>
</svg>
