<svg width="96" height="105" viewBox="0 0 96 105" fill="none" xmlns="http://www.w3.org/2000/svg">
<mask id="path-1-outside-1" maskUnits="userSpaceOnUse" x="0" y="-6" width="96" height="111" fill="black">
<rect fill="white" y="-6" width="96" height="111"/>
<path fill-rule="evenodd" clip-rule="evenodd" d="M58.2228 37.1024C58.5233 37.2998 59.0246 37.4967 59.5259 37.4967C60.127 37.4967 60.6283 37.2011 60.6283 36.4126V35.9196C60.9288 36.3138 61.0292 36.8068 61.0292 37.2011C61.0292 37.8909 60.5279 38.3839 59.726 38.3839C58.9242 38.3839 58.2228 37.5954 58.2228 37.1024ZM55.3166 41.9318C56.0174 39.8623 57.1204 39.0737 58.8238 39.0737H59.9268C61.9314 39.0737 62.5325 38.0884 63.4347 37.2011L65.4393 35.2297L59.3251 35.131C56.6191 35.131 56.0174 36.8068 55.3166 41.9318ZM42.7884 65.0945C43.2897 64.897 43.7904 64.897 44.1913 64.897C45.5948 64.897 46.3966 65.5874 48.0003 67.5582C49.5036 65.5874 50.1047 64.897 51.8087 64.897C52.2096 64.897 52.7103 64.897 53.211 65.0945C51.4078 63.2218 49.8041 62.9257 48.0003 62.9257C46.1959 62.9257 44.5922 63.2218 42.7884 65.0945ZM35.4721 71.5996C35.5725 67.0658 36.875 64.4046 41.0843 62.6301L48.0003 60.3632L54.9157 62.6301C59.125 64.4046 60.4275 67.0658 60.5279 71.5996C59.8264 70.7124 59.0246 70.3181 57.8218 70.3181C54.9157 70.3181 50.3048 75.6399 48.0003 80.766C45.6952 75.6399 41.0843 70.3181 38.1782 70.3181C36.9754 70.3181 36.1736 70.7124 35.4721 71.5996ZM34.9708 37.2011C34.9708 36.8068 35.0712 36.3138 35.3717 35.9196V36.4126C35.3717 37.2011 35.873 37.4967 36.4741 37.4967C36.9754 37.4967 37.4767 37.2998 37.7772 37.1024C37.7772 37.5954 37.0758 38.3839 36.274 38.3839C35.4721 38.3839 34.9708 37.8909 34.9708 37.2011ZM30.5614 35.2297L32.5653 37.2011C33.4675 38.0884 34.0692 39.0737 36.0732 39.0737H37.1762C38.8796 39.0737 39.982 39.8623 40.684 41.9318C39.982 36.8068 39.3809 35.131 36.6749 35.131L30.5614 35.2297ZM26.4518 42.4247C26.4518 42.0305 26.4518 41.5381 26.6526 41.1432L31.062 28.922C31.3632 28.1335 31.9643 27.3449 32.6657 27.0488L44.8934 22.3181C45.795 21.9238 46.3966 22.3181 46.6972 23.1066L48.0003 26.1621L49.3028 23.1066C49.6034 22.3181 50.2044 21.9238 51.1073 22.3181L63.3343 27.0488C64.0357 27.3449 64.6368 28.1335 64.938 28.922L69.3474 41.1432C69.5482 41.5381 69.5482 42.0305 69.5482 42.4247C69.5482 43.805 68.646 45.0859 67.1427 45.4802L63.8356 46.3675C62.0312 46.8598 61.1296 48.1414 61.1296 49.6197C61.1296 50.2115 61.2293 50.9013 61.6296 51.4924L63.1335 53.9567C63.3343 54.351 63.5344 54.844 63.5344 55.3364C63.5344 55.8294 63.3343 56.4205 63.0331 56.9135L60.6283 60.5606C60.0272 61.546 59.0246 62.039 58.0226 62.039C57.6217 62.039 57.3212 62.039 56.9202 61.8416C54.8153 60.9543 51.5082 59.4759 49.7037 57.1109L49.8041 53.3656C52.1092 51.8873 53.9131 50.9013 55.6171 50.1127C56.5193 49.7185 56.9202 49.1274 56.9202 48.5357C56.9202 47.9445 56.4189 47.3528 55.6171 46.7617C55.2162 47.8458 54.7149 48.1414 54.1138 48.1414C52.9111 48.1414 51.1073 46.2687 48.0003 46.2687C44.8934 46.2687 43.0889 48.1414 41.8862 48.1414C41.2851 48.1414 40.7838 47.8458 40.3829 46.7617C39.5811 47.3528 39.0804 47.9445 39.0804 48.5357C39.0804 49.1274 39.4813 49.7185 40.3829 50.1127C42.0869 50.9013 43.8908 51.8873 46.1959 53.3656L46.2963 57.1109C44.4924 59.4759 41.1847 60.9543 39.0804 61.8416C38.6795 62.039 38.3783 62.039 37.9774 62.039C36.9754 62.039 35.9734 61.546 35.3717 60.5606L32.9662 56.9135C32.6657 56.4205 32.4656 55.8294 32.4656 55.3364C32.4656 54.844 32.6657 54.351 32.8665 53.9567L34.3698 51.4924C34.7707 50.9013 34.871 50.2115 34.871 49.6197C34.871 48.1414 33.9688 46.8598 32.165 46.3675L28.8573 45.4802C27.354 45.0859 26.4518 43.805 26.4518 42.4247ZM6.00628 50.2115C6.00628 51.1968 5.9059 52.1828 6.50758 55.7307C7.60995 52.0841 8.81271 50.4083 11.5187 47.5503C9.31401 51.9854 9.11324 54.5478 9.11324 57.4065C9.11324 67.4601 14.6257 77.0207 22.9439 84.2157C21.2405 81.061 21.1401 78.9915 21.1401 73.1767C23.7458 83.8208 29.1578 88.6508 34.5699 92.1987C33.8685 89.8336 33.8685 88.5521 33.9688 87.0737C38.98 94.4662 44.5922 95.9445 48.0003 99C51.4078 95.9445 57.02 94.4662 62.0312 87.0737C62.1315 88.5521 62.1315 89.8336 61.4301 92.1987C66.8422 88.6508 72.2542 83.8208 74.8599 73.1767C74.8599 78.9915 74.7595 81.061 73.0555 84.2157C81.3743 77.0207 86.8868 67.4601 86.8868 57.4065C86.8868 54.5478 86.6866 51.9854 84.4807 47.5503C87.1873 50.4083 88.39 52.0841 89.4924 55.7307C90.0941 52.1828 89.9937 51.1968 89.9937 50.2115C89.9937 41.4394 85.1833 33.9482 81.5751 31.5832C83.9806 32.0756 86.9871 35.2297 88.4904 36.3138C84.9826 24.585 78.6683 18.2773 68.0449 15.2212C68.0449 13.546 68.4458 12.2645 69.2477 10.5893C68.646 10.688 68.0449 10.688 67.4426 10.688C62.7332 10.688 58.4235 8.22365 54.6145 4.37965V9.11091C52.4098 7.33638 50.7063 6.25229 48.0003 3C45.2943 6.25229 43.5902 7.33638 41.3855 9.11091V4.37965C37.5771 8.22365 33.2674 10.688 28.5568 10.688C27.9551 10.688 27.354 10.688 26.7523 10.5893C27.5542 12.2645 27.9551 13.546 27.9551 15.2212C17.3317 18.2773 11.0174 24.585 7.50957 36.3138C9.01286 35.2297 12.02 32.0756 14.4249 31.5832C10.8173 33.9482 6.00628 41.4394 6.00628 50.2115Z"/>
</mask>
<path fill-rule="evenodd" clip-rule="evenodd" d="M58.2228 37.1024C58.5233 37.2998 59.0246 37.4967 59.5259 37.4967C60.127 37.4967 60.6283 37.2011 60.6283 36.4126V35.9196C60.9288 36.3138 61.0292 36.8068 61.0292 37.2011C61.0292 37.8909 60.5279 38.3839 59.726 38.3839C58.9242 38.3839 58.2228 37.5954 58.2228 37.1024ZM55.3166 41.9318C56.0174 39.8623 57.1204 39.0737 58.8238 39.0737H59.9268C61.9314 39.0737 62.5325 38.0884 63.4347 37.2011L65.4393 35.2297L59.3251 35.131C56.6191 35.131 56.0174 36.8068 55.3166 41.9318ZM42.7884 65.0945C43.2897 64.897 43.7904 64.897 44.1913 64.897C45.5948 64.897 46.3966 65.5874 48.0003 67.5582C49.5036 65.5874 50.1047 64.897 51.8087 64.897C52.2096 64.897 52.7103 64.897 53.211 65.0945C51.4078 63.2218 49.8041 62.9257 48.0003 62.9257C46.1959 62.9257 44.5922 63.2218 42.7884 65.0945ZM35.4721 71.5996C35.5725 67.0658 36.875 64.4046 41.0843 62.6301L48.0003 60.3632L54.9157 62.6301C59.125 64.4046 60.4275 67.0658 60.5279 71.5996C59.8264 70.7124 59.0246 70.3181 57.8218 70.3181C54.9157 70.3181 50.3048 75.6399 48.0003 80.766C45.6952 75.6399 41.0843 70.3181 38.1782 70.3181C36.9754 70.3181 36.1736 70.7124 35.4721 71.5996ZM34.9708 37.2011C34.9708 36.8068 35.0712 36.3138 35.3717 35.9196V36.4126C35.3717 37.2011 35.873 37.4967 36.4741 37.4967C36.9754 37.4967 37.4767 37.2998 37.7772 37.1024C37.7772 37.5954 37.0758 38.3839 36.274 38.3839C35.4721 38.3839 34.9708 37.8909 34.9708 37.2011ZM30.5614 35.2297L32.5653 37.2011C33.4675 38.0884 34.0692 39.0737 36.0732 39.0737H37.1762C38.8796 39.0737 39.982 39.8623 40.684 41.9318C39.982 36.8068 39.3809 35.131 36.6749 35.131L30.5614 35.2297ZM26.4518 42.4247C26.4518 42.0305 26.4518 41.5381 26.6526 41.1432L31.062 28.922C31.3632 28.1335 31.9643 27.3449 32.6657 27.0488L44.8934 22.3181C45.795 21.9238 46.3966 22.3181 46.6972 23.1066L48.0003 26.1621L49.3028 23.1066C49.6034 22.3181 50.2044 21.9238 51.1073 22.3181L63.3343 27.0488C64.0357 27.3449 64.6368 28.1335 64.938 28.922L69.3474 41.1432C69.5482 41.5381 69.5482 42.0305 69.5482 42.4247C69.5482 43.805 68.646 45.0859 67.1427 45.4802L63.8356 46.3675C62.0312 46.8598 61.1296 48.1414 61.1296 49.6197C61.1296 50.2115 61.2293 50.9013 61.6296 51.4924L63.1335 53.9567C63.3343 54.351 63.5344 54.844 63.5344 55.3364C63.5344 55.8294 63.3343 56.4205 63.0331 56.9135L60.6283 60.5606C60.0272 61.546 59.0246 62.039 58.0226 62.039C57.6217 62.039 57.3212 62.039 56.9202 61.8416C54.8153 60.9543 51.5082 59.4759 49.7037 57.1109L49.8041 53.3656C52.1092 51.8873 53.9131 50.9013 55.6171 50.1127C56.5193 49.7185 56.9202 49.1274 56.9202 48.5357C56.9202 47.9445 56.4189 47.3528 55.6171 46.7617C55.2162 47.8458 54.7149 48.1414 54.1138 48.1414C52.9111 48.1414 51.1073 46.2687 48.0003 46.2687C44.8934 46.2687 43.0889 48.1414 41.8862 48.1414C41.2851 48.1414 40.7838 47.8458 40.3829 46.7617C39.5811 47.3528 39.0804 47.9445 39.0804 48.5357C39.0804 49.1274 39.4813 49.7185 40.3829 50.1127C42.0869 50.9013 43.8908 51.8873 46.1959 53.3656L46.2963 57.1109C44.4924 59.4759 41.1847 60.9543 39.0804 61.8416C38.6795 62.039 38.3783 62.039 37.9774 62.039C36.9754 62.039 35.9734 61.546 35.3717 60.5606L32.9662 56.9135C32.6657 56.4205 32.4656 55.8294 32.4656 55.3364C32.4656 54.844 32.6657 54.351 32.8665 53.9567L34.3698 51.4924C34.7707 50.9013 34.871 50.2115 34.871 49.6197C34.871 48.1414 33.9688 46.8598 32.165 46.3675L28.8573 45.4802C27.354 45.0859 26.4518 43.805 26.4518 42.4247ZM6.00628 50.2115C6.00628 51.1968 5.9059 52.1828 6.50758 55.7307C7.60995 52.0841 8.81271 50.4083 11.5187 47.5503C9.31401 51.9854 9.11324 54.5478 9.11324 57.4065C9.11324 67.4601 14.6257 77.0207 22.9439 84.2157C21.2405 81.061 21.1401 78.9915 21.1401 73.1767C23.7458 83.8208 29.1578 88.6508 34.5699 92.1987C33.8685 89.8336 33.8685 88.5521 33.9688 87.0737C38.98 94.4662 44.5922 95.9445 48.0003 99C51.4078 95.9445 57.02 94.4662 62.0312 87.0737C62.1315 88.5521 62.1315 89.8336 61.4301 92.1987C66.8422 88.6508 72.2542 83.8208 74.8599 73.1767C74.8599 78.9915 74.7595 81.061 73.0555 84.2157C81.3743 77.0207 86.8868 67.4601 86.8868 57.4065C86.8868 54.5478 86.6866 51.9854 84.4807 47.5503C87.1873 50.4083 88.39 52.0841 89.4924 55.7307C90.0941 52.1828 89.9937 51.1968 89.9937 50.2115C89.9937 41.4394 85.1833 33.9482 81.5751 31.5832C83.9806 32.0756 86.9871 35.2297 88.4904 36.3138C84.9826 24.585 78.6683 18.2773 68.0449 15.2212C68.0449 13.546 68.4458 12.2645 69.2477 10.5893C68.646 10.688 68.0449 10.688 67.4426 10.688C62.7332 10.688 58.4235 8.22365 54.6145 4.37965V9.11091C52.4098 7.33638 50.7063 6.25229 48.0003 3C45.2943 6.25229 43.5902 7.33638 41.3855 9.11091V4.37965C37.5771 8.22365 33.2674 10.688 28.5568 10.688C27.9551 10.688 27.354 10.688 26.7523 10.5893C27.5542 12.2645 27.9551 13.546 27.9551 15.2212C17.3317 18.2773 11.0174 24.585 7.50957 36.3138C9.01286 35.2297 12.02 32.0756 14.4249 31.5832C10.8173 33.9482 6.00628 41.4394 6.00628 50.2115Z" fill="#C29329"/>
<path fill-rule="evenodd" clip-rule="evenodd" d="M58.2228 37.1024C58.5233 37.2998 59.0246 37.4967 59.5259 37.4967C60.127 37.4967 60.6283 37.2011 60.6283 36.4126V35.9196C60.9288 36.3138 61.0292 36.8068 61.0292 37.2011C61.0292 37.8909 60.5279 38.3839 59.726 38.3839C58.9242 38.3839 58.2228 37.5954 58.2228 37.1024ZM55.3166 41.9318C56.0174 39.8623 57.1204 39.0737 58.8238 39.0737H59.9268C61.9314 39.0737 62.5325 38.0884 63.4347 37.2011L65.4393 35.2297L59.3251 35.131C56.6191 35.131 56.0174 36.8068 55.3166 41.9318ZM42.7884 65.0945C43.2897 64.897 43.7904 64.897 44.1913 64.897C45.5948 64.897 46.3966 65.5874 48.0003 67.5582C49.5036 65.5874 50.1047 64.897 51.8087 64.897C52.2096 64.897 52.7103 64.897 53.211 65.0945C51.4078 63.2218 49.8041 62.9257 48.0003 62.9257C46.1959 62.9257 44.5922 63.2218 42.7884 65.0945ZM35.4721 71.5996C35.5725 67.0658 36.875 64.4046 41.0843 62.6301L48.0003 60.3632L54.9157 62.6301C59.125 64.4046 60.4275 67.0658 60.5279 71.5996C59.8264 70.7124 59.0246 70.3181 57.8218 70.3181C54.9157 70.3181 50.3048 75.6399 48.0003 80.766C45.6952 75.6399 41.0843 70.3181 38.1782 70.3181C36.9754 70.3181 36.1736 70.7124 35.4721 71.5996ZM34.9708 37.2011C34.9708 36.8068 35.0712 36.3138 35.3717 35.9196V36.4126C35.3717 37.2011 35.873 37.4967 36.4741 37.4967C36.9754 37.4967 37.4767 37.2998 37.7772 37.1024C37.7772 37.5954 37.0758 38.3839 36.274 38.3839C35.4721 38.3839 34.9708 37.8909 34.9708 37.2011ZM30.5614 35.2297L32.5653 37.2011C33.4675 38.0884 34.0692 39.0737 36.0732 39.0737H37.1762C38.8796 39.0737 39.982 39.8623 40.684 41.9318C39.982 36.8068 39.3809 35.131 36.6749 35.131L30.5614 35.2297ZM26.4518 42.4247C26.4518 42.0305 26.4518 41.5381 26.6526 41.1432L31.062 28.922C31.3632 28.1335 31.9643 27.3449 32.6657 27.0488L44.8934 22.3181C45.795 21.9238 46.3966 22.3181 46.6972 23.1066L48.0003 26.1621L49.3028 23.1066C49.6034 22.3181 50.2044 21.9238 51.1073 22.3181L63.3343 27.0488C64.0357 27.3449 64.6368 28.1335 64.938 28.922L69.3474 41.1432C69.5482 41.5381 69.5482 42.0305 69.5482 42.4247C69.5482 43.805 68.646 45.0859 67.1427 45.4802L63.8356 46.3675C62.0312 46.8598 61.1296 48.1414 61.1296 49.6197C61.1296 50.2115 61.2293 50.9013 61.6296 51.4924L63.1335 53.9567C63.3343 54.351 63.5344 54.844 63.5344 55.3364C63.5344 55.8294 63.3343 56.4205 63.0331 56.9135L60.6283 60.5606C60.0272 61.546 59.0246 62.039 58.0226 62.039C57.6217 62.039 57.3212 62.039 56.9202 61.8416C54.8153 60.9543 51.5082 59.4759 49.7037 57.1109L49.8041 53.3656C52.1092 51.8873 53.9131 50.9013 55.6171 50.1127C56.5193 49.7185 56.9202 49.1274 56.9202 48.5357C56.9202 47.9445 56.4189 47.3528 55.6171 46.7617C55.2162 47.8458 54.7149 48.1414 54.1138 48.1414C52.9111 48.1414 51.1073 46.2687 48.0003 46.2687C44.8934 46.2687 43.0889 48.1414 41.8862 48.1414C41.2851 48.1414 40.7838 47.8458 40.3829 46.7617C39.5811 47.3528 39.0804 47.9445 39.0804 48.5357C39.0804 49.1274 39.4813 49.7185 40.3829 50.1127C42.0869 50.9013 43.8908 51.8873 46.1959 53.3656L46.2963 57.1109C44.4924 59.4759 41.1847 60.9543 39.0804 61.8416C38.6795 62.039 38.3783 62.039 37.9774 62.039C36.9754 62.039 35.9734 61.546 35.3717 60.5606L32.9662 56.9135C32.6657 56.4205 32.4656 55.8294 32.4656 55.3364C32.4656 54.844 32.6657 54.351 32.8665 53.9567L34.3698 51.4924C34.7707 50.9013 34.871 50.2115 34.871 49.6197C34.871 48.1414 33.9688 46.8598 32.165 46.3675L28.8573 45.4802C27.354 45.0859 26.4518 43.805 26.4518 42.4247ZM6.00628 50.2115C6.00628 51.1968 5.9059 52.1828 6.50758 55.7307C7.60995 52.0841 8.81271 50.4083 11.5187 47.5503C9.31401 51.9854 9.11324 54.5478 9.11324 57.4065C9.11324 67.4601 14.6257 77.0207 22.9439 84.2157C21.2405 81.061 21.1401 78.9915 21.1401 73.1767C23.7458 83.8208 29.1578 88.6508 34.5699 92.1987C33.8685 89.8336 33.8685 88.5521 33.9688 87.0737C38.98 94.4662 44.5922 95.9445 48.0003 99C51.4078 95.9445 57.02 94.4662 62.0312 87.0737C62.1315 88.5521 62.1315 89.8336 61.4301 92.1987C66.8422 88.6508 72.2542 83.8208 74.8599 73.1767C74.8599 78.9915 74.7595 81.061 73.0555 84.2157C81.3743 77.0207 86.8868 67.4601 86.8868 57.4065C86.8868 54.5478 86.6866 51.9854 84.4807 47.5503C87.1873 50.4083 88.39 52.0841 89.4924 55.7307C90.0941 52.1828 89.9937 51.1968 89.9937 50.2115C89.9937 41.4394 85.1833 33.9482 81.5751 31.5832C83.9806 32.0756 86.9871 35.2297 88.4904 36.3138C84.9826 24.585 78.6683 18.2773 68.0449 15.2212C68.0449 13.546 68.4458 12.2645 69.2477 10.5893C68.646 10.688 68.0449 10.688 67.4426 10.688C62.7332 10.688 58.4235 8.22365 54.6145 4.37965V9.11091C52.4098 7.33638 50.7063 6.25229 48.0003 3C45.2943 6.25229 43.5902 7.33638 41.3855 9.11091V4.37965C37.5771 8.22365 33.2674 10.688 28.5568 10.688C27.9551 10.688 27.354 10.688 26.7523 10.5893C27.5542 12.2645 27.9551 13.546 27.9551 15.2212C17.3317 18.2773 11.0174 24.585 7.50957 36.3138C9.01286 35.2297 12.02 32.0756 14.4249 31.5832C10.8173 33.9482 6.00628 41.4394 6.00628 50.2115Z" stroke="white" stroke-width="8" mask="url(#path-1-outside-1)"/>
<path d="M43.839 49.6236C44.04 49.5299 44.2417 49.4291 44.4256 49.337L44.467 49.3163C44.6764 49.2114 44.8749 49.1119 45.0841 49.0129C45.9529 48.602 46.8701 48.2687 48.0002 48.2687C49.1302 48.2687 50.0472 48.602 50.9158 49.0129C51.125 49.1119 51.3235 49.2113 51.5329 49.3163L51.5742 49.337C51.7581 49.4291 51.9598 49.5299 52.1607 49.6236C51.1123 50.2005 49.9871 50.8721 48.7243 51.682L47.9999 52.1466L47.2754 51.682C46.0126 50.8721 44.8874 50.2005 43.839 49.6236ZM71.1967 40.3761L69.0653 34.4687L70.2465 33.307L68.6368 33.281L66.8191 28.2431L66.8128 28.2257L66.8062 28.2084C66.3965 27.1355 65.501 25.7926 64.1121 25.2061L64.0841 25.1943L64.0558 25.1834L51.8622 20.4657C51.0383 20.1173 50.0451 20.0075 49.0965 20.474C48.6295 20.7036 48.272 21.0253 47.9998 21.3749C47.7276 21.0253 47.37 20.7036 46.903 20.474C45.9548 20.0077 44.9619 20.117 44.1378 20.4658L31.9439 25.1834L31.9156 25.1943L31.8876 25.2061C30.4987 25.7926 29.6032 27.1355 29.1935 28.2084L29.1869 28.2257L29.1806 28.2431L27.3629 33.281L25.7548 33.307L26.9347 34.4677L24.803 40.3761C24.4427 41.1785 24.4489 42.0293 24.4513 42.3616C24.4515 42.3853 24.4517 42.4064 24.4517 42.4246C24.4517 44.6935 25.9467 46.7816 28.3438 47.4131L31.6382 48.2968C31.6395 48.2971 31.6408 48.2975 31.6421 48.2978C32.6384 48.5711 32.8709 49.1101 32.8709 49.6197C32.8709 50.0195 32.7968 50.2482 32.7144 50.3697L32.6873 50.4096L32.6622 50.4508L31.1589 52.9151L31.1189 52.9807L31.0841 53.0491C30.8481 53.5125 30.4654 54.3549 30.4654 55.3363C30.4654 56.2968 30.8267 57.2462 31.2584 57.9544L31.2769 57.9848L31.2965 58.0145L33.6851 61.636C34.2791 62.5932 35.1165 63.2698 36.0502 63.6561C35.6628 64.0865 35.3187 64.5524 35.0181 65.058C33.9007 66.9375 33.5261 69.1344 33.4725 71.5553L33.3404 77.5207L37.0409 72.8399C37.2464 72.5799 37.3941 72.4809 37.4991 72.4307C37.6073 72.379 37.7989 72.318 38.178 72.318C38.3368 72.318 38.7759 72.4122 39.5126 72.8987C40.2121 73.3605 41.0096 74.0636 41.8391 74.97C43.4989 76.7835 45.1104 79.2163 46.1761 81.5862L48.0004 85.643L49.8243 81.586C50.8896 79.2162 52.501 76.7834 54.1607 74.9699C54.9902 74.0636 55.7877 73.3604 56.4871 72.8987C57.2238 72.4122 57.6629 72.318 57.8217 72.318C58.2008 72.318 58.3924 72.379 58.5006 72.4307C58.6056 72.4809 58.7533 72.5799 58.9588 72.8399L62.6593 77.5207L62.5272 71.5553C62.4736 69.1344 62.099 66.9375 60.9816 65.058C60.681 64.5524 60.3369 64.0865 59.9496 63.6562C60.8834 63.2699 61.721 62.5933 62.3149 61.6355L64.7027 58.0143L64.7217 57.9855L64.7398 57.956C65.173 57.2468 65.5343 56.297 65.5343 55.3363C65.5343 54.3549 65.1516 53.5125 64.9156 53.0491L64.8807 52.9805L64.8406 52.9148L63.3367 50.4505L63.312 50.41L63.2855 50.3708C63.2035 50.2497 63.1294 50.021 63.1294 49.6197C63.1294 49.1096 63.3616 48.5709 64.3585 48.2978C64.3596 48.2975 64.3608 48.2971 64.3619 48.2968L67.6499 47.4147C67.652 47.4141 67.654 47.4136 67.656 47.4131C70.0531 46.7815 71.548 44.6935 71.548 42.4246C71.548 42.4064 71.5482 42.3853 71.5484 42.3616C71.5508 42.0292 71.557 41.1785 71.1967 40.3761ZM47.9998 58.1749L48.0846 58.2861L48.0002 58.2584L47.9148 58.2864L47.9998 58.1749Z" fill="white" stroke="white" stroke-width="4"/>
<path fill-rule="evenodd" clip-rule="evenodd" d="M58.2228 37.1024C58.5233 37.2998 59.0246 37.4967 59.5259 37.4967C60.127 37.4967 60.6283 37.2011 60.6283 36.4126V35.9196C60.9288 36.3138 61.0292 36.8068 61.0292 37.2011C61.0292 37.8909 60.5279 38.3839 59.726 38.3839C58.9242 38.3839 58.2228 37.5954 58.2228 37.1024ZM55.3166 41.9318C56.0174 39.8623 57.1204 39.0737 58.8238 39.0737H59.9268C61.9314 39.0737 62.5325 38.0884 63.4347 37.2011L65.4393 35.2297L59.3251 35.131C56.6191 35.131 56.0174 36.8068 55.3166 41.9318ZM42.7884 65.0945C43.2897 64.897 43.7904 64.897 44.1913 64.897C45.5948 64.897 46.3966 65.5874 48.0003 67.5582C49.5036 65.5874 50.1047 64.897 51.8087 64.897C52.2096 64.897 52.7103 64.897 53.211 65.0945C51.4078 63.2218 49.8041 62.9257 48.0003 62.9257C46.1959 62.9257 44.5922 63.2218 42.7884 65.0945ZM35.4721 71.5996C35.5725 67.0658 36.875 64.4046 41.0843 62.6301L48.0003 60.3632L54.9157 62.6301C59.125 64.4046 60.4275 67.0658 60.5279 71.5996C59.8264 70.7124 59.0246 70.3181 57.8218 70.3181C54.9157 70.3181 50.3048 75.6399 48.0003 80.766C45.6952 75.6399 41.0843 70.3181 38.1782 70.3181C36.9754 70.3181 36.1736 70.7124 35.4721 71.5996ZM34.9708 37.2011C34.9708 36.8068 35.0712 36.3138 35.3717 35.9196V36.4126C35.3717 37.2011 35.873 37.4967 36.4741 37.4967C36.9754 37.4967 37.4767 37.2998 37.7772 37.1024C37.7772 37.5954 37.0758 38.3839 36.274 38.3839C35.4721 38.3839 34.9708 37.8909 34.9708 37.2011ZM30.5614 35.2297L32.5653 37.2011C33.4675 38.0884 34.0692 39.0737 36.0732 39.0737H37.1762C38.8796 39.0737 39.982 39.8623 40.684 41.9318C39.982 36.8068 39.3809 35.131 36.6749 35.131L30.5614 35.2297ZM26.4518 42.4247C26.4518 42.0305 26.4518 41.5381 26.6526 41.1432L31.062 28.922C31.3632 28.1335 31.9643 27.3449 32.6657 27.0488L44.8934 22.3181C45.795 21.9238 46.3966 22.3181 46.6972 23.1066L48.0003 26.1621L49.3028 23.1066C49.6034 22.3181 50.2044 21.9238 51.1073 22.3181L63.3343 27.0488C64.0357 27.3449 64.6368 28.1335 64.938 28.922L69.3474 41.1432C69.5482 41.5381 69.5482 42.0305 69.5482 42.4247C69.5482 43.805 68.646 45.0859 67.1427 45.4802L63.8356 46.3675C62.0312 46.8598 61.1296 48.1414 61.1296 49.6197C61.1296 50.2115 61.2293 50.9013 61.6296 51.4924L63.1335 53.9567C63.3343 54.351 63.5344 54.844 63.5344 55.3364C63.5344 55.8294 63.3343 56.4205 63.0331 56.9135L60.6283 60.5606C60.0272 61.546 59.0246 62.039 58.0226 62.039C57.6217 62.039 57.3212 62.039 56.9202 61.8416C54.8153 60.9543 51.5082 59.4759 49.7037 57.1109L49.8041 53.3656C52.1092 51.8873 53.9131 50.9013 55.6171 50.1127C56.5193 49.7185 56.9202 49.1274 56.9202 48.5357C56.9202 47.9445 56.4189 47.3528 55.6171 46.7617C55.2162 47.8458 54.7149 48.1414 54.1138 48.1414C52.9111 48.1414 51.1073 46.2687 48.0003 46.2687C44.8934 46.2687 43.0889 48.1414 41.8862 48.1414C41.2851 48.1414 40.7838 47.8458 40.3829 46.7617C39.5811 47.3528 39.0804 47.9445 39.0804 48.5357C39.0804 49.1274 39.4813 49.7185 40.3829 50.1127C42.0869 50.9013 43.8908 51.8873 46.1959 53.3656L46.2963 57.1109C44.4924 59.4759 41.1847 60.9543 39.0804 61.8416C38.6795 62.039 38.3783 62.039 37.9774 62.039C36.9754 62.039 35.9734 61.546 35.3717 60.5606L32.9662 56.9135C32.6657 56.4205 32.4656 55.8294 32.4656 55.3364C32.4656 54.844 32.6657 54.351 32.8665 53.9567L34.3698 51.4924C34.7707 50.9013 34.871 50.2115 34.871 49.6197C34.871 48.1414 33.9688 46.8598 32.165 46.3675L28.8573 45.4802C27.354 45.0859 26.4518 43.805 26.4518 42.4247ZM6.00628 50.2115C6.00628 51.1968 5.9059 52.1828 6.50758 55.7307C7.60995 52.0841 8.81271 50.4083 11.5187 47.5503C9.31401 51.9854 9.11324 54.5478 9.11324 57.4065C9.11324 67.4601 14.6257 77.0207 22.9439 84.2157C21.2405 81.061 21.1401 78.9915 21.1401 73.1767C23.7458 83.8208 29.1578 88.6508 34.5699 92.1987C33.8685 89.8336 33.8685 88.5521 33.9688 87.0737C38.98 94.4662 44.5922 95.9445 48.0003 99C51.4078 95.9445 57.02 94.4662 62.0312 87.0737C62.1315 88.5521 62.1315 89.8336 61.4301 92.1987C66.8422 88.6508 72.2542 83.8208 74.8599 73.1767C74.8599 78.9915 74.7595 81.061 73.0555 84.2157C81.3743 77.0207 86.8868 67.4601 86.8868 57.4065C86.8868 54.5478 86.6866 51.9854 84.4807 47.5503C87.1873 50.4083 88.39 52.0841 89.4924 55.7307C90.0941 52.1828 89.9937 51.1968 89.9937 50.2115C89.9937 41.4394 85.1833 33.9482 81.5751 31.5832C83.9806 32.0756 86.9871 35.2297 88.4904 36.3138C84.9826 24.585 78.6683 18.2773 68.0449 15.2212C68.0449 13.546 68.4458 12.2645 69.2477 10.5893C68.646 10.688 68.0449 10.688 67.4426 10.688C62.7332 10.688 58.4235 8.22365 54.6145 4.37965V9.11091C52.4098 7.33638 50.7063 6.25229 48.0003 3C45.2943 6.25229 43.5902 7.33638 41.3855 9.11091V4.37965C37.5771 8.22365 33.2674 10.688 28.5568 10.688C27.9551 10.688 27.354 10.688 26.7523 10.5893C27.5542 12.2645 27.9551 13.546 27.9551 15.2212C17.3317 18.2773 11.0174 24.585 7.50957 36.3138C9.01286 35.2297 12.02 32.0756 14.4249 31.5832C10.8173 33.9482 6.00628 41.4394 6.00628 50.2115Z" fill="#C29329"/>
<path fill-rule="evenodd" clip-rule="evenodd" d="M58.2226 37.1023C58.5231 37.2997 59.0244 37.4966 59.5257 37.4966C60.1268 37.4966 60.6281 37.201 60.6281 36.4125V35.9195C60.9286 36.3137 61.029 36.8067 61.029 37.201C61.029 37.8908 60.5277 38.3838 59.7259 38.3838C58.9241 38.3838 58.2226 37.5953 58.2226 37.1023ZM55.3164 41.9317C56.0173 39.8622 57.1202 39.0736 58.8237 39.0736H59.9267C61.9312 39.0736 62.5323 38.0883 63.4345 37.201L65.4391 35.2296L59.325 35.1309C56.6189 35.1309 56.0173 36.8067 55.3164 41.9317ZM42.7882 65.0944C43.2895 64.8969 43.7902 64.8969 44.1911 64.8969C45.5947 64.8969 46.3965 65.5874 48.0002 67.5581C49.5034 65.5874 50.1045 64.8969 51.8086 64.8969C52.2095 64.8969 52.7102 64.8969 53.2109 65.0944C51.4076 63.2217 49.804 62.9256 48.0002 62.9256C46.1957 62.9256 44.5921 63.2217 42.7882 65.0944ZM35.472 71.5995C35.5724 67.0657 36.8749 64.4045 41.0842 62.63L48.0002 60.3631L54.9155 62.63C59.1248 64.4045 60.4273 67.0657 60.5277 71.5995C59.8263 70.7123 59.0244 70.318 57.8217 70.318C54.9155 70.318 50.3047 75.6398 48.0002 80.7659C45.695 75.6398 41.0842 70.318 38.178 70.318C36.9753 70.318 36.1734 70.7123 35.472 71.5995ZM34.9707 37.201C34.9707 36.8067 35.0711 36.3137 35.3716 35.9195V36.4125C35.3716 37.201 35.8729 37.4966 36.474 37.4966C36.9753 37.4966 37.4766 37.2997 37.7771 37.1023C37.7771 37.5953 37.0756 38.3838 36.2738 38.3838C35.472 38.3838 34.9707 37.8908 34.9707 37.201ZM30.5612 35.2296L32.5652 37.201C33.4674 38.0883 34.0691 39.0736 36.073 39.0736H37.176C38.8795 39.0736 39.9818 39.8622 40.6839 41.9317C39.9818 36.8067 39.3808 35.1309 36.6747 35.1309L30.5612 35.2296ZM26.4517 42.4246C26.4517 42.0304 26.4517 41.538 26.6524 41.1431L31.0619 28.9219C31.363 28.1334 31.9641 27.3448 32.6656 27.0487L44.8932 22.318C45.7948 21.9237 46.3965 22.318 46.697 23.1065L48.0002 26.162L49.3027 23.1065C49.6032 22.318 50.2043 21.9237 51.1071 22.318L63.3341 27.0487C64.0356 27.3448 64.6367 28.1334 64.9378 28.9219L69.3473 41.1431C69.548 41.538 69.548 42.0304 69.548 42.4246C69.548 43.8049 68.6458 45.0858 67.1426 45.4801L63.8354 46.3674C62.031 46.8598 61.1294 48.1413 61.1294 49.6197C61.1294 50.2114 61.2292 50.9012 61.6295 51.4923L63.1334 53.9566C63.3341 54.3509 63.5343 54.8439 63.5343 55.3363C63.5343 55.8293 63.3341 56.4204 63.033 56.9134L60.6281 60.5605C60.027 61.5459 59.0244 62.0389 58.0225 62.0389C57.6215 62.0389 57.321 62.0389 56.9201 61.8415C54.8151 60.9542 51.508 59.4758 49.7036 57.1108L49.804 53.3655C52.1091 51.8872 53.9129 50.9012 55.617 50.1126C56.5192 49.7184 56.9201 49.1273 56.9201 48.5356C56.9201 47.9445 56.4188 47.3527 55.617 46.7616C55.216 47.8457 54.7147 48.1413 54.1137 48.1413C52.9109 48.1413 51.1071 46.2687 48.0002 46.2687C44.8932 46.2687 43.0888 48.1413 41.886 48.1413C41.285 48.1413 40.7837 47.8457 40.3827 46.7616C39.5809 47.3527 39.0802 47.9445 39.0802 48.5356C39.0802 49.1273 39.4811 49.7184 40.3827 50.1126C42.0868 50.9012 43.8906 51.8872 46.1957 53.3655L46.2961 57.1108C44.4923 59.4758 41.1846 60.9542 39.0802 61.8415C38.6793 62.0389 38.3782 62.0389 37.9772 62.0389C36.9753 62.0389 35.9733 61.5459 35.3716 60.5605L32.9661 56.9134C32.6656 56.4204 32.4654 55.8293 32.4654 55.3363C32.4654 54.8439 32.6656 54.3509 32.8663 53.9566L34.3696 51.4923C34.7705 50.9012 34.8709 50.2114 34.8709 49.6197C34.8709 48.1413 33.9687 46.8598 32.1649 46.3674L28.8572 45.4801C27.3539 45.0858 26.4517 43.8049 26.4517 42.4246Z" fill="white"/>
</svg>
