<svg width="108" height="96" viewBox="0 0 108 96" fill="none" xmlns="http://www.w3.org/2000/svg">
<path fill-rule="evenodd" clip-rule="evenodd" d="M60.3911 20.2366C60.5694 20.3537 60.8669 20.4706 61.1644 20.4706C61.521 20.4706 61.8185 20.2952 61.8185 19.8272V19.5347C61.9969 19.7687 62.0564 20.0612 62.0564 20.2952C62.0564 20.7045 61.7589 20.9971 61.2831 20.9971C60.8073 20.9971 60.3911 20.5291 60.3911 20.2366ZM58.6665 23.1024C59.0824 21.8743 59.7369 21.4064 60.7478 21.4064H61.4023C62.5918 21.4064 62.9485 20.8217 63.4839 20.2952L64.6734 19.1254L61.0452 19.0668C59.4395 19.0668 59.0824 20.0612 58.6665 23.1024ZM51.2322 36.8473C51.5297 36.7301 51.8268 36.7301 52.0647 36.7301C52.8976 36.7301 53.3734 37.1398 54.325 38.3093C55.2171 37.1398 55.5737 36.7301 56.5849 36.7301C56.8228 36.7301 57.12 36.7301 57.4171 36.8473C56.347 35.736 55.3954 35.5603 54.325 35.5603C53.2542 35.5603 52.3026 35.736 51.2322 36.8473ZM46.8907 40.7075C46.9503 38.0171 47.7232 36.4379 50.221 35.3849L54.325 34.0397L58.4286 35.3849C60.9265 36.4379 61.6994 38.0171 61.7589 40.7075C61.3427 40.181 60.8669 39.947 60.1532 39.947C58.4286 39.947 55.6925 43.105 54.325 46.1469C52.9571 43.105 50.221 39.947 48.4965 39.947C47.7828 39.947 47.3069 40.181 46.8907 40.7075ZM46.5932 20.2952C46.5932 20.0612 46.6528 19.7687 46.8311 19.5347V19.8272C46.8311 20.2952 47.1286 20.4706 47.4853 20.4706C47.7828 20.4706 48.0802 20.3537 48.2586 20.2366C48.2586 20.5291 47.8423 20.9971 47.3665 20.9971C46.8907 20.9971 46.5932 20.7045 46.5932 20.2952ZM43.9766 19.1254L45.1658 20.2952C45.7012 20.8217 46.0582 21.4064 47.2474 21.4064H47.9019C48.9127 21.4064 49.5669 21.8743 49.9835 23.1024C49.5669 20.0612 49.2102 19.0668 47.6044 19.0668L43.9766 19.1254ZM41.538 23.3949C41.538 23.161 41.538 22.8688 41.6571 22.6344L44.2737 15.3823C44.4524 14.9144 44.8091 14.4464 45.2254 14.2707L52.4813 11.4635C53.0163 11.2295 53.3734 11.4635 53.5517 11.9314L54.325 13.7445L55.0979 11.9314C55.2763 11.4635 55.6329 11.2295 56.1687 11.4635L63.4243 14.2707C63.8405 14.4464 64.1972 14.9144 64.3759 15.3823L66.9925 22.6344C67.1117 22.8688 67.1117 23.161 67.1117 23.3949C67.1117 24.214 66.5763 24.9741 65.6842 25.208L63.7218 25.7346C62.651 26.0267 62.116 26.7872 62.116 27.6645C62.116 28.0156 62.1752 28.425 62.4127 28.7757L63.3052 30.2381C63.4243 30.472 63.5431 30.7646 63.5431 31.0568C63.5431 31.3493 63.4243 31.7001 63.2456 31.9926L61.8185 34.1569C61.4618 34.7416 60.8669 35.0341 60.2723 35.0341C60.0344 35.0341 59.8561 35.0342 59.6182 34.917C58.3691 34.3905 56.4066 33.5132 55.3358 32.1098L55.3954 29.8873C56.7633 29.01 57.8337 28.425 58.8449 27.957C59.3802 27.7231 59.6182 27.3723 59.6182 27.0212C59.6182 26.6704 59.3207 26.3193 58.8449 25.9685C58.607 26.6118 58.3095 26.7872 57.9528 26.7872C57.2391 26.7872 56.1687 25.676 54.325 25.676C52.4813 25.676 51.4106 26.7872 50.6968 26.7872C50.3402 26.7872 50.0427 26.6118 49.8048 25.9685C49.329 26.3193 49.0319 26.6704 49.0319 27.0212C49.0319 27.3723 49.2698 27.7231 49.8048 27.957C50.816 28.425 51.8864 29.01 53.2542 29.8873L53.3138 32.1098C52.2434 33.5132 50.2806 34.3905 49.0319 34.917C48.7939 35.0342 48.6152 35.0341 48.3773 35.0341C47.7828 35.0341 47.1882 34.7416 46.8311 34.1569L45.4037 31.9926C45.2254 31.7001 45.1066 31.3493 45.1066 31.0568C45.1066 30.7646 45.2253 30.472 45.3445 30.2381L46.2365 28.7757C46.4745 28.425 46.534 28.0156 46.534 27.6645C46.534 26.7872 45.9986 26.0267 44.9282 25.7346L42.9654 25.208C42.0734 24.9741 41.538 24.214 41.538 23.3949ZM29.4055 28.0156C29.4055 28.6003 29.3459 29.1854 29.7029 31.2907C30.3571 29.1268 31.0708 28.1324 32.6766 26.4364C31.3683 29.0683 31.2492 30.5888 31.2492 32.2852C31.2492 38.2511 34.5203 43.9244 39.4564 48.194C38.4456 46.3219 38.386 45.0939 38.386 41.6433C39.9322 47.9596 43.1438 50.8258 46.3553 52.9311C45.9391 51.5277 45.9391 50.7672 45.9986 49.8899C48.9723 54.2767 52.3026 55.1539 54.325 56.9671C56.347 55.1539 59.6774 54.2767 62.651 49.8899C62.7106 50.7672 62.7106 51.5277 62.2943 52.9311C65.5059 50.8258 68.7174 47.9596 70.2637 41.6433C70.2637 45.0939 70.2041 46.3219 69.1929 48.194C74.1294 43.9244 77.4005 38.2511 77.4005 32.2852C77.4005 30.5888 77.2817 29.0683 75.9727 26.4364C77.5788 28.1324 78.2926 29.1268 78.9467 31.2907C79.3037 29.1854 79.2442 28.6003 79.2442 28.0156C79.2442 22.8102 76.3897 18.3649 74.2485 16.9615C75.6759 17.2536 77.4601 19.1254 78.3521 19.7687C76.2705 12.8087 72.5236 9.06564 66.2196 7.25215C66.2196 6.25808 66.4575 5.49761 66.9333 4.50353C66.5763 4.56211 66.2196 4.56211 65.8622 4.56211C63.0676 4.56211 60.5102 3.09975 58.2499 0.818694V3.62625C56.9416 2.57324 55.9308 1.92993 54.325 0C52.7192 1.92993 51.708 2.57324 50.3997 3.62625V0.818694C48.1398 3.09975 45.5824 4.56211 42.7871 4.56211C42.43 4.56211 42.0734 4.56211 41.7163 4.50353C42.1921 5.49761 42.43 6.25808 42.43 7.25215C36.1261 9.06564 32.3791 12.8087 30.2975 19.7687C31.1896 19.1254 32.9741 17.2536 34.4011 16.9615C32.2603 18.3649 29.4055 22.8102 29.4055 28.0156Z" fill="#C29329"/>
<path fill-rule="evenodd" clip-rule="evenodd" d="M60.3909 20.2365C60.5693 20.3536 60.8668 20.4704 61.1642 20.4704C61.5209 20.4704 61.8184 20.295 61.8184 19.8271V19.5346C61.9967 19.7685 62.0563 20.0611 62.0563 20.295C62.0563 20.7044 61.7588 20.9969 61.283 20.9969C60.8072 20.9969 60.3909 20.529 60.3909 20.2365ZM58.6664 23.1022C59.0823 21.8742 59.7368 21.4063 60.7476 21.4063H61.4021C62.5917 21.4063 62.9483 20.8215 63.4837 20.295L64.6733 19.1252L61.0451 19.0666C59.4393 19.0666 59.0823 20.0611 58.6664 23.1022ZM51.2321 36.8472C51.5296 36.73 51.8267 36.73 52.0646 36.73C52.8974 36.73 53.3732 37.1397 54.3249 38.3092C55.2169 37.1397 55.5736 36.73 56.5848 36.73C56.8227 36.73 57.1198 36.73 57.4169 36.8472C56.3469 35.7359 55.3953 35.5602 54.3249 35.5602C53.2541 35.5602 52.3025 35.7359 51.2321 36.8472ZM46.8906 40.7074C46.9501 38.017 47.7231 36.4378 50.2209 35.3848L54.3249 34.0396L58.4285 35.3848C60.9263 36.4378 61.6992 38.017 61.7588 40.7074C61.3426 40.1809 60.8668 39.9469 60.153 39.9469C58.4285 39.9469 55.6924 43.1049 54.3249 46.1468C52.957 43.1049 50.2209 39.9469 48.4963 39.9469C47.7826 39.9469 47.3068 40.1809 46.8906 40.7074ZM46.5931 20.295C46.5931 20.0611 46.6527 19.7685 46.831 19.5346V19.8271C46.831 20.295 47.1285 20.4704 47.4851 20.4704C47.7826 20.4704 48.0801 20.3536 48.2584 20.2365C48.2584 20.529 47.8422 20.9969 47.3664 20.9969C46.8906 20.9969 46.5931 20.7044 46.5931 20.295ZM43.9765 19.1252L45.1656 20.295C45.701 20.8215 46.0581 21.4063 47.2472 21.4063H47.9018C48.9126 21.4063 49.5667 21.8742 49.9833 23.1022C49.5667 20.0611 49.2101 19.0666 47.6043 19.0666L43.9765 19.1252ZM41.5378 23.3948C41.5378 23.1608 41.5378 22.8686 41.657 22.6343L44.2736 15.3822C44.4523 14.9142 44.809 14.4463 45.2252 14.2706L52.4812 11.4634C53.0162 11.2294 53.3732 11.4634 53.5516 11.9313L54.3249 13.7444L55.0978 11.9313C55.2761 11.4634 55.6328 11.2294 56.1686 11.4634L63.4242 14.2706C63.8404 14.4463 64.1971 14.9142 64.3758 15.3822L66.9924 22.6343C67.1115 22.8686 67.1115 23.1608 67.1115 23.3948C67.1115 24.2138 66.5762 24.974 65.6841 25.2079L63.7216 25.7344C62.6509 26.0266 62.1159 26.7871 62.1159 27.6644C62.1159 28.0155 62.1751 28.4248 62.4126 28.7756L63.305 30.238C63.4242 30.4719 63.5429 30.7645 63.5429 31.0566C63.5429 31.3492 63.4242 31.7 63.2455 31.9925L61.8184 34.1568C61.4617 34.7415 60.8668 35.034 60.2722 35.034C60.0343 35.034 59.8559 35.034 59.618 34.9169C58.3689 34.3904 56.4065 33.5131 55.3357 32.1097L55.3953 29.8872C56.7631 29.0099 57.8335 28.4248 58.8447 27.9569C59.3801 27.7229 59.618 27.3722 59.618 27.021C59.618 26.6703 59.3205 26.3192 58.8447 25.9684C58.6068 26.6117 58.3093 26.7871 57.9527 26.7871C57.2389 26.7871 56.1686 25.6758 54.3249 25.6758C52.4812 25.6758 51.4104 26.7871 50.6967 26.7871C50.34 26.7871 50.0425 26.6117 49.8046 25.9684C49.3288 26.3192 49.0317 26.6703 49.0317 27.021C49.0317 27.3722 49.2696 27.7229 49.8046 27.9569C50.8158 28.4248 51.8862 29.0099 53.2541 29.8872L53.3137 32.1097C52.2433 33.5131 50.2805 34.3904 49.0317 34.9169C48.7938 35.034 48.6151 35.034 48.3772 35.034C47.7826 35.034 47.188 34.7415 46.831 34.1568L45.4036 31.9925C45.2252 31.7 45.1064 31.3492 45.1064 31.0566C45.1064 30.7645 45.2252 30.4719 45.3443 30.238L46.2364 28.7756C46.4743 28.4248 46.5339 28.0155 46.5339 27.6644C46.5339 26.7871 45.9985 26.0266 44.9281 25.7344L42.9653 25.2079C42.0732 24.974 41.5378 24.2138 41.5378 23.3948Z" fill="white"/>
<path fill-rule="evenodd" clip-rule="evenodd" d="M40.8088 84.7365C40.5866 84.6521 40.4078 84.502 40.2763 84.2901C40.2173 84.1973 40.1795 84.0179 40.1643 83.7572C40.1489 83.4922 40.1411 83.1971 40.1411 82.8802C40.1411 82.4946 40.1382 82.1298 40.1332 81.7954C40.1279 81.4753 40.1252 81.1549 40.1252 80.8434V75.4714C40.1252 75.2963 40.1306 75.123 40.1408 74.9562C40.1511 74.7883 40.1665 74.6349 40.1876 74.4995C40.2075 74.3679 40.2376 74.264 40.2779 74.1906C40.3888 73.9794 40.5629 73.8157 40.7956 73.7042C41.0312 73.5915 41.2758 73.5178 41.5228 73.4856L41.5523 73.4816V73.2515H36.7651V73.4844L36.7971 73.4858C37.0329 73.4965 37.2732 73.5375 37.5109 73.6076C37.7425 73.6764 37.9526 73.8569 38.1343 74.1427C38.2148 74.2795 38.2631 74.4593 38.2785 74.677C38.2935 74.8912 38.3067 75.1094 38.3176 75.3248C38.3281 75.6943 38.3333 76.0109 38.3333 76.2929V78.9027H32.2062V77.2784C32.2062 76.8577 32.2087 76.4295 32.214 76.0058C32.2192 75.5558 32.227 75.1389 32.2375 74.7666C32.2476 74.5217 32.2988 74.3174 32.3895 74.1588C32.4807 73.9998 32.5932 73.8737 32.7239 73.7839C32.8565 73.6934 33.0063 73.6259 33.1688 73.5835C33.3338 73.5403 33.4907 73.5073 33.6358 73.4856L33.6646 73.4811V73.2515H28.9246V73.482L28.9543 73.4856C29.2219 73.5178 29.4645 73.5751 29.6757 73.656C29.8832 73.736 30.0602 73.8677 30.2026 74.0482C30.2618 74.1207 30.307 74.2238 30.3367 74.3543C30.3678 74.4909 30.3913 74.6438 30.4067 74.8094C30.4221 74.978 30.4299 75.162 30.4299 75.3566V80.1037C30.4299 80.4241 30.4273 80.7473 30.4221 81.0644C30.4168 81.3766 30.4116 81.6638 30.4065 81.9266C30.4013 82.1831 30.3986 82.3934 30.3986 82.5514C30.3986 82.7229 30.3933 82.9074 30.383 83.1001C30.372 83.2963 30.3593 83.4702 30.3439 83.6325C30.3285 83.7941 30.3074 83.9391 30.2817 84.0635C30.2565 84.1842 30.2245 84.2707 30.1872 84.3196C30.0656 84.4683 29.8852 84.5948 29.6507 84.6959C29.4146 84.7985 29.164 84.8724 28.9056 84.9159L28.8774 84.9203V85.1493H33.5705V84.9185L33.5401 84.9154C33.3246 84.8937 33.101 84.8336 32.8753 84.737C32.6524 84.6414 32.4778 84.5018 32.3567 84.3219C32.2771 84.2076 32.2317 84.0041 32.2216 83.7167C32.2114 83.4251 32.2062 83.116 32.2062 82.7982V79.3012H38.3333V81.8618C38.3333 82.2376 38.3279 82.6132 38.3176 82.9787C38.3176 83.1064 38.3149 83.2441 38.3098 83.3879C38.3044 83.5282 38.2966 83.666 38.2863 83.7972C38.2761 83.9263 38.2631 84.0413 38.2474 84.1395C38.2289 84.2553 38.2101 84.3032 38.1971 84.324C38.1176 84.4592 37.9488 84.5845 37.6953 84.6961C37.4387 84.809 37.1152 84.8827 36.7334 84.9154L36.7025 84.918V85.1493H41.5834V84.9189L41.5539 84.9157C41.2847 84.8827 41.0341 84.8224 40.8088 84.7365Z" fill="white"/>
<path fill-rule="evenodd" clip-rule="evenodd" d="M17.3263 73.4809V73.2515H13.6369V73.482L13.669 73.4848C13.7984 73.4953 13.9459 73.52 14.1082 73.5575C14.2696 73.5952 14.422 73.6495 14.561 73.7184C14.6994 73.7871 14.8178 73.873 14.913 73.9727C15.0052 74.0694 15.0516 74.196 15.0516 74.3495C15.0516 74.4569 15.0406 74.6264 15.019 74.8535C14.997 75.0796 14.909 75.4459 14.7571 75.9427C14.6337 76.3439 14.4982 76.7703 14.3542 77.2103L13.9101 78.5682C13.7647 79.0126 13.6155 79.4609 13.4662 79.9008C13.3222 80.3251 13.1838 80.724 13.0551 81.0866C12.9317 81.4329 12.8264 81.7357 12.7423 81.987C12.6836 82.1616 12.6374 82.2941 12.6039 82.3829C12.5265 82.1735 12.4137 81.8668 12.2657 81.4623C12.0976 81.0051 11.9067 80.4767 11.6983 79.8922C11.4881 79.3044 11.2668 78.6907 11.04 78.068C10.8081 77.4308 10.598 76.8393 10.4153 76.3095C10.2322 75.7801 10.0772 75.3181 9.95475 74.9362C9.80678 74.475 9.7756 74.3269 9.7756 74.2841C9.7756 74.1301 9.83844 74.0055 9.96812 73.9026C10.102 73.7962 10.2535 73.7126 10.4184 73.6546C10.5851 73.5959 10.7544 73.5551 10.9211 73.5335C11.0888 73.5121 11.2084 73.4955 11.2762 73.4843L11.3055 73.4795V73.2515H6.08644V73.4997L6.11998 73.5011C6.37793 73.5118 6.60164 73.547 6.78502 73.6059C6.96676 73.6644 7.12106 73.7396 7.2437 73.8297C7.36634 73.9201 7.46343 74.0137 7.53237 74.1082C7.60225 74.2044 7.65923 74.2966 7.70191 74.3814C7.85504 74.6972 7.99879 75.0237 8.1287 75.3521C8.25955 75.6835 8.40752 76.0675 8.56839 76.4939C8.32943 77.2387 8.0872 77.9636 7.84848 78.649C7.6046 79.3486 7.38346 79.9762 7.19047 80.514C6.99325 81.0645 6.82864 81.5228 6.69708 81.888C6.59789 82.1642 6.5266 82.3607 6.48345 82.4776C6.36433 82.1574 6.21518 81.7666 6.03907 81.3146C5.84163 80.8076 5.63058 80.2622 5.40593 79.6788C5.18034 79.0938 4.95358 78.4967 4.7315 77.904C4.50685 77.3046 4.3012 76.7508 4.11477 76.2436C3.93045 75.7431 3.7785 75.3088 3.66289 74.9524C3.54939 74.6031 3.4917 74.3784 3.4917 74.2841C3.4917 74.1085 3.54095 73.9683 3.63827 73.8667C3.73863 73.7619 3.8587 73.6821 3.99564 73.6299C4.134 73.5768 4.27024 73.5388 4.40016 73.517C4.52913 73.4955 4.62129 73.4848 4.67382 73.4848H4.70899V73.2515H0V73.4997L0.0335335 73.5011C0.268971 73.5118 0.463841 73.5521 0.612514 73.6208C0.762594 73.69 0.892741 73.771 0.999204 73.8612C1.10614 73.9515 1.18962 74.0451 1.24707 74.139C1.30687 74.2363 1.3533 74.3181 1.38543 74.3819C1.44733 74.5048 1.50807 74.6308 1.56599 74.7568C1.62086 74.8775 1.67316 75.0032 1.72123 75.1308C1.77071 75.2617 1.82535 75.4038 1.88585 75.5568C1.94611 75.7093 2.01459 75.8893 2.09127 76.0964C2.35461 76.7834 2.61772 77.4734 2.88083 78.1656L3.69525 80.3088C3.90348 80.857 4.11735 81.4217 4.33778 82.0028L4.56712 82.6074C4.86775 83.4015 5.19136 84.249 5.52951 85.1269L5.53795 85.1493H5.7823L6.51652 83.5231C6.70294 83.0105 6.895 82.479 7.09221 81.9278C7.2906 81.3747 7.48993 80.8107 7.68456 80.2506C7.88107 79.6863 8.08016 79.1225 8.27667 78.5738C8.45349 78.0813 8.63053 77.5812 8.80406 77.0864C9.02004 77.6614 9.23507 78.2548 9.44401 78.8519C9.6635 79.4795 9.89097 80.1255 10.1269 80.7909C10.3625 81.456 10.6092 82.1488 10.8672 82.8687C11.1207 83.5771 11.4002 84.3365 11.6983 85.1267L11.7067 85.1493H11.9185L12.6196 83.555C12.8246 82.9434 13.0516 82.2802 13.294 81.5838C13.5351 80.8915 13.7736 80.2014 14.0095 79.5142C14.2388 78.8456 14.474 78.1714 14.7085 77.5107C14.9367 76.8684 15.1414 76.2708 15.3173 75.7354C15.4259 75.4219 15.5307 75.1558 15.6287 74.945C15.7263 74.7345 15.8196 74.5598 15.9059 74.4259C15.992 74.2922 16.0684 74.186 16.1334 74.1106C16.1985 74.0349 16.2478 73.9806 16.2827 73.9452C16.3036 73.9177 16.3775 73.8544 16.6106 73.7086C16.7972 73.5919 17.0275 73.5165 17.2953 73.4846L17.3263 73.4809Z" fill="white"/>
<path fill-rule="evenodd" clip-rule="evenodd" d="M75.6574 71.4671C75.8158 71.4671 75.9532 71.4084 76.0658 71.2926H76.0657C76.1781 71.1772 76.235 71.0356 76.235 70.8723C76.235 70.7089 76.1781 70.5676 76.0658 70.452C75.9532 70.3361 75.8158 70.2773 75.6574 70.2773C75.4991 70.2773 75.3618 70.3361 75.2493 70.452C75.1369 70.5676 75.08 70.7089 75.08 70.8723C75.08 71.0358 75.1369 71.1772 75.2492 71.2926C75.3618 71.4084 75.499 71.4671 75.6574 71.4671Z" fill="white"/>
<path fill-rule="evenodd" clip-rule="evenodd" d="M72.7703 71.4671C72.9286 71.4671 73.066 71.4084 73.1784 71.2926C73.2908 71.177 73.3477 71.0354 73.3477 70.8723C73.3477 70.7092 73.2908 70.5678 73.1784 70.452C73.066 70.3361 72.9286 70.2773 72.7703 70.2773C72.612 70.2773 72.4747 70.3361 72.3621 70.452C72.2496 70.568 72.1926 70.7092 72.1926 70.8723C72.1926 71.0354 72.2496 71.1769 72.3621 71.2926C72.4747 71.4084 72.612 71.4671 72.7703 71.4671Z" fill="white"/>
<path fill-rule="evenodd" clip-rule="evenodd" d="M26.8143 79.1763C26.8143 79.846 26.7306 80.5253 26.5658 81.1957C26.4015 81.865 26.1512 82.4762 25.8222 83.013C25.494 83.5482 25.078 83.9916 24.5861 84.3307C24.0958 84.6684 23.5099 84.8398 22.8447 84.8398C22.179 84.8398 21.5872 84.6842 21.0859 84.3779C20.5837 84.0709 20.1599 83.6575 19.8264 83.1489C19.4919 82.6387 19.2366 82.0411 19.0672 81.3728C18.8971 80.7031 18.8109 79.9965 18.8109 79.2728C18.8109 78.5813 18.8891 77.888 19.0433 77.2121C19.1971 76.5374 19.439 75.9264 19.7626 75.3957C20.0856 74.866 20.5041 74.4282 21.0066 74.0946C21.5077 73.7619 22.11 73.5933 22.7966 73.5933C23.4718 73.5933 24.0662 73.7619 24.5622 74.0944C25.0596 74.4282 25.4807 74.869 25.8144 75.404C26.1486 75.9403 26.4015 76.5463 26.566 77.2048C26.7309 77.8646 26.8143 78.5282 26.8143 79.1763ZM27.3078 75.0406C26.8026 74.4976 26.1794 74.0591 25.4557 73.737C24.7316 73.4148 23.9016 73.2515 22.9893 73.2515C22.1531 73.2515 21.3458 73.3901 20.5901 73.6636C19.8337 73.9374 19.1644 74.3349 18.6007 74.8454C18.0371 75.3559 17.5825 75.988 17.2499 76.7237C16.9171 77.4596 16.7484 78.3009 16.7484 79.2244C16.7484 80.0946 16.9091 80.9031 17.2256 81.6281C17.542 82.353 17.98 82.9849 18.5281 83.5063C19.0757 84.028 19.7232 84.4365 20.4526 84.7206C21.1817 85.0049 21.965 85.1493 22.7805 85.1493C23.6064 85.1493 24.3979 85.0024 25.1327 84.7126C25.8681 84.4221 26.5209 84.0028 27.0733 83.4662C27.6264 82.9283 28.0699 82.2856 28.3915 81.5561C28.7134 80.8257 28.8768 80.0197 28.8768 79.1601C28.8768 78.3873 28.7406 77.6358 28.4725 76.9269C28.2045 76.2187 27.8125 75.5838 27.3078 75.0406Z" fill="white"/>
<path fill-rule="evenodd" clip-rule="evenodd" d="M52.0998 73.4802L52.1282 73.4846C52.6182 73.5598 52.9978 73.6926 53.2569 73.8796C53.514 74.0652 53.6955 74.3099 53.7966 74.6073C53.8777 74.8318 53.924 75.1444 53.9342 75.5366C53.9446 75.9385 53.9502 76.3591 53.9502 76.7872V82.2554L46.6391 73.2633L46.6291 73.2515H43.4246V73.4806L43.4536 73.4846C43.6185 73.5065 43.7925 73.5421 43.9703 73.5899C44.1471 73.6378 44.3136 73.7186 44.4649 73.8304C44.6152 73.941 44.748 74.0969 44.8594 74.2939C44.9707 74.4909 45.0423 74.7473 45.0724 75.0545C45.0828 75.3701 45.0882 75.6393 45.0882 75.8547V77.851C45.0882 78.576 45.0828 79.2665 45.0724 79.9032C45.0622 80.5395 45.0465 81.098 45.0261 81.5635C45.0053 82.1788 44.974 82.7175 44.9328 83.1644C44.8922 83.6038 44.7998 83.9397 44.6578 84.1635C44.5172 84.3961 44.3238 84.565 44.0831 84.6651C43.8386 84.7671 43.5902 84.8351 43.345 84.8675L43.3158 84.8714V85.1004H47.2067V84.8712L47.1774 84.8675C46.7577 84.8137 46.4239 84.7238 46.1854 84.6008C45.9498 84.4797 45.7745 84.2953 45.6642 84.0521C45.5627 83.8388 45.4984 83.5079 45.4733 83.0677C45.4474 82.6259 45.4343 82.1201 45.4343 81.5647V74.752C46.1158 75.5545 46.7708 76.3403 47.3816 77.0883C48.0136 77.8627 48.6588 78.6566 49.317 79.4684C49.975 80.281 50.667 81.1345 51.3926 82.0288C52.1124 82.9163 52.9234 83.9071 53.8041 84.9756C53.9149 85.0925 54.0142 85.1493 54.1075 85.1493C54.168 85.1493 54.2152 85.1323 54.2474 85.0983C54.2797 85.0645 54.2959 85.0205 54.2959 84.9674V83.9043C54.2959 83.5135 54.2932 83.1141 54.2881 82.7177C54.2833 82.3325 54.2806 81.9389 54.2806 81.5484V80.5011C54.2806 79.7682 54.2884 79.0776 54.3037 78.4488C54.3201 77.7944 54.338 77.2513 54.3582 76.7888C54.3788 76.2876 54.3994 75.8156 54.4205 75.374C54.4408 74.9387 54.4869 74.6376 54.5581 74.4774C54.6787 74.1702 54.8548 73.939 55.0811 73.7901C55.309 73.6411 55.6157 73.5384 55.9931 73.4846L56.0217 73.4804V73.2515H52.0998V73.4802Z" fill="white"/>
<path fill-rule="evenodd" clip-rule="evenodd" d="M93.3381 73.482L93.3702 73.4848C93.4994 73.4955 93.6471 73.52 93.8094 73.5575C93.9703 73.5952 94.1229 73.6492 94.2622 73.7184C94.4004 73.7873 94.519 73.8728 94.6145 73.9727C94.7076 74.0705 94.7528 74.1939 94.7528 74.3497C94.7528 74.4566 94.7418 74.6262 94.7202 74.8535C94.6987 75.0798 94.6105 75.4464 94.4581 75.9427C94.3375 76.3363 94.202 76.7627 94.0556 77.2103L93.6113 78.5682C93.4638 79.0184 93.3144 79.4669 93.1673 79.9008C93.021 80.3321 92.8829 80.731 92.7562 81.0866C92.631 81.4383 92.5257 81.7413 92.4436 81.987C92.3839 82.1644 92.3381 82.2953 92.3053 82.3829C92.2279 82.1735 92.1151 81.8668 91.9667 81.4627C91.7894 80.979 91.5985 80.4508 91.3992 79.8922C91.1909 79.3088 90.9714 78.7007 90.7414 78.068C90.5106 77.435 90.3005 76.8432 90.1166 76.3097C89.9309 75.7727 89.7759 75.3106 89.6561 74.9362C89.5079 74.4755 89.4767 74.3272 89.4767 74.2841C89.4767 74.1301 89.5398 74.0053 89.6692 73.9026C89.8033 73.7962 89.9548 73.7126 90.1195 73.6546C90.2864 73.5959 90.4555 73.5551 90.622 73.5335C90.7897 73.5123 90.9093 73.4958 90.9775 73.4843L91.0068 73.4795V73.2515H85.7877V73.4997L85.8212 73.5011C86.0789 73.5118 86.3026 73.547 86.4863 73.6059C86.668 73.6644 86.8223 73.7396 86.9449 73.8297C87.0676 73.9201 87.1647 74.0137 87.2336 74.1082C87.3028 74.204 87.36 74.296 87.4032 74.3812C87.5568 74.6984 87.7001 75.0249 87.8295 75.3521C87.9578 75.6756 88.1057 76.0596 88.2694 76.4939C88.0295 77.2415 87.7873 77.9664 87.5495 78.649C87.2998 79.3663 87.0845 79.9762 86.8919 80.514C86.6943 81.0647 86.5299 81.5228 86.3981 81.888C86.301 82.1577 86.2288 82.3579 86.1844 82.4779C86.0641 82.1544 85.915 81.7636 85.7403 81.3146C85.5428 80.8076 85.3313 80.2622 85.1066 79.6788C84.8811 79.0938 84.6545 78.4967 84.4324 77.904C84.2076 77.3046 84.0019 76.7508 83.8157 76.2436C83.6288 75.7354 83.4766 75.3011 83.3638 74.9524C83.2501 74.6034 83.1926 74.3789 83.1926 74.2841C83.1926 74.1085 83.2421 73.9683 83.3392 73.8667C83.4395 73.7617 83.5598 73.6821 83.6968 73.6299C83.8352 73.5768 83.9712 73.5388 84.1009 73.517C84.2298 73.4958 84.3222 73.4848 84.375 73.4848H84.4102V73.2515H79.701V73.4997L79.7344 73.5011C79.97 73.5118 80.1649 73.5521 80.3131 73.6208C80.4637 73.6905 80.5938 73.771 80.7 73.8612C80.8067 73.9515 80.8902 74.0449 80.9479 74.139C81.008 74.2366 81.0544 74.3185 81.0863 74.3819C81.1475 74.5032 81.2066 74.6257 81.2666 74.7568C81.3231 74.881 81.3752 75.0067 81.4221 75.1308C81.4716 75.2622 81.5262 75.4038 81.587 75.5568C81.647 75.7093 81.7155 75.8893 81.7926 76.0966C82.0557 76.7834 82.3186 77.4734 82.582 78.1656L83.3962 80.3088C83.6042 80.857 83.8183 81.4217 84.0387 82.0028L84.2678 82.6076C84.5614 83.3824 84.8853 84.2299 85.2305 85.1269L85.2389 85.1493H85.4835L86.2175 83.5231C86.4039 83.0105 86.5958 82.479 86.7932 81.9278C86.9916 81.3749 87.1909 80.8107 87.3856 80.2506C87.5934 79.6546 87.7871 79.1059 87.9777 78.5738C88.1585 78.0696 88.3358 77.5698 88.5051 77.0866C88.7223 77.6651 88.9375 78.2587 89.1451 78.8521C89.3646 79.4795 89.5918 80.1255 89.828 80.7909C90.0636 81.456 90.3103 82.1488 90.5681 82.8687C90.8223 83.5789 91.102 84.3386 91.3992 85.1267L91.4081 85.1493H91.6196L92.3205 83.555C92.5267 82.9404 92.7537 82.2774 92.9952 81.5838C93.2363 80.8915 93.4748 80.2017 93.7109 79.5142C93.9379 78.8526 94.1731 78.1784 94.4097 77.5107C94.6356 76.874 94.8405 76.2766 95.0185 75.7354C95.1276 75.4208 95.2324 75.1551 95.3297 74.945C95.4301 74.7296 95.5208 74.5598 95.6071 74.4259C95.6927 74.2927 95.7692 74.1867 95.8346 74.1106C95.9017 74.0328 95.9495 73.9802 95.9842 73.9452C96.0049 73.9177 96.0785 73.8546 96.3121 73.7086C96.4985 73.5919 96.7288 73.5165 96.9966 73.4846L97.0273 73.4809V73.2515H93.3381V73.482Z" fill="white"/>
<path fill-rule="evenodd" clip-rule="evenodd" d="M107.759 81.8866L107.745 81.91C107.474 82.3772 107.206 82.7823 106.95 83.1136C106.696 83.4433 106.429 83.7261 106.157 83.9543C105.887 84.1814 105.602 84.3589 105.31 84.4828C105.018 84.607 104.695 84.6919 104.348 84.7349C104.034 84.7784 103.728 84.8058 103.438 84.8165C103.155 84.8273 102.915 84.8331 102.723 84.8331C102.288 84.8331 101.88 84.7999 101.512 84.7351C101.15 84.6713 100.92 84.5661 100.827 84.422C100.732 84.2747 100.67 84.0448 100.644 83.7396C100.616 83.4298 100.597 83.0961 100.586 82.749C100.586 82.6398 100.583 82.504 100.578 82.3452C100.572 82.1878 100.569 82.0197 100.569 81.8455V79.8743C100.569 79.6005 100.579 79.3858 100.598 79.2355H101.324C101.429 79.2355 101.539 79.2383 101.652 79.2436C101.761 79.2495 101.899 79.2577 102.063 79.2684C102.388 79.2902 102.675 79.35 102.916 79.4464C103.158 79.5432 103.368 79.6685 103.539 79.8173C103.733 80.0004 103.921 80.2787 104.099 80.6449C104.278 81.012 104.412 81.3747 104.5 81.7225L104.506 81.7489H104.767V76.5041H104.505L104.499 76.5319C104.435 76.8336 104.361 77.1114 104.279 77.3579C104.197 77.5997 104.088 77.8148 103.954 77.997C103.821 78.1785 103.644 78.3354 103.429 78.4642C103.213 78.5935 102.94 78.6971 102.617 78.7724C102.475 78.8047 102.297 78.8295 102.087 78.8454C101.86 78.8627 101.65 78.876 101.446 78.8863C101.238 78.8973 101.048 78.9027 100.88 78.9027H100.586V78.757C100.586 78.6585 100.583 78.5173 100.578 78.337C100.572 78.1576 100.569 77.9229 100.569 77.6399V76.5885C100.569 75.8699 100.578 75.2289 100.594 74.684C100.61 74.1558 100.628 73.8099 100.649 73.6287C100.759 73.6086 100.929 73.591 101.154 73.5763C101.399 73.5601 101.639 73.5515 101.868 73.5515C102.586 73.5515 103.205 73.5847 103.707 73.6497C104.205 73.715 104.55 73.7912 104.732 73.8765C105.503 74.2561 106.341 75.0044 107.222 76.1014L107.24 76.1234L107.459 76.0139L106.319 73.2515H97.175V73.4811L97.2048 73.4856C97.4983 73.529 97.7407 73.5758 97.9251 73.6245C98.1046 73.6719 98.2761 73.7818 98.4361 73.9518C98.4968 74.0126 98.5461 74.1151 98.5832 74.2566C98.621 74.4015 98.6482 74.5683 98.6644 74.7516C98.6803 74.9328 98.6913 75.1309 98.6974 75.3409C98.7028 75.5479 98.7057 75.7523 98.7057 75.948V80.104C98.7057 80.4307 98.7028 80.7541 98.6974 81.0644L98.6932 81.2835C98.689 81.5122 98.6848 81.7264 98.6808 81.9268C98.6752 82.1815 98.6728 82.3915 98.6728 82.5517C98.6728 82.7217 98.6672 82.9008 98.6562 83.0837C98.6454 83.2616 98.6261 83.4342 98.5991 83.5972C98.5715 83.7619 98.5412 83.9073 98.5093 84.0296C98.4776 84.15 98.4358 84.2419 98.3852 84.3028C98.235 84.4737 98.0429 84.6089 97.8134 84.7045C97.5811 84.8016 97.3263 84.8729 97.0563 84.9159L97.0267 84.9206V85.1493H107.162L107.991 81.9858L108 81.9521L107.759 81.8866Z" fill="white"/>
<path fill-rule="evenodd" clip-rule="evenodd" d="M66.7633 81.668C66.6363 81.9923 66.5015 82.3094 66.3628 82.6106C66.2251 82.9085 66.0537 83.188 65.8534 83.4415C65.653 83.6952 65.4097 83.9223 65.1303 84.1164C64.8515 84.3102 64.4957 84.469 64.0723 84.588C63.8936 84.6418 63.6849 84.6856 63.4513 84.7183C63.2176 84.751 62.986 84.7758 62.7633 84.792C62.5386 84.8086 62.3313 84.8196 62.1466 84.8247C61.9706 84.8299 61.8292 84.8329 61.7384 84.8329C61.5255 84.8329 61.3109 84.8193 61.1003 84.7922C60.8857 84.7648 60.6868 84.7319 60.5092 84.694C60.3307 84.6566 60.1763 84.6103 60.0499 84.5562C59.9275 84.5043 59.8456 84.4524 59.8085 84.4056C59.7161 84.2583 59.6611 84.0263 59.6454 83.7163C59.6289 83.3898 59.6156 83.0531 59.6053 82.7158C59.6053 82.3452 59.6026 82.0049 59.5973 81.7051C59.592 81.414 59.5893 81.1182 59.5893 80.8266V77.837C59.5893 77.5017 59.592 77.1811 59.5973 76.885L59.6133 75.9487C59.6188 75.626 59.6268 75.2724 59.6376 74.898C59.6479 74.6104 59.7131 74.3761 59.8321 74.2018C59.9511 74.0267 60.0957 73.8892 60.2621 73.7933C60.4291 73.6972 60.6097 73.6266 60.7987 73.5838C60.9891 73.5405 61.1555 73.5075 61.2942 73.4856L61.323 73.4806V73.2515H56.1337V73.482L56.1639 73.4856C56.4379 73.5178 56.7024 73.5838 56.9503 73.6808C57.1947 73.7767 57.3926 73.9168 57.5384 74.0978C57.599 74.17 57.6453 74.2704 57.6757 74.3955C57.7073 74.525 57.7313 74.6754 57.7473 74.8426C57.7631 75.011 57.7711 75.1948 57.7711 75.3891V80.104C57.7711 80.4307 57.7684 80.7541 57.7631 81.0644C57.7576 81.3766 57.7524 81.6638 57.7473 81.9266C57.7418 82.1782 57.7391 82.3882 57.7391 82.5514C57.7391 82.7236 57.7308 82.902 57.7148 83.0825C57.6993 83.2602 57.6805 83.4338 57.659 83.5984C57.6379 83.7598 57.6086 83.9043 57.5718 84.0282C57.5361 84.1486 57.4922 84.2415 57.4427 84.3028C57.2967 84.4728 57.0935 84.6077 56.8383 84.7036C56.5788 84.8011 56.3138 84.8724 56.0504 84.9159L56.0216 84.9203V85.1493H66.3901L66.9894 81.7365L66.9949 81.7056L66.775 81.6383L66.7633 81.668Z" fill="white"/>
<path fill-rule="evenodd" clip-rule="evenodd" d="M78.2158 79.1763C78.2158 79.8456 78.1324 80.5249 77.9676 81.1957C77.8023 81.8661 77.552 82.4774 77.2237 83.013C76.8952 83.5482 76.4794 83.9918 75.9873 84.3307C75.4974 84.6684 74.9115 84.8398 74.2461 84.8398C73.5804 84.8398 72.9885 84.6842 72.4872 84.3779C71.985 84.0711 71.5611 83.6575 71.2276 83.1489C70.8932 82.6384 70.6376 82.0409 70.4684 81.3728C70.2983 80.7029 70.2119 79.9963 70.2119 79.2728C70.2119 78.5818 70.2903 77.8885 70.4446 77.2121C70.5984 76.5374 70.8402 75.9261 71.1639 75.3957C71.4869 74.8663 71.9052 74.4282 72.4079 74.0946C72.9092 73.7619 73.5114 73.5933 74.1979 73.5933C74.8732 73.5933 75.4674 73.7619 75.9637 74.0944C76.4611 74.4282 76.8824 74.8688 77.2159 75.404C77.5494 75.9392 77.8023 76.5452 77.9676 77.2048C78.1324 77.8651 78.2158 78.5286 78.2158 79.1763ZM78.7091 75.0406C78.2037 74.4974 77.5806 74.0589 76.8567 73.737C76.1328 73.4148 75.3033 73.2515 74.3907 73.2515C73.5543 73.2515 72.7471 73.3901 71.9914 73.6636C71.2352 73.9372 70.5658 74.3347 70.0019 74.8454C69.438 75.3563 68.9835 75.9882 68.6509 76.7237C68.3183 77.4591 68.1498 78.3006 68.1498 79.2244C68.1498 80.0948 68.3102 80.9034 68.6266 81.6281C68.9429 82.3527 69.381 82.9846 69.929 83.5063C70.4767 84.0278 71.1242 84.4363 71.8536 84.7206C72.5833 85.0049 73.3665 85.1493 74.1816 85.1493C75.0078 85.1493 75.7991 85.0024 76.534 84.7126C77.2696 84.4221 77.9226 84.0028 78.4751 83.4662C79.028 82.9283 79.4715 82.2856 79.7929 81.5561C80.1149 80.8255 80.2782 80.0195 80.2782 79.16C80.2782 78.3879 80.1422 77.6365 79.8738 76.9269C79.6054 76.2178 79.2139 75.5831 78.7091 75.0406Z" fill="white"/>
<path d="M8.54504 90.6414H9.27327V95.8677H8.54504V90.6414Z" fill="white"/>
<path d="M16.982 91.8733C17.4675 91.8733 17.851 92.0177 18.1326 92.3064C18.419 92.595 18.5623 93.0231 18.5623 93.5905V95.8677H17.8632V93.6727C17.8632 93.2894 17.7758 93.0007 17.601 92.8066C17.4311 92.6125 17.1859 92.5154 16.8655 92.5154C16.5111 92.5154 16.2295 92.6299 16.0208 92.8589C15.812 93.0828 15.7076 93.4064 15.7076 93.8295V95.8677H15.0085V93.6727C15.0085 93.2894 14.9211 93.0007 14.7464 92.8066C14.5765 92.6125 14.3313 92.5154 14.0109 92.5154C13.6565 92.5154 13.3749 92.6299 13.1661 92.8589C12.9574 93.0828 12.853 93.4064 12.853 93.8295V95.8677H12.1539V91.9106H12.8239V92.5005C12.9647 92.2964 13.1491 92.1421 13.3773 92.0376C13.6055 91.9281 13.8652 91.8733 14.1565 91.8733C14.4575 91.8733 14.7245 91.9355 14.9576 92.06C15.1906 92.1844 15.3702 92.3661 15.4964 92.605C15.6421 92.376 15.8436 92.1969 16.1009 92.0674C16.363 91.938 16.6567 91.8733 16.982 91.8733Z" fill="white"/>
<path d="M26.1332 91.8733C26.6186 91.8733 27.0022 92.0177 27.2838 92.3064C27.5702 92.595 27.7134 93.0231 27.7134 93.5905V95.8677H27.0143V93.6727C27.0143 93.2894 26.9269 93.0007 26.7522 92.8066C26.5822 92.6125 26.3371 92.5154 26.0166 92.5154C25.6622 92.5154 25.3807 92.6299 25.1719 92.8589C24.9632 93.0828 24.8588 93.4064 24.8588 93.8295V95.8677H24.1597V93.6727C24.1597 93.2894 24.0723 93.0007 23.8975 92.8066C23.7276 92.6125 23.4824 92.5154 23.162 92.5154C22.8076 92.5154 22.526 92.6299 22.3173 92.8589C22.1085 93.0828 22.0041 93.4064 22.0041 93.8295V95.8677H21.305V91.9106H21.975V92.5005C22.1158 92.2964 22.3003 92.1421 22.5285 92.0376C22.7566 91.9281 23.0164 91.8733 23.3077 91.8733C23.6087 91.8733 23.8757 91.9355 24.1087 92.06C24.3417 92.1844 24.5214 92.3661 24.6476 92.605C24.7932 92.376 24.9947 92.1969 25.252 92.0674C25.5142 91.938 25.8079 91.8733 26.1332 91.8733Z" fill="white"/>
<path d="M32.1306 95.9125C31.7471 95.9125 31.4024 95.8254 31.0965 95.6512C30.7907 95.477 30.5503 95.2381 30.3756 94.9345C30.2057 94.6259 30.1207 94.2774 30.1207 93.8892C30.1207 93.5009 30.2057 93.155 30.3756 92.8514C30.5503 92.5428 30.7907 92.3039 31.0965 92.1346C31.4024 91.9604 31.7471 91.8733 32.1306 91.8733C32.5141 91.8733 32.8564 91.9604 33.1574 92.1346C33.4632 92.3039 33.7011 92.5428 33.871 92.8514C34.0458 93.155 34.1332 93.5009 34.1332 93.8892C34.1332 94.2774 34.0458 94.6259 33.871 94.9345C33.7011 95.2381 33.4632 95.477 33.1574 95.6512C32.8564 95.8254 32.5141 95.9125 32.1306 95.9125ZM32.1306 95.2854C32.3782 95.2854 32.5991 95.2281 32.7933 95.1136C32.9923 94.9942 33.1477 94.8299 33.2593 94.6209C33.371 94.4068 33.4268 94.1629 33.4268 93.8892C33.4268 93.6154 33.371 93.374 33.2593 93.165C33.1477 92.9509 32.9923 92.7867 32.7933 92.6722C32.5991 92.5577 32.3782 92.5005 32.1306 92.5005C31.883 92.5005 31.6597 92.5577 31.4606 92.6722C31.2664 92.7867 31.1111 92.9509 30.9946 93.165C30.8829 93.374 30.8271 93.6154 30.8271 93.8892C30.8271 94.1629 30.8829 94.4068 30.9946 94.6209C31.1111 94.8299 31.2664 94.9942 31.4606 95.1136C31.6597 95.2281 31.883 95.2854 32.1306 95.2854Z" fill="white"/>
<path d="M38.6028 91.8733C38.9766 91.8733 39.3116 91.9579 39.6077 92.1272C39.9039 92.2964 40.1345 92.5328 40.2995 92.8365C40.4695 93.1401 40.5544 93.491 40.5544 93.8892C40.5544 94.2874 40.4695 94.6408 40.2995 94.9494C40.1345 95.253 39.9039 95.4894 39.6077 95.6587C39.3116 95.8279 38.9766 95.9125 38.6028 95.9125C38.3164 95.9125 38.0542 95.8553 37.8163 95.7408C37.5784 95.6263 37.3818 95.4596 37.2264 95.2406V95.8677H36.5565V90.3278H37.2556V92.5079C37.4109 92.2989 37.6051 92.1421 37.8382 92.0376C38.0712 91.9281 38.3261 91.8733 38.6028 91.8733ZM38.5445 95.2854C38.7921 95.2854 39.013 95.2281 39.2072 95.1136C39.4063 94.9942 39.5616 94.8299 39.6733 94.6209C39.7898 94.4068 39.848 94.1629 39.848 93.8892C39.848 93.6154 39.7898 93.374 39.6733 93.165C39.5616 92.9509 39.4063 92.7867 39.2072 92.6722C39.013 92.5577 38.7921 92.5005 38.5445 92.5005C38.3018 92.5005 38.0809 92.5577 37.8818 92.6722C37.6828 92.7867 37.5274 92.9509 37.4158 93.165C37.3041 93.374 37.2483 93.6154 37.2483 93.8892C37.2483 94.1629 37.3041 94.4068 37.4158 94.6209C37.5274 94.8299 37.6828 94.9942 37.8818 95.1136C38.0809 95.2281 38.3018 95.2854 38.5445 95.2854Z" fill="white"/>
<path d="M42.9768 91.9106H43.6759V95.8677H42.9768V91.9106ZM43.3263 91.1491C43.1904 91.1491 43.0763 91.1043 42.9841 91.0147C42.8967 90.9251 42.853 90.8156 42.853 90.6862C42.853 90.5568 42.8967 90.4473 42.9841 90.3577C43.0763 90.2631 43.1904 90.2158 43.3263 90.2158C43.4623 90.2158 43.5739 90.2606 43.6613 90.3502C43.7536 90.4348 43.7997 90.5418 43.7997 90.6713C43.7997 90.8056 43.7536 90.9201 43.6613 91.0147C43.5739 91.1043 43.4623 91.1491 43.3263 91.1491Z" fill="white"/>
<path d="M46.4671 90.3278H47.1662V95.8677H46.4671V90.3278Z" fill="white"/>
<path d="M49.9575 91.9106H50.6566V95.8677H49.9575V91.9106ZM50.307 91.1491C50.1711 91.1491 50.057 91.1043 49.9648 91.0147C49.8774 90.9251 49.8337 90.8156 49.8337 90.6862C49.8337 90.5568 49.8774 90.4473 49.9648 90.3577C50.057 90.2631 50.1711 90.2158 50.307 90.2158C50.443 90.2158 50.5546 90.2606 50.642 90.3502C50.7343 90.4348 50.7804 90.5418 50.7804 90.6713C50.7804 90.8056 50.7343 90.9201 50.642 91.0147C50.5546 91.1043 50.443 91.1491 50.307 91.1491Z" fill="white"/>
<path d="M56.936 93.9116C56.936 93.9663 56.9312 94.0385 56.9215 94.1281H53.7901C53.8338 94.4765 53.9819 94.7578 54.2343 94.9718C54.4916 95.1808 54.8096 95.2854 55.1883 95.2854C55.6495 95.2854 56.0209 95.1261 56.3025 94.8075L56.6884 95.2704C56.5137 95.4795 56.2952 95.6388 56.033 95.7483C55.7757 95.8578 55.4869 95.9125 55.1664 95.9125C54.7586 95.9125 54.3969 95.8279 54.0814 95.6587C53.7658 95.4845 53.5207 95.2431 53.3459 94.9345C53.176 94.6259 53.091 94.2774 53.091 93.8892C53.091 93.5059 53.1735 93.16 53.3386 92.8514C53.5085 92.5428 53.7391 92.3039 54.0304 92.1346C54.3266 91.9604 54.6591 91.8733 55.0281 91.8733C55.397 91.8733 55.7247 91.9604 56.0112 92.1346C56.3025 92.3039 56.5282 92.5428 56.6884 92.8514C56.8535 93.16 56.936 93.5134 56.936 93.9116ZM55.0281 92.4781C54.6931 92.4781 54.4115 92.5826 54.1833 92.7917C53.96 93.0007 53.8289 93.2745 53.7901 93.6129H56.2661C56.2272 93.2794 56.0937 93.0082 55.8655 92.7991C55.6422 92.5851 55.3631 92.4781 55.0281 92.4781Z" fill="white"/>
<path d="M61.4241 91.8733C61.9144 91.8733 62.3028 92.0202 62.5892 92.3138C62.8805 92.6025 63.0262 93.0281 63.0262 93.5905V95.8677H62.3271V93.6727C62.3271 93.2894 62.2373 93.0007 62.0576 92.8066C61.878 92.6125 61.6207 92.5154 61.2857 92.5154C60.9071 92.5154 60.6085 92.6299 60.39 92.8589C60.1715 93.0828 60.0623 93.4064 60.0623 93.8295V95.8677H59.3632V91.9106H60.0332V92.5079C60.174 92.3039 60.3633 92.1471 60.6012 92.0376C60.8439 91.9281 61.1182 91.8733 61.4241 91.8733Z" fill="white"/>
<path d="M67.8227 91.8733C68.1965 91.8733 68.5315 91.9579 68.8277 92.1272C69.1238 92.2964 69.3544 92.5328 69.5195 92.8365C69.6894 93.1401 69.7744 93.491 69.7744 93.8892C69.7744 94.2874 69.6894 94.6408 69.5195 94.9494C69.3544 95.253 69.1238 95.4894 68.8277 95.6587C68.5315 95.8279 68.1965 95.9125 67.8227 95.9125C67.5363 95.9125 67.2741 95.8553 67.0362 95.7408C66.7984 95.6263 66.6017 95.4596 66.4464 95.2406V95.8677H65.7764V90.3278H66.4755V92.5079C66.6309 92.2989 66.8251 92.1421 67.0581 92.0376C67.2911 91.9281 67.546 91.8733 67.8227 91.8733ZM67.7645 95.2854C68.0121 95.2854 68.233 95.2281 68.4272 95.1136C68.6262 94.9942 68.7816 94.8299 68.8932 94.6209C69.0097 94.4068 69.068 94.1629 69.068 93.8892C69.068 93.6154 69.0097 93.374 68.8932 93.165C68.7816 92.9509 68.6262 92.7867 68.4272 92.6722C68.233 92.5577 68.0121 92.5005 67.7645 92.5005C67.5217 92.5005 67.3008 92.5577 67.1018 92.6722C66.9027 92.7867 66.7474 92.9509 66.6357 93.165C66.5241 93.374 66.4682 93.6154 66.4682 93.8892C66.4682 94.1629 66.5241 94.4068 66.6357 94.6209C66.7474 94.8299 66.9027 94.9942 67.1018 95.1136C67.3008 95.2281 67.5217 95.2854 67.7645 95.2854Z" fill="white"/>
<path d="M75.6849 93.9116C75.6849 93.9663 75.6801 94.0385 75.6704 94.1281H72.539C72.5827 94.4765 72.7308 94.7578 72.9832 94.9718C73.2405 95.1808 73.5585 95.2854 73.9372 95.2854C74.3984 95.2854 74.7698 95.1261 75.0514 94.8075L75.4373 95.2704C75.2626 95.4795 75.0441 95.6388 74.7819 95.7483C74.5246 95.8578 74.2358 95.9125 73.9153 95.9125C73.5075 95.9125 73.1459 95.8279 72.8303 95.6587C72.5147 95.4845 72.2696 95.2431 72.0948 94.9345C71.9249 94.6259 71.8399 94.2774 71.8399 93.8892C71.8399 93.5059 71.9224 93.16 72.0875 92.8514C72.2574 92.5428 72.488 92.3039 72.7793 92.1346C73.0755 91.9604 73.408 91.8733 73.777 91.8733C74.1459 91.8733 74.4736 91.9604 74.7601 92.1346C75.0514 92.3039 75.2771 92.5428 75.4373 92.8514C75.6024 93.16 75.6849 93.5134 75.6849 93.9116ZM73.777 92.4781C73.442 92.4781 73.1604 92.5826 72.9322 92.7917C72.7089 93.0007 72.5778 93.2745 72.539 93.6129H75.015C74.9761 93.2794 74.8426 93.0082 74.6144 92.7991C74.3911 92.5851 74.112 92.4781 73.777 92.4781Z" fill="white"/>
<path d="M78.7821 92.5751C78.9035 92.3462 79.0831 92.172 79.321 92.0525C79.5589 91.933 79.8477 91.8733 80.1876 91.8733V92.5677C80.1487 92.5627 80.0953 92.5602 80.0274 92.5602C79.6487 92.5602 79.3501 92.6772 79.1316 92.9111C78.918 93.1401 78.8112 93.4686 78.8112 93.8967V95.8677H78.1121V91.9106H78.7821V92.5751Z" fill="white"/>
<path d="M83.904 91.8733C84.438 91.8733 84.8458 92.0077 85.1274 92.2765C85.4138 92.5453 85.5571 92.946 85.5571 93.4785V95.8677H84.8944V95.3451C84.7779 95.5293 84.6104 95.6711 84.3919 95.7707C84.1783 95.8652 83.9234 95.9125 83.6273 95.9125C83.1952 95.9125 82.8481 95.8055 82.5859 95.5915C82.3286 95.3774 82.2 95.0962 82.2 94.7478C82.2 94.3994 82.3238 94.1206 82.5714 93.9116C82.8189 93.6976 83.2122 93.5905 83.7511 93.5905H84.858V93.4487C84.858 93.1401 84.7706 92.9037 84.5958 92.7394C84.421 92.5751 84.1637 92.493 83.8239 92.493C83.5957 92.493 83.3724 92.5328 83.1539 92.6125C82.9355 92.6871 82.751 92.7892 82.6005 92.9186L82.3092 92.381C82.5082 92.2168 82.7461 92.0923 83.0229 92.0077C83.2996 91.9181 83.5933 91.8733 83.904 91.8733ZM83.7438 95.36C84.0108 95.36 84.2414 95.3003 84.4356 95.1808C84.6298 95.0564 84.7706 94.8822 84.858 94.6582V94.1057H83.7802C83.1879 94.1057 82.8918 94.3098 82.8918 94.7179C82.8918 94.917 82.967 95.0738 83.1175 95.1883C83.268 95.3028 83.4768 95.36 83.7438 95.36Z" fill="white"/>
<path d="M90.4773 95.6363C90.3754 95.7259 90.2492 95.7956 90.0987 95.8453C89.9482 95.8901 89.7928 95.9125 89.6326 95.9125C89.2442 95.9125 88.9432 95.8055 88.7296 95.5915C88.516 95.3774 88.4092 95.0713 88.4092 94.6731V92.5005H87.7538V91.9106H88.4092V91.0446H89.1083V91.9106H90.2152V92.5005H89.1083V94.6433C89.1083 94.8573 89.1593 95.0216 89.2612 95.136C89.368 95.2505 89.5185 95.3078 89.7127 95.3078C89.9263 95.3078 90.1084 95.2455 90.2589 95.1211L90.4773 95.6363Z" fill="white"/>
<path d="M96.1392 93.9116C96.1392 93.9663 96.1343 94.0385 96.1246 94.1281H92.9932C93.0369 94.4765 93.185 94.7578 93.4375 94.9718C93.6948 95.1808 94.0128 95.2854 94.3914 95.2854C94.8526 95.2854 95.224 95.1261 95.5056 94.8075L95.8916 95.2704C95.7168 95.4795 95.4983 95.6388 95.2362 95.7483C94.9789 95.8578 94.69 95.9125 94.3696 95.9125C93.9618 95.9125 93.6001 95.8279 93.2845 95.6587C92.969 95.4845 92.7238 95.2431 92.549 94.9345C92.3791 94.6259 92.2942 94.2774 92.2942 93.8892C92.2942 93.5059 92.3767 93.16 92.5417 92.8514C92.7117 92.5428 92.9423 92.3039 93.2336 92.1346C93.5297 91.9604 93.8623 91.8733 94.2312 91.8733C94.6002 91.8733 94.9279 91.9604 95.2143 92.1346C95.5056 92.3039 95.7314 92.5428 95.8916 92.8514C96.0566 93.16 96.1392 93.5134 96.1392 93.9116ZM94.2312 92.4781C93.8962 92.4781 93.6147 92.5826 93.3865 92.7917C93.1632 93.0007 93.0321 93.2745 92.9932 93.6129H95.4692C95.4304 93.2794 95.2969 93.0082 95.0687 92.7991C94.8454 92.5851 94.5662 92.4781 94.2312 92.4781Z" fill="white"/>
<path d="M99.2363 92.5751C99.3577 92.3462 99.5373 92.172 99.7752 92.0525C100.013 91.933 100.302 91.8733 100.642 91.8733V92.5677C100.603 92.5627 100.55 92.5602 100.482 92.5602C100.103 92.5602 99.8043 92.6772 99.5859 92.9111C99.3723 93.1401 99.2655 93.4686 99.2655 93.8967V95.8677H98.5664V91.9106H99.2363V92.5751Z" fill="white"/>
</svg>
