<svg width="22px" height="22px" viewBox="0 0 22 22" fill="none" xmlns="http://www.w3.org/2000/svg">
<path fill-rule="evenodd" clip-rule="evenodd" d="M21 10.4445C21.0038 11.911 20.6612 13.3577 20 14.6667C18.4011 17.866 15.1321 19.8875 11.5556 19.8889C10.089 19.8927 8.64235 19.5501 7.33333 18.8889L1 21L3.11111 14.6667C2.44992 13.3577 2.10729 11.911 2.11111 10.4445C2.1125 6.86791 4.13408 3.59897 7.33333 2.00003C8.64235 1.33884 10.089 0.996208 11.5556 1.00003H12.1111C16.9065 1.26459 20.7354 5.09358 21 9.88892V10.4445V10.4445Z" stroke="#0D21DA" stroke-width="2" stroke-linecap="round" stroke-linejoin="round"/>
<path d="M5.3335 10.1667C5.3335 9.80228 5.63578 9.5 6.00016 9.5C6.36454 9.5 6.66683 9.80228 6.66683 10.1667C6.66683 10.531 6.36454 10.8333 6.00016 10.8333C5.63578 10.8333 5.3335 10.531 5.3335 10.1667Z" stroke="#0D21DA" stroke-width="2"/>
<path d="M16.1665 10.1667C16.1665 9.80228 16.4688 9.5 16.8332 9.5C17.1976 9.5 17.4998 9.80228 17.4998 10.1667C17.4998 10.531 17.1976 10.8333 16.8332 10.8333C16.4688 10.8333 16.1665 10.531 16.1665 10.1667Z" stroke="#0D21DA" stroke-width="2"/>
<path d="M10.75 10.1667C10.75 9.80228 11.0523 9.5 11.4167 9.5C11.781 9.5 12.0833 9.80228 12.0833 10.1667C12.0833 10.531 11.781 10.8333 11.4167 10.8333C11.0523 10.8333 10.75 10.531 10.75 10.1667Z" stroke="#0D21DA" stroke-width="2"/>
</svg>
