<svg width="22px" height="22px" viewBox="0 0 22 22" fill="none" xmlns="http://www.w3.org/2000/svg">
<path d="M13.5792 3.84102C13.0371 3.73546 12.5121 4.08934 12.4065 4.63144C12.3009 5.17354 12.6548 5.69858 13.1969 5.80414L13.5792 3.84102ZM16.1887 8.78925C16.2946 9.33128 16.8199 9.68479 17.362 9.57883C17.904 9.47288 18.2575 8.94759 18.1515 8.40556L16.1887 8.78925ZM13.4983 0.00609106C12.9493 -0.0547731 12.455 0.340875 12.3942 0.889796C12.3333 1.43872 12.7289 1.93304 13.2779 1.99391L13.4983 0.00609106ZM20.0063 8.69975C20.0681 9.24857 20.5631 9.64338 21.1119 9.5816C21.6607 9.51981 22.0556 9.02482 21.9938 8.476L20.0063 8.69975ZM20.0425 19.0809H19.0425L19.0425 19.085L20.0425 19.0809ZM17.9552 20.9922L17.8474 21.9864C17.8534 21.9871 17.8594 21.9876 17.8654 21.9882L17.9552 20.9922ZM9.69214 18.0584L10.2355 17.2189L10.2277 17.2139L9.69214 18.0584ZM3.94725 12.3245L4.79083 11.7874L4.78605 11.78L3.94725 12.3245ZM1.00778 4.03897L0.0118521 4.12914C0.0123242 4.13435 0.0128371 4.13956 0.0133909 4.14477L1.00778 4.03897ZM2.91317 1.95565V0.955648L2.91223 0.955649L2.91317 1.95565ZM5.78561 1.95565V2.9557L5.79544 2.9556L5.78561 1.95565ZM7.70058 3.59937L8.692 3.46836L8.6907 3.45916L7.70058 3.59937ZM8.37081 6.28475L7.43413 6.63494L7.43498 6.6372L8.37081 6.28475ZM7.93995 8.30118L8.64639 9.00897L8.65033 9.005L7.93995 8.30118ZM6.72394 9.51485L6.01751 8.80707C5.69843 9.12555 5.6319 9.61815 5.85506 10.0099L6.72394 9.51485ZM12.4688 15.2488L11.9753 16.1185C12.3662 16.3403 12.8571 16.2741 13.1753 15.9565L12.4688 15.2488ZM13.6848 14.0351L12.9824 13.3234L12.9784 13.3273L13.6848 14.0351ZM15.7051 13.605L15.3539 14.5413L15.3561 14.5422L15.7051 13.605ZM18.3956 14.274L18.5351 13.2837L18.5262 13.2826L18.3956 14.274ZM20.0425 16.214L19.0428 16.1891C19.0426 16.1974 19.0425 16.2057 19.0425 16.214H20.0425ZM13.1969 5.80414C14.7113 6.09904 15.8937 7.28038 16.1887 8.78925L18.1515 8.40556C17.7 6.09567 15.8909 4.29118 13.5792 3.84102L13.1969 5.80414ZM13.2779 1.99391C16.8166 2.38628 19.6091 5.1717 20.0063 8.69975L21.9938 8.476C21.4917 4.01679 17.9632 0.501166 13.4983 0.00609106L13.2779 1.99391ZM19.0425 19.085C19.0436 19.3409 18.9365 19.5859 18.7468 19.7596L20.0975 21.2346C20.7025 20.6806 21.0458 19.8973 21.0425 19.0769L19.0425 19.085ZM18.7468 19.7596C18.5571 19.9333 18.3023 20.0195 18.045 19.9963L17.8654 21.9882C18.6822 22.0619 19.4926 21.7885 20.0975 21.2346L18.7468 19.7596ZM18.063 19.9981C15.2719 19.6954 12.5909 18.7434 10.2355 17.2189L9.14877 18.8979C11.7665 20.5922 14.7459 21.65 17.8474 21.9864L18.063 19.9981ZM10.2277 17.2139C8.03816 15.8252 6.18194 13.9725 4.7908 11.7874L3.1037 12.8615C4.65266 15.2945 6.71924 17.3571 9.15655 18.9029L10.2277 17.2139ZM4.78605 11.78C3.25347 9.4188 2.2998 6.73058 2.00217 3.93317L0.0133909 4.14477C0.344329 7.25519 1.40469 10.2439 3.10844 12.8689L4.78605 11.78ZM2.0037 3.9488C1.9807 3.69469 2.0657 3.44229 2.23857 3.25326L0.762741 1.90348C0.210817 2.50694 -0.0618978 3.31459 0.0118521 4.12914L2.0037 3.9488ZM2.23857 3.25326C2.41153 3.06416 2.65661 2.95589 2.91411 2.95565L2.91223 0.955649C2.09465 0.956418 1.31459 1.3001 0.762741 1.90348L2.23857 3.25326ZM2.91317 2.95565H5.78561V0.955649H2.91317V2.95565ZM5.79544 2.9556C6.25625 2.95107 6.6465 3.28797 6.71046 3.73958L8.6907 3.45916C8.4856 2.01087 7.23734 0.94134 5.77579 0.955697L5.79544 2.9556ZM6.70919 3.73037C6.84033 4.72277 7.08353 5.69716 7.43414 6.63494L9.30749 5.93456C9.00979 5.13827 8.8033 4.31095 8.69196 3.46837L6.70919 3.73037ZM7.43498 6.6372C7.56011 6.96944 7.48032 7.34427 7.22957 7.59736L8.65033 9.005C9.45092 8.19694 9.70763 6.99699 9.30664 5.9323L7.43498 6.6372ZM7.23352 7.59339L6.01751 8.80707L7.43037 10.2226L8.64638 9.00896L7.23352 7.59339ZM5.85506 10.0099C7.30728 12.5589 9.42177 14.6693 11.9753 16.1185L12.9624 14.3791C10.7217 13.1074 8.86667 11.2558 7.59283 9.01985L5.85506 10.0099ZM13.1753 15.9565L14.3913 14.7429L12.9784 13.3273L11.7624 14.541L13.1753 15.9565ZM14.3873 14.7468C14.6412 14.4962 15.0187 14.4156 15.3539 14.5413L16.0564 12.6688C14.9919 12.2694 13.7917 12.5246 12.9824 13.3234L14.3873 14.7468ZM15.3561 14.5422C16.2954 14.892 17.2713 15.1346 18.2651 15.2654L18.5262 13.2826C17.6815 13.1714 16.8523 12.9652 16.0541 12.6679L15.3561 14.5422ZM18.2562 15.2642C18.7176 15.3292 19.0543 15.7281 19.0428 16.1891L21.0422 16.2388C21.079 14.7594 19.9993 13.4899 18.5351 13.2838L18.2562 15.2642ZM19.0425 16.214V19.0809H21.0425V16.214H19.0425Z" fill="#0D21DA"/>
</svg>
