<svg width="22" height="22" viewBox="0 0 22 22" fill="none" xmlns="http://www.w3.org/2000/svg">
<path d="M13.3881 4.82257L13.5792 3.84101C13.1474 3.75692 12.7114 3.96489 12.505 4.35337C12.2986 4.74185 12.3703 5.21959 12.6816 5.53035L13.3881 4.82257ZM17.1701 8.5974L16.4637 9.30518C16.7749 9.61579 17.2525 9.68668 17.6405 9.47987C18.0285 9.27306 18.2359 8.83707 18.1515 8.40555L17.1701 8.5974ZM13.3881 1L13.4983 0.00609106C13.0759 -0.0407389 12.6701 0.184465 12.4864 0.567629C12.3026 0.950794 12.3811 1.40823 12.6821 1.70823L13.3881 1ZM21 8.58788L20.2941 9.2961C20.5948 9.59591 21.0521 9.67306 21.4346 9.48852C21.8171 9.30398 22.0413 8.898 21.9938 8.476L21 8.58788ZM20.0425 19.0809H19.0425L19.0425 19.085L20.0425 19.0809ZM19.4221 20.4971L18.7468 19.7596L18.7468 19.7596L19.4221 20.4971ZM17.9552 20.9922L17.8474 21.9864C17.8534 21.9871 17.8594 21.9877 17.8654 21.9882L17.9552 20.9922ZM9.69214 18.0584L10.2355 17.2189L10.2277 17.2139L9.69214 18.0584ZM3.94725 12.3245L4.79083 11.7874L4.78605 11.78L3.94725 12.3245ZM1.00778 4.03898L0.0118521 4.12915C0.0123242 4.13437 0.0128371 4.13958 0.0133909 4.14478L1.00778 4.03898ZM1.50066 2.57838L2.23857 3.25328L1.50066 2.57838ZM2.91317 1.95566V0.95566L2.91223 0.955661L2.91317 1.95566ZM5.78561 1.95566V2.95571L5.79544 2.95561L5.78561 1.95566ZM7.70058 3.59938L8.692 3.46837L8.6907 3.45917L7.70058 3.59938ZM8.37081 6.28476L7.43413 6.63496L7.43498 6.63721L8.37081 6.28476ZM7.93995 8.30119L8.64639 9.00898L8.65033 9.00501L7.93995 8.30119ZM6.72394 9.51487L6.01751 8.80708C5.69843 9.12556 5.6319 9.61816 5.85506 10.0099L6.72394 9.51487ZM12.4688 15.2488L11.9753 16.1185C12.3662 16.3403 12.8571 16.2741 13.1753 15.9566L12.4688 15.2488ZM13.6848 14.0351L12.9824 13.3234L12.9784 13.3273L13.6848 14.0351ZM15.7051 13.6051L15.3539 14.5413L15.3561 14.5422L15.7051 13.6051ZM18.3956 14.274L18.5351 13.2837L18.5262 13.2826L18.3956 14.274ZM20.0425 16.214L19.0428 16.1891C19.0426 16.1974 19.0425 16.2057 19.0425 16.214H20.0425ZM13.1969 5.80413C14.7113 6.09903 15.8937 7.28037 16.1887 8.78924L18.1515 8.40555C17.7 6.09566 15.8909 4.29117 13.5792 3.84101L13.1969 5.80413ZM17.8765 7.88961L14.0945 4.11479L12.6816 5.53035L16.4637 9.30518L17.8765 7.88961ZM13.2779 1.99391C16.8166 2.38628 19.6091 5.1717 20.0063 8.69975L21.9938 8.476C21.4917 4.01679 17.9632 0.501166 13.4983 0.00609106L13.2779 1.99391ZM21.706 7.87965L14.094 0.291773L12.6821 1.70823L20.2941 9.2961L21.706 7.87965ZM19.0425 19.085C19.0436 19.3409 18.9365 19.5859 18.7468 19.7596L20.0975 21.2346C20.7025 20.6806 21.0458 19.8973 21.0425 19.0769L19.0425 19.085ZM18.7468 19.7596C18.5571 19.9333 18.3023 20.0195 18.045 19.9963L17.8654 21.9882C18.6822 22.0619 19.4926 21.7885 20.0975 21.2346L18.7468 19.7596ZM18.063 19.9981C15.2719 19.6954 12.5909 18.7434 10.2355 17.2189L9.14877 18.8979C11.7665 20.5923 14.7459 21.6501 17.8474 21.9864L18.063 19.9981ZM10.2277 17.2139C8.03816 15.8252 6.18194 13.9725 4.7908 11.7874L3.1037 12.8615C4.65266 15.2945 6.71924 17.3571 9.15655 18.9029L10.2277 17.2139ZM4.78605 11.78C3.25347 9.41881 2.2998 6.7306 2.00217 3.93318L0.0133909 4.14478C0.344329 7.2552 1.40469 10.2439 3.10844 12.8689L4.78605 11.78ZM2.0037 3.94881C1.9807 3.6947 2.0657 3.4423 2.23857 3.25328L0.762741 1.90349C0.210817 2.50696 -0.0618978 3.3146 0.0118521 4.12915L2.0037 3.94881ZM2.23857 3.25328C2.41153 3.06417 2.65661 2.9559 2.91411 2.95566L2.91223 0.955661C2.09465 0.956429 1.31459 1.30011 0.762741 1.90349L2.23857 3.25328ZM2.91317 2.95566H5.78561V0.95566H2.91317V2.95566ZM5.79544 2.95561C6.25625 2.95109 6.6465 3.28798 6.71045 3.7396L8.6907 3.45917C8.4856 2.01088 7.23734 0.941351 5.77579 0.955709L5.79544 2.95561ZM6.70919 3.73039C6.84033 4.72278 7.08353 5.69717 7.43414 6.63496L9.30749 5.93457C9.00979 5.13828 8.8033 4.31096 8.69196 3.46838L6.70919 3.73039ZM7.43498 6.63721C7.56011 6.96945 7.48032 7.34428 7.22957 7.59737L8.65033 9.00501C9.45092 8.19695 9.70762 6.997 9.30664 5.93231L7.43498 6.63721ZM7.23352 7.59341L6.01751 8.80708L7.43037 10.2226L8.64638 9.00897L7.23352 7.59341ZM5.85506 10.0099C7.30728 12.559 9.42177 14.6693 11.9753 16.1185L12.9624 14.3791C10.7217 13.1074 8.86667 11.2558 7.59283 9.01986L5.85506 10.0099ZM13.1753 15.9566L14.3913 14.7429L12.9784 13.3273L11.7624 14.541L13.1753 15.9566ZM14.3873 14.7468C14.6412 14.4962 15.0187 14.4156 15.3539 14.5413L16.0564 12.6688C14.9919 12.2694 13.7917 12.5246 12.9824 13.3234L14.3873 14.7468ZM15.3561 14.5422C16.2954 14.892 17.2713 15.1346 18.2651 15.2655L18.5262 13.2826C17.6815 13.1714 16.8523 12.9652 16.0541 12.6679L15.3561 14.5422ZM18.2562 15.2642C18.7176 15.3292 19.0543 15.7282 19.0428 16.1891L21.0422 16.2388C21.079 14.7594 19.9993 13.49 18.5351 13.2838L18.2562 15.2642ZM19.0425 16.214V19.0809H21.0425V16.214H19.0425Z" fill="white"/>
</svg>
