<svg width="68" height="31" viewBox="0 0 68 31" fill="none" xmlns="http://www.w3.org/2000/svg">
<mask id="path-1-inside-1" fill="white">
<path fill-rule="evenodd" clip-rule="evenodd" d="M25.7325 3C25.7325 1.34315 24.3894 0 22.7325 0H3C1.34315 0 0 1.34314 0 3V21.8728V25.7325V27.4964C0 30.1691 3.23143 31.5076 5.12132 29.6177L8.12785 26.6112C8.69046 26.0486 9.45352 25.7325 10.2492 25.7325H22.7325C24.3894 25.7325 25.7325 24.3894 25.7325 22.7325V3Z"/>
</mask>
<path fill-rule="evenodd" clip-rule="evenodd" d="M25.7325 3C25.7325 1.34315 24.3894 0 22.7325 0H3C1.34315 0 0 1.34314 0 3V21.8728V25.7325V27.4964C0 30.1691 3.23143 31.5076 5.12132 29.6177L8.12785 26.6112C8.69046 26.0486 9.45352 25.7325 10.2492 25.7325H22.7325C24.3894 25.7325 25.7325 24.3894 25.7325 22.7325V3Z" fill="white"/>
<path d="M5.12132 29.6177L3 27.4964L5.12132 29.6177ZM8.12785 26.6112L10.2492 28.7325L8.12785 26.6112ZM3 3H22.7325V-3H3V3ZM3 21.8728V3H-3V21.8728H3ZM-3 21.8728V25.7325H3V21.8728H-3ZM-3 25.7325V27.4964H3V25.7325H-3ZM7.24264 31.7391L10.2492 28.7325L6.00653 24.4899L3 27.4964L7.24264 31.7391ZM22.7325 22.7325H10.2492V28.7325H22.7325V22.7325ZM22.7325 3V22.7325H28.7325V3H22.7325ZM-3 27.4964C-3 32.8419 3.46285 35.5189 7.24264 31.7391L3 27.4964C2.989 27.5074 2.98207 27.5127 2.97985 27.5144C2.97762 27.516 2.97835 27.5152 2.982 27.5133C2.9856 27.5115 2.99046 27.5093 2.99619 27.5074C3.00185 27.5055 3.00717 27.5043 3.01174 27.5035C3.02091 27.5019 3.02419 27.5027 3.02088 27.5023C3.01709 27.5019 3.00945 27.5003 3 27.4964C2.99055 27.4925 2.98405 27.4882 2.98106 27.4858C2.97845 27.4838 2.98136 27.4855 2.98672 27.4931C2.98939 27.4969 2.99225 27.5016 2.99491 27.5069C2.99761 27.5123 2.99954 27.5173 3.00077 27.5211C3.00202 27.525 3.00199 27.5261 3.00157 27.5234C3.00115 27.5206 3 27.512 3 27.4964H-3ZM22.7325 28.7325C26.0462 28.7325 28.7325 26.0463 28.7325 22.7325H22.7325V28.7325ZM22.7325 3H28.7325C28.7325 -0.313708 26.0463 -3 22.7325 -3V3ZM10.2492 28.7325H10.2492V22.7325C8.65787 22.7325 7.13174 23.3647 6.00653 24.4899L10.2492 28.7325ZM3 -3C-0.313707 -3 -3 -0.313711 -3 3H3V3V-3Z" fill="#0D21DA" mask="url(#path-1-inside-1)"/>
<mask id="path-3-inside-2" fill="white">
<path fill-rule="evenodd" clip-rule="evenodd" d="M67.465 3C67.465 1.34315 66.1218 0 64.465 0H44.7324C43.0756 0 41.7324 1.34314 41.7324 3V21.8728V25.7325V27.4964C41.7324 30.1691 44.9638 31.5076 46.8537 29.6177L49.8603 26.6112C50.4229 26.0486 51.1859 25.7325 51.9816 25.7325H64.465C66.1218 25.7325 67.465 24.3894 67.465 22.7325V3Z"/>
</mask>
<path fill-rule="evenodd" clip-rule="evenodd" d="M67.465 3C67.465 1.34315 66.1218 0 64.465 0H44.7324C43.0756 0 41.7324 1.34314 41.7324 3V21.8728V25.7325V27.4964C41.7324 30.1691 44.9638 31.5076 46.8537 29.6177L49.8603 26.6112C50.4229 26.0486 51.1859 25.7325 51.9816 25.7325H64.465C66.1218 25.7325 67.465 24.3894 67.465 22.7325V3Z" fill="white"/>
<path d="M46.8537 29.6177L44.7324 27.4964L46.8537 29.6177ZM49.8603 26.6112L51.9816 28.7325L49.8603 26.6112ZM44.7324 3H64.465V-3H44.7324V3ZM44.7324 21.8728V3H38.7324V21.8728H44.7324ZM38.7324 21.8728V25.7325H44.7324V21.8728H38.7324ZM38.7324 25.7325V27.4964H44.7324V25.7325H38.7324ZM48.9751 31.7391L51.9816 28.7325L47.7389 24.4899L44.7324 27.4964L48.9751 31.7391ZM64.465 22.7325H51.9816V28.7325H64.465V22.7325ZM64.465 3V22.7325H70.465V3H64.465ZM38.7324 27.4964C38.7324 32.8419 45.1953 35.5189 48.9751 31.7391L44.7324 27.4964C44.7214 27.5074 44.7145 27.5127 44.7123 27.5144C44.71 27.516 44.7108 27.5152 44.7144 27.5133C44.718 27.5115 44.7229 27.5093 44.7286 27.5074C44.7343 27.5055 44.7396 27.5043 44.7442 27.5035C44.7533 27.5019 44.7566 27.5027 44.7533 27.5023C44.7495 27.5019 44.7419 27.5003 44.7324 27.4964C44.723 27.4925 44.7165 27.4882 44.7135 27.4858C44.7109 27.4838 44.7138 27.4855 44.7191 27.4931C44.7218 27.4969 44.7247 27.5016 44.7273 27.5069C44.73 27.5123 44.732 27.5173 44.7332 27.5211C44.7344 27.525 44.7344 27.5261 44.734 27.5234C44.7336 27.5206 44.7324 27.512 44.7324 27.4964H38.7324ZM64.465 28.7325C67.7787 28.7325 70.465 26.0463 70.465 22.7325H64.465V28.7325ZM64.465 3H70.465C70.465 -0.313708 67.7787 -3 64.465 -3V3ZM51.9816 28.7325H51.9816V22.7325C50.3903 22.7325 48.8642 23.3647 47.7389 24.4899L51.9816 28.7325ZM44.7324 -3C41.4187 -3 38.7324 -0.313711 38.7324 3H44.7324V3V-3Z" fill="#0D21DA" mask="url(#path-3-inside-2)"/>
</svg>
