<svg width="90" height="84" viewBox="0 0 90 84" fill="none" xmlns="http://www.w3.org/2000/svg">
<path d="M44.8739 23.2884L52.83 28L50.7187 19.12L57.7478 13.1453L48.4915 12.3621L44.8739 4L41.2563 12.3621L32 13.1453L39.0163 19.12L36.9178 28L44.8739 23.2884Z" stroke="#282727" stroke-width="3"/>
<path d="M27.8739 75.2884L35.83 80L33.7187 71.12L40.7478 65.1453L31.4915 64.3621L27.8739 56L24.2563 64.3621L15 65.1453L22.0163 71.12L19.9178 80L27.8739 75.2884Z" stroke="#282727" stroke-width="3"/>
<path d="M61.8739 75.2884L69.83 80L67.7187 71.12L74.7478 65.1453L65.4915 64.3621L61.8739 56L58.2563 64.3621L49 65.1453L56.0163 71.12L53.9178 80L61.8739 75.2884Z" stroke="#282727" stroke-width="3"/>
<path d="M72.8739 43.2884L80.83 48L78.7187 39.12L85.7478 33.1453L76.4915 32.3621L72.8739 24L69.2563 32.3621L60 33.1453L67.0163 39.12L64.9178 48L72.8739 43.2884Z" stroke="#282727" stroke-width="3"/>
<path d="M16.8739 43.2884L24.83 48L22.7187 39.12L29.7478 33.1453L20.4915 32.3621L16.8739 24L13.2563 32.3621L4 33.1453L11.0163 39.12L8.91783 48L16.8739 43.2884Z" stroke="#282727" stroke-width="3"/>
</svg>
