<svg width="24" height="22" viewBox="0 0 24 22" fill="none" xmlns="http://www.w3.org/2000/svg">
<path d="M12.2492 15.4462C12.0949 15.3574 11.9051 15.3574 11.7508 15.4462L8.4981 17.3164C8.1172 17.5354 7.65929 17.1919 7.76299 16.7649L8.60213 13.3098C8.64732 13.1238 8.58231 12.9283 8.43472 12.8064L5.6422 10.4993C5.29606 10.2133 5.47302 9.65145 5.92056 9.61545L9.65185 9.31526C9.83439 9.30057 9.99429 9.18727 10.0687 9.01993L11.5431 5.70236C11.719 5.30645 12.281 5.30645 12.4569 5.70236L13.9313 9.01993C14.0057 9.18727 14.1656 9.30057 14.3481 9.31526L18.0794 9.61545C18.527 9.65145 18.7039 10.2133 18.3578 10.4993L15.5653 12.8064C15.4177 12.9283 15.3527 13.1238 15.3979 13.3098L16.237 16.7649C16.3407 17.1919 15.8828 17.5354 15.5019 17.3164L12.2492 15.4462ZM23.0489 9.05903C23.3952 8.77324 23.2185 8.21114 22.7709 8.17498L15.6679 7.60105C15.4855 7.58631 15.3257 7.47313 15.2513 7.30596L12.4568 1.02648C12.2808 0.630868 11.7192 0.630868 11.5432 1.02648L8.74868 7.30596C8.67429 7.47313 8.51452 7.58631 8.33214 7.60105L1.2275 8.1751C0.780107 8.21125 0.603253 8.77291 0.949215 9.05887L6.29868 13.4805C6.44629 13.6025 6.51124 13.7981 6.46594 13.9842L4.85978 20.5815C4.75582 21.0085 5.21375 21.3523 5.59477 21.1333L11.7508 17.5947C11.9051 17.506 12.0949 17.506 12.2492 17.5947L18.4033 21.1321C18.7846 21.3513 19.2427 21.0069 19.1381 20.5797L17.5227 13.9849C17.477 13.7985 17.5421 13.6024 17.6901 13.4802L23.0489 9.05903Z" fill="#C29329"/>
</svg>
