<svg width="24" height="22" viewBox="0 0 24 22" fill="none" xmlns="http://www.w3.org/2000/svg">
<path d="M11.7544 17.4658C11.9068 17.3798 12.0932 17.3798 12.2456 17.4658L18.4038 20.939C18.7861 21.1546 19.2408 20.8082 19.1345 20.3824L17.5252 13.936C17.4781 13.7474 17.5446 13.5486 17.6957 13.4263L23.0283 9.10948C23.3791 8.82547 23.2038 8.25872 22.7539 8.22247L15.6654 7.65128C15.4843 7.6367 15.3254 7.52507 15.2503 7.35969L12.4552 1.20652C12.2776 0.815574 11.7224 0.815574 11.5448 1.20652L8.74972 7.35969C8.6746 7.52507 8.5157 7.6367 8.33464 7.65128L1.24451 8.2226C0.794804 8.25884 0.619312 8.82514 0.969719 9.10933L6.29311 13.4266C6.44377 13.5488 6.51016 13.7471 6.46345 13.9354L4.86331 20.3842C4.75769 20.8099 5.21222 21.1556 5.59422 20.9401L11.7544 17.4658Z" fill="#C29329"/>
</svg>
