<svg width="24" height="22" viewBox="0 0 24 22" fill="none" xmlns="http://www.w3.org/2000/svg">
<path d="M12.2508 15.4585C12.0956 15.3693 12 15.204 12 15.025V7.03656C12 6.49677 12.737 6.34001 12.9567 6.83308L13.9312 9.02032C14.0057 9.18745 14.1655 9.30056 14.3478 9.31523L18.0824 9.61569C18.5296 9.65166 18.7068 10.2127 18.3615 10.499L15.5645 12.8178C15.4173 12.9398 15.3526 13.135 15.3977 13.3207L16.237 16.7763C16.3407 17.2033 15.8828 17.5468 15.5019 17.3278L12.2508 15.4585ZM23.0489 9.05903C23.3952 8.77324 23.2185 8.21114 22.7709 8.17498L15.6679 7.60105C15.4855 7.58631 15.3257 7.47313 15.2513 7.30596L12.4568 1.02648C12.2808 0.630868 11.7192 0.630868 11.5432 1.02648L8.74868 7.30596C8.67429 7.47313 8.51452 7.58631 8.33214 7.60105L1.2275 8.1751C0.780107 8.21125 0.603253 8.77291 0.949215 9.05887L6.29868 13.4805C6.44629 13.6025 6.51124 13.7981 6.46594 13.9842L4.85978 20.5815C4.75582 21.0085 5.21375 21.3523 5.59477 21.1333L11.7508 17.5947C11.9051 17.506 12.0949 17.506 12.2492 17.5947L18.4033 21.1321C18.7846 21.3513 19.2427 21.0069 19.1381 20.5797L17.5227 13.9849C17.477 13.7985 17.5421 13.6024 17.6901 13.4802L23.0489 9.05903Z" fill="#C29329"/>
</svg>
