<svg width="68" height="62" viewBox="0 0 68 62" fill="none" xmlns="http://www.w3.org/2000/svg">
<path d="M16.8739 53.2884L24.83 58L22.7187 49.12L29.7478 43.1453L20.4915 42.3621L16.8739 34L13.2563 42.3621L4 43.1453L11.0163 49.12L8.91783 58L16.8739 53.2884Z" stroke="#282727" stroke-width="3"/>
<path d="M50.622 53.2884L58.578 58L56.4667 49.12L63.4959 43.1453L54.2395 42.3621L50.622 34L47.0044 42.3621L37.748 43.1453L44.7643 49.12L42.6659 58L50.622 53.2884Z" stroke="#282727" stroke-width="3"/>
<path d="M32.8739 23.2884L40.83 28L38.7187 19.12L45.7478 13.1453L36.4915 12.3621L32.8739 4L29.2563 12.3621L20 13.1453L27.0163 19.12L24.9178 28L32.8739 23.2884Z" stroke="#282727" stroke-width="3"/>
</svg>
