<svg width="1220" height="1167" viewBox="0 0 1220 1167" fill="none" xmlns="http://www.w3.org/2000/svg">
<g clip-path="url(#clip0)">
<rect width="1920" height="7433" transform="translate(-342 -1346)" fill="white"/>
<path d="M702.81 29.1483C742.034 -18.3286 817.944 -5.54035 839.449 52.1672L1214.43 1058.44C1235.93 1116.15 1186.9 1175.5 1126.17 1165.27L67.2238 986.87C6.4955 976.639 -20.3847 904.505 18.8394 857.028L702.81 29.1483Z" fill="#EBC46D"/>
<path opacity="0.25" d="M29.0394 886.741C-28.5471 864.915 -40.9111 788.934 6.78418 749.976L838.471 70.6403C886.167 31.682 958.15 58.9648 968.041 119.749L1140.52 1179.68C1150.41 1240.46 1090.79 1289.16 1033.2 1267.34L29.0394 886.741Z" fill="white"/>
</g>
<defs>
<clipPath id="clip0">
<rect width="1920" height="7433" fill="white" transform="translate(-342 -1346)"/>
</clipPath>
</defs>
</svg>
