<svg width="833" height="797" viewBox="0 0 833 797" fill="none" xmlns="http://www.w3.org/2000/svg">
<g clip-path="url(#clip0)">
<rect width="1920" height="3305" transform="translate(-971 -1413)" fill="white"/>
<path d="M18.6169 239.424C-20.2539 191.658 7.16076 119.724 67.9633 109.945L739.982 1.85498C800.784 -7.9247 849.373 51.7837 827.441 109.33L585.04 745.36C563.109 802.906 487.105 815.131 448.235 767.365L18.6169 239.424Z" fill="#EBC46D"/>
<path opacity="0.4" d="M57.4179 177.277C27.2842 123.569 66.5914 57.3806 128.171 58.1381L775.521 66.1019C837.1 66.8595 874.767 133.995 843.321 186.945L512.75 743.585C481.304 796.535 404.33 795.588 374.196 741.88L57.4179 177.277Z" fill="white"/>
</g>
<defs>
<clipPath id="clip0">
<rect width="1920" height="3305" fill="white" transform="translate(-971 -1413)"/>
</clipPath>
</defs>
</svg>
