<svg width="815" height="822" viewBox="0 0 815 822" fill="none" xmlns="http://www.w3.org/2000/svg">
<g clip-path="url(#clip0)">
<rect width="1920" height="3305" transform="translate(-343 -1134)" fill="white"/>
<path d="M58.4134 630.831C-0.791675 613.879 -19.4447 539.193 24.8381 496.396L514.273 23.3778C558.556 -19.4196 632.562 1.7694 647.484 61.5182L812.413 721.89C827.335 781.639 771.981 835.136 712.776 818.185L58.4134 630.831Z" fill="#EBC46D"/>
<path opacity="0.4" d="M54.6974 557.66C-0.738729 530.837 -6.35054 454.062 44.5961 419.464L580.17 55.7535C631.117 21.1555 700.412 54.6831 704.902 116.103L752.097 761.78C756.587 823.2 692.903 866.447 637.467 839.625L54.6974 557.66Z" fill="white"/>
</g>
<defs>
<clipPath id="clip0">
<rect width="1920" height="3305" fill="white" transform="translate(-343 -1134)"/>
</clipPath>
</defs>
</svg>
