<svg width="20px" height="16px" viewBox="0 0 20 16" fill="none" xmlns="http://www.w3.org/2000/svg">
<path d="M20 1.88235C19.2639 2.21176 18.4704 2.42824 17.6482 2.53176C18.4895 2.03294 19.1396 1.24235 19.4455 0.291765C18.652 0.762353 17.7725 1.09176 16.8451 1.28C16.0899 0.470588 15.0287 0 13.8241 0C11.5774 0 9.74187 1.80706 9.74187 4.03765C9.74187 4.35765 9.78011 4.66824 9.84704 4.96C6.44359 4.79059 3.413 3.18118 1.39579 0.743529C1.04207 1.33647 0.8413 2.03294 0.8413 2.76706C0.8413 4.16941 1.55832 5.41176 2.6673 6.11765C1.98853 6.11765 1.35755 5.92941 0.803059 5.64706C0.803059 5.64706 0.803059 5.64706 0.803059 5.67529C0.803059 7.63294 2.21797 9.27059 4.09178 9.63765C3.74761 9.73176 3.38432 9.77882 3.01147 9.77882C2.75335 9.77882 2.49522 9.75059 2.24665 9.70353C2.76291 11.2941 4.26386 12.48 6.07075 12.5082C4.67495 13.6 2.90631 14.24 0.975143 14.24C0.650096 14.24 0.325048 14.2212 -3.64694e-08 14.1835C1.81644 15.3318 3.97706 16 6.29063 16C13.8241 16 17.9637 9.84471 17.9637 4.50824C17.9637 4.32941 17.9637 4.16 17.9541 3.98118C18.7572 3.41647 19.4455 2.70118 20 1.88235Z" fill="white"/>
</svg>
