<svg width="56" height="56" viewBox="0 0 56 56" fill="none" xmlns="http://www.w3.org/2000/svg">
<circle opacity="0.5" cx="28" cy="28" r="28" fill="white"/>
<path d="M28.0001 48.8728C16.494 48.8728 7.12736 39.5062 7.12736 28.0001C7.12736 16.494 16.494 7.12736 28.0001 7.12736C39.5062 7.12736 48.8728 16.494 48.8728 28.0001C48.8728 39.5062 39.5062 48.8728 28.0001 48.8728ZM28.0001 1.90918C24.5738 1.90918 21.181 2.58404 18.0155 3.89523C14.85 5.20642 11.9738 7.12827 9.55103 9.55103C4.65804 14.444 1.90918 21.0804 1.90918 28.0001C1.90918 34.9198 4.65804 41.5562 9.55103 46.4492C11.9738 48.8719 14.85 50.7938 18.0155 52.1049C21.181 53.4161 24.5738 54.091 28.0001 54.091C34.9198 54.091 41.5562 51.3421 46.4492 46.4492C51.3421 41.5562 54.091 34.9198 54.091 28.0001C54.091 24.5738 53.4161 21.181 52.1049 18.0155C50.7938 14.85 48.8719 11.9738 46.4492 9.55103C44.0264 7.12827 41.1501 5.20642 37.9846 3.89523C34.8192 2.58404 31.4264 1.90918 28.0001 1.90918ZM22.7819 39.741L38.4365 28.0001L22.7819 16.2592V39.741Z" fill="#0D21DA"/>
</svg>
